{
.appVersion = "1056";
DisplayStrings = (
"-"
);
copyright = "Copyright 2014 Dinamo (Johannes Breyer, Fabian Harb)";
customParameters = (
{
name = vendorID;
value = NONE;
},
{
name = panose;
value = (
2,
1,
3,
3,
3,
2,
1,
8,
2,
3
);
},
{
name = unicodeRanges;
value = (
0
);
},
{
name = codePageRanges;
value = (
1252,
1250,
1254,
1257
);
},
{
name = glyphOrder;
value = (
.notdef,
space,
exclam,
quotedbl,
numbersign,
dollar,
percent,
ampersand,
quotesingle,
parenleft,
parenright,
asterisk,
plus,
comma,
hyphen,
period,
slash,
zero,
one,
two,
three,
four,
five,
six,
seven,
eight,
nine,
colon,
semicolon,
less,
equal,
greater,
question,
at,
A,
B,
C,
D,
E,
F,
G,
H,
I,
J,
K,
L,
M,
N,
O,
P,
Q,
R,
S,
T,
U,
V,
W,
X,
Y,
Z,
bracketleft,
backslash,
bracketright,
asciicircum,
underscore,
grave,
a,
b,
c,
d,
e,
f,
g,
h,
i,
j,
k,
l,
m,
n,
o,
p,
q,
r,
s,
t,
u,
v,
w,
x,
y,
z,
braceleft,
bar,
braceright,
asciitilde,
exclamdown,
cent,
sterling,
currency,
yen,
brokenbar,
section,
dieresis,
copyright,
ordfeminine,
guillemotleft,
logicalnot,
registered,
macron,
degree,
plusminus,
twosuperior,
threesuperior,
acute,
mu,
paragraph,
periodcentered,
cedilla,
onesuperior,
ordmasculine,
guillemotright,
onequarter,
onehalf,
threequarters,
questiondown,
Agrave,
Aacute,
Acircumflex,
Atilde,
Adieresis,
Aring,
AE,
Ccedilla,
Egrave,
Eacute,
Ecircumflex,
Edieresis,
Igrave,
Iacute,
Icircumflex,
Idieresis,
Eth,
Ntilde,
Ograve,
Oacute,
Ocircumflex,
Otilde,
Odieresis,
multiply,
Oslash,
Ugrave,
Uacute,
Ucircumflex,
Udieresis,
Yacute,
Thorn,
germandbls,
agrave,
aacute,
acircumflex,
atilde,
adieresis,
aring,
ae,
ccedilla,
egrave,
eacute,
ecircumflex,
edieresis,
igrave,
iacute,
icircumflex,
idieresis,
eth,
ntilde,
ograve,
oacute,
ocircumflex,
otilde,
odieresis,
divide,
oslash,
ugrave,
uacute,
ucircumflex,
udieresis,
yacute,
thorn,
ydieresis,
Amacron,
amacron,
Abreve,
abreve,
Aogonek,
aogonek,
Cacute,
cacute,
Ccircumflex,
ccircumflex,
Cdotaccent,
cdotaccent,
Ccaron,
ccaron,
Dcaron,
dcaron,
Dcroat,
dcroat,

glyphs = (
{
glyphname = .notdef;
lastChange = "2019-04-11 11:13:44 +0000";
layers = (
{
layerId = "1EC54930-9952-4E85-BD3B-546E0FD37DE9";
paths = (
{
closed = 1;
nodes = (
"579 0 LINE",
"579 700 LINE",
"79 700 LINE",
"79 0 LINE"
);
},
{
closed = 1;
nodes = (
"487 92 LINE",
"171 92 LINE",
"171 608 LINE",
"487 608 LINE"
);
}
);
width = 657;
}
);
note = .notdef;
},
{
glyphname = exclam;
lastChange = "2019-04-11 11:13:44 +0000";
layers = (
{
layerId = "1EC54930-9952-4E85-BD3B-546E0FD37DE9";
paths = (
{
closed = 1;
nodes = (
"103 181 LINE",
"165 181 LINE",
"194 466 LINE",
"194 700 LINE",
"75 700 LINE",
"75 466 LINE"
);
},
{
closed = 1;
nodes = (
"77 0 LINE",
"192 0 LINE",
"192 117 LINE",
"77 117 LINE"
);
}
);
width = 269;
}
);
leftKerningGroup = exclam;
note = exclam;
unicode = 0021;
},
{
glyphname = quotedbl;
lastChange = "2019-04-11 11:13:44 +0000";
layers = (
{
layerId = "1EC54930-9952-4E85-BD3B-546E0FD37DE9";
paths = (
{
closed = 1;
nodes = (
"246 471 LINE",
"292 471 LINE",
"323 606 LINE",
"323 700 LINE",
"217 700 LINE",
"217 606 LINE"
);
},
{
closed = 1;
nodes = (
"82 471 LINE",
"128 471 LINE",
"159 606 LINE",
"159 700 LINE",
"53 700 LINE",
"53 606 LINE"
);
}
);
width = 376;
}
);
leftKerningGroup = quotedbl;
note = quotedbl;
rightKerningGroup = quotedbl;
unicode = 0022;
},
{
glyphname = numbersign;
lastChange = "2019-04-11 11:13:44 +0000";
layers = (
{
layerId = "1EC54930-9952-4E85-BD3B-546E0FD37DE9";
paths = (
{
closed = 1;
nodes = (
"398 269 LINE",
"272 269 LINE",
"306 431 LINE",
"432 431 LINE"
);
},
{
closed = 1;
nodes = (
"341 0 LINE",
"448 0 LINE",
"483 166 LINE",
"620 166 LINE",
"620 269 LINE",
"505 269 LINE",
"539 431 LINE",
"663 431 LINE",
"663 534 LINE",
"561 534 LINE",
"596 700 LINE",
"489 700 LINE",
"454 534 LINE",
"328 534 LINE",
"364 700 LINE",
"257 700 LINE",
"221 534 LINE",
"83 534 LINE",
"83 431 LINE",
"199 431 LINE",
"165 269 LINE",
"40 269 LINE",
"40 166 LINE",
"143 166 LINE",
"107 0 LINE",
"214 0 LINE",
"250 166 LINE",
"376 166 LINE"
);
}
);
width = 703;
}
);
note = numbersign;
unicode = 0023;
},
{
glyphname = dollar;
lastChange = "2019-04-11 11:13:44 +0000";
layers = (
{
layerId = "1EC54930-9952-4E85-BD3B-546E0FD37DE9";
paths = (
{
closed = 1;
nodes = (
"274 420 LINE",
"213 433 OFFCURVE",
"186 458 OFFCURVE",
"186 508 CURVE SMOOTH",
"186 564 OFFCURVE",
"234 607 OFFCURVE",
"312 608 CURVE",
"281 419 LINE"
);
},
{
closed = 1;
nodes = (
"363 283 LINE",
"428 269 OFFCURVE",
"454 240 OFFCURVE",
"454 191 CURVE SMOOTH",
"454 135 OFFCURVE",
"407 92 OFFCURVE",
"328 92 CURVE",
"360 284 LINE"
);
},
{
closed = 1;
nodes = (
"315 -10 LINE SMOOTH",
"478 -10 OFFCURVE",
"571 77 OFFCURVE",
"571 198 CURVE SMOOTH",
"571 308 OFFCURVE",
"507 370 OFFCURVE",
"379 398 CURVE",
"410 584 LINE",
"442 563 OFFCURVE",
"462 529 OFFCURVE",
"465 484 CURVE",
"582 484 LINE",
"581 584 OFFCURVE",
"524 661 OFFCURVE",
"429 693 CURVE",
"450 820 LINE",
"348 820 LINE",
"329 710 LINE",
"320 710 LINE SMOOTH",
"161 710 OFFCURVE",
"68 613 OFFCURVE",
"68 500 CURVE SMOOTH",
"68 399 OFFCURVE",
"131 332 OFFCURVE",
"243 308 CURVE SMOOTH",
"261 304 LINE",
"229 110 LINE",
"180 132 OFFCURVE",
"153 175 OFFCURVE",
"151 231 CURVE",
"33 231 LINE",
"37 116 OFFCURVE",
"98 33 OFFCURVE",
"211 3 CURVE",
"190 -120 LINE",
"292 -120 LINE",
"310 -10 LINE"
);
}
);
width = 624;
}
);
note = dollar;
unicode = 0024;
},
{
glyphname = percent;
lastChange = "2019-04-11 11:13:44 +0000";
layers = (
{
layerId = "1EC54930-9952-4E85-BD3B-546E0FD37DE9";
paths = (
{
closed = 1;
nodes = (
"319 300 OFFCURVE",
"375 392 OFFCURVE",
"375 502 CURVE SMOOTH",
"375 613 OFFCURVE",
"319 705 OFFCURVE",
"203 705 CURVE SMOOTH",
"88 705 OFFCURVE",
"32 613 OFFCURVE",
"32 502 CURVE SMOOTH",
"32 392 OFFCURVE",
"88 300 OFFCURVE",
"203 300 CURVE SMOOTH"
);
},
{
closed = 1;
nodes = (
"309 0 LINE",
"729 700 LINE",
"626 700 LINE",
"206 0 LINE"
);
},
{
closed = 1;
nodes = (
"201 380 LINE SMOOTH",
"151 380 OFFCURVE",
"125 433 OFFCURVE",
"125 502 CURVE SMOOTH",
"125 572 OFFCURVE",
"151 625 OFFCURVE",
"201 625 CURVE SMOOTH",
"205 625 LINE SMOOTH",
"256 625 OFFCURVE",
"281 572 OFFCURVE",
"281 502 CURVE SMOOTH",
"281 433 OFFCURVE",
"256 380 OFFCURVE",
"205 380 CURVE SMOOTH"
);
},
{
closed = 1;
nodes = (
"847 -5 OFFCURVE",
"903 87 OFFCURVE",
"903 197 CURVE SMOOTH",
"903 308 OFFCURVE",
"847 400 OFFCURVE",
"731 400 CURVE SMOOTH",
"616 400 OFFCURVE",
"560 308 OFFCURVE",
"560 197 CURVE SMOOTH",
"560 87 OFFCURVE",
"616 -5 OFFCURVE",
"731 -5 CURVE SMOOTH"
);
},
{
closed = 1;
nodes = (
"729 75 LINE SMOOTH",
"679 75 OFFCURVE",
"653 128 OFFCURVE",
"653 197 CURVE SMOOTH",
"653 267 OFFCURVE",
"679 320 OFFCURVE",
"729 320 CURVE SMOOTH",
"733 320 LINE SMOOTH",
"784 320 OFFCURVE",
"809 267 OFFCURVE",
"809 197 CURVE SMOOTH",
"809 128 OFFCURVE",
"784 75 OFFCURVE",
"733 75 CURVE SMOOTH"
);
}
);
width = 936;
}
);
note = percent;
unicode = 0025;
},
{
glyphname = ampersand;
lastChange = "2019-04-11 11:13:44 +0000";
layers = (
{
layerId = "1EC54930-9952-4E85-BD3B-546E0FD37DE9";
paths = (
{
closed = 1;
nodes = (
"528 0 LINE",
"528 307 LINE",
"635 307 LINE",
"635 404 LINE",
"528 404 LINE",
"528 525 LINE",
"412 525 LINE",
"412 404 LINE",
"282 404 LINE SMOOTH",
"217 404 OFFCURVE",
"169 438 OFFCURVE",
"169 505 CURVE SMOOTH",
"169 572 OFFCURVE",
"219 604 OFFCURVE",
"282 604 CURVE SMOOTH",
"399 604 LINE",
"399 700 LINE",
"255 700 LINE SMOOTH",
"147 700 OFFCURVE",
"53 632 OFFCURVE",
"53 519 CURVE SMOOTH",
"53 434 OFFCURVE",
"105 381 OFFCURVE",
"178 354 CURVE",
"102 329 OFFCURVE",
"48 272 OFFCURVE",
"48 185 CURVE SMOOTH",
"48 72 OFFCURVE",
"146 0 OFFCURVE",
"256 0 CURVE SMOOTH"
);
},
{
closed = 1;
nodes = (
"412 96 LINE",
"285 96 LINE SMOOTH",
"215 96 OFFCURVE",
"164 133 OFFCURVE",
"164 203 CURVE SMOOTH",
"164 271 OFFCURVE",
"215 307 OFFCURVE",
"285 307 CURVE SMOOTH",
"412 307 LINE"
);
}
);
width = 659;
}
);
leftKerningGroup = ampersand;
note = ampersand;
rightKerningGroup = ampersand;
unicode = 0026;
},
{
glyphname = quotesingle;
lastChange = "2019-04-11 11:13:44 +0000";
layers = (
{
layerId = "1EC54930-9952-4E85-BD3B-546E0FD37DE9";
paths = (
{
closed = 1;
nodes = (
"82 471 LINE",
"128 471 LINE",
"159 606 LINE",
"159 700 LINE",
"53 700 LINE",
"53 606 LINE"
);
}
);
width = 212;
}
);
leftKerningGroup = quotedbl;
note = quotesingle;
rightKerningGroup = quotedbl;
unicode = 0027;
},
{
glyphname = parenleft;
lastChange = "2019-04-11 11:13:44 +0000";
layers = (
{
layerId = "1EC54930-9952-4E85-BD3B-546E0FD37DE9";
paths = (
{
closed = 1;
nodes = (
"362 -45 LINE",
"243 -21 OFFCURVE",
"161 112 OFFCURVE",
"161 350 CURVE SMOOTH",
"161 588 OFFCURVE",
"243 721 OFFCURVE",
"362 745 CURVE",
"362 845 LINE",
"174 833 OFFCURVE",
"45 643 OFFCURVE",
"45 350 CURVE SMOOTH",
"45 56 OFFCURVE",
"172 -136 OFFCURVE",
"362 -145 CURVE"
);
}
);
width = 389;
}
);
note = parenleft;
rightKerningGroup = parenleft;
unicode = 0028;
},
{
glyphname = parenright;
lastChange = "2019-04-11 11:13:44 +0000";
layers = (
{
layerId = "1EC54930-9952-4E85-BD3B-546E0FD37DE9";
paths = (
{
closed = 1;
nodes = (
"27 -145 LINE",
"217 -136 OFFCURVE",
"344 56 OFFCURVE",
"344 350 CURVE SMOOTH",
"344 643 OFFCURVE",
"215 833 OFFCURVE",
"27 845 CURVE",
"27 745 LINE",
"146 721 OFFCURVE",
"228 588 OFFCURVE",
"228 350 CURVE SMOOTH",
"228 112 OFFCURVE",
"146 -21 OFFCURVE",
"27 -45 CURVE"
);
}
);
width = 389;
}
);
leftKerningGroup = parenright;
note = parenright;
unicode = 0029;
},
{
glyphname = asterisk;
lastChange = "2019-04-11 11:13:44 +0000";
layers = (
{
layerId = "1EC54930-9952-4E85-BD3B-546E0FD37DE9";
paths = (
{
closed = 1;
nodes = (
"345 452 LINE",
"290 545 LINE",
"394 545 LINE",
"394 623 LINE",
"290 623 LINE",
"345 716 LINE",
"275 755 LINE",
"220 662 LINE",
"165 755 LINE",
"95 716 LINE",
"150 623 LINE",
"46 623 LINE",
"46 545 LINE",
"150 545 LINE",
"95 452 LINE",
"165 413 LINE",
"220 506 LINE",
"275 413 LINE"
);
}
);
width = 440;
}
);
leftKerningGroup = asterisk;
note = asterisk;
rightKerningGroup = asterisk;
unicode = 002A;
},
{
glyphname = plus;
lastChange = "2019-04-11 11:13:44 +0000";
layers = (
{
layerId = "1EC54930-9952-4E85-BD3B-546E0FD37DE9";
paths = (
{
closed = 1;
nodes = (
"534 206 LINE",
"534 309 LINE",
"347 309 LINE",
"347 500 LINE",
"229 500 LINE",
"229 309 LINE",
"41 309 LINE",
"41 206 LINE",
"229 206 LINE",
"229 15 LINE",
"347 15 LINE",
"347 206 LINE"
);
}
);
width = 575;
}
);
note = plus;
unicode = 002B;
},
{
glyphname = comma;
lastChange = "2019-04-11 11:13:44 +0000";
layers = (
{
layerId = "1EC54930-9952-4E85-BD3B-546E0FD37DE9";
paths = (
{
closed = 1;
nodes = (
"69 -146 LINE SMOOTH",
"147 -146 OFFCURVE",
"199 -91 OFFCURVE",
"199 -17 CURVE SMOOTH",
"199 134 LINE",
"65 134 LINE",
"65 0 LINE",
"128 0 LINE",
"128 -12 LINE SMOOTH",
"128 -49 OFFCURVE",
"109 -75 OFFCURVE",
"66 -75 CURVE SMOOTH",
"31 -75 LINE",
"31 -146 LINE"
);
}
);
width = 263;
}
);
leftKerningGroup = comma;
note = comma;
rightKerningGroup = comma;
unicode = 002C;
},
{
glyphname = hyphen;
lastChange = "2019-04-11 11:26:36 +0000";
layers = (
{
layerId = "1EC54930-9952-4E85-BD3B-546E0FD37DE9";
paths = (
{
closed = 1;
nodes = (
"4 293 LINE",
"405 293 LINE",
"405 407 LINE",
"4 407 LINE"
);
}
);
width = 409;
}
);
leftKerningGroup = hyphen;
note = hyphen;
rightKerningGroup = hyphen;
unicode = 002D;
},
{
glyphname = period;
lastChange = "2019-04-11 11:13:44 +0000";
layers = (
{
layerId = "1EC54930-9952-4E85-BD3B-546E0FD37DE9";
paths = (
{
closed = 1;
nodes = (
"64 0 LINE",
"198 0 LINE",
"198 134 LINE",
"64 134 LINE"
);
}
);
width = 262;
}
);
leftKerningGroup = comma;
note = period;
rightKerningGroup = comma;
unicode = 002E;
},
{
glyphname = slash;
lastChange = "2019-04-11 11:13:44 +0000";
layers = (
{
layerId = "1EC54930-9952-4E85-BD3B-546E0FD37DE9";
paths = (
{
closed = 1;
nodes = (
"29 0 LINE",
"152 0 LINE",
"419 700 LINE",
"299 700 LINE"
);
}
);
width = 449;
}
);
leftKerningGroup = slash;
note = slash;
rightKerningGroup = slash;
unicode = 002F;
},
{
glyphname = zero;
lastChange = "2019-04-11 11:13:44 +0000";
layers = (
{
layerId = "1EC54930-9952-4E85-BD3B-546E0FD37DE9";
paths = (
{
closed = 1;
nodes = (
"512 -10 OFFCURVE",
"613 126 OFFCURVE",
"613 350 CURVE SMOOTH",
"613 574 OFFCURVE",
"509 710 OFFCURVE",
"332 710 CURVE SMOOTH",
"155 710 OFFCURVE",
"52 574 OFFCURVE",
"52 350 CURVE SMOOTH",
"52 126 OFFCURVE",
"152 -10 OFFCURVE",
"332 -10 CURVE SMOOTH"
);
},
{
closed = 1;
nodes = (
"328 92 LINE SMOOTH",
"233 92 OFFCURVE",
"170 177 OFFCURVE",
"170 350 CURVE SMOOTH",
"170 523 OFFCURVE",
"233 608 OFFCURVE",
"328 608 CURVE SMOOTH",
"337 608 LINE SMOOTH",
"432 608 OFFCURVE",
"495 523 OFFCURVE",
"495 350 CURVE SMOOTH",
"495 177 OFFCURVE",
"432 92 OFFCURVE",
"337 92 CURVE SMOOTH"
);
}
);
width = 666;
}
);
leftKerningGroup = zero;
note = zero;
rightKerningGroup = zero;
unicode = 0030;
},
{
glyphname = one;
lastChange = "2019-04-11 11:13:44 +0000";
layers = (
{
layerId = "1EC54930-9952-4E85-BD3B-546E0FD37DE9";
paths = (
{
closed = 1;
nodes = (
"304 0 LINE",
"304 700 LINE",
"212 700 LINE",
"34 527 LINE",
"34 381 LINE",
"190 532 LINE",
"190 0 LINE"
);
}
);
width = 392;
}
);
leftKerningGroup = one;
note = one;
unicode = 0031;
},
{
glyphname = two;
lastChange = "2019-04-11 11:13:44 +0000";
layers = (
{
layerId = "1EC54930-9952-4E85-BD3B-546E0FD37DE9";
paths = (
{
closed = 1;
nodes = (
"534 0 LINE",
"534 104 LINE",
"193 104 LINE",
"377 274 LINE SMOOTH",
"464 354 OFFCURVE",
"524 418 OFFCURVE",
"524 517 CURVE SMOOTH",
"524 634 OFFCURVE",
"428 710 OFFCURVE",
"296 710 CURVE SMOOTH",
"159 710 OFFCURVE",
"57 624 OFFCURVE",
"56 485 CURVE",
"175 485 LINE",
"176 559 OFFCURVE",
"225 608 OFFCURVE",
"292 608 CURVE SMOOTH",
"302 608 LINE SMOOTH",
"362 608 OFFCURVE",
"406 569 OFFCURVE",
"406 512 CURVE SMOOTH",
"406 446 OFFCURVE",
"356 405 OFFCURVE",
"282 335 CURVE SMOOTH",
"49 115 LINE",
"49 0 LINE"
);
}
);
width = 584;
}
);
leftKerningGroup = two;
note = two;
rightKerningGroup = two;
unicode = 0032;
},
{
glyphname = three;
lastChange = "2019-04-11 11:13:44 +0000";
layers = (
{
layerId = "1EC54930-9952-4E85-BD3B-546E0FD37DE9";
paths = (
{
closed = 1;
nodes = (
"432 -10 OFFCURVE",
"536 66 OFFCURVE",
"536 188 CURVE SMOOTH",
"536 274 OFFCURVE",
"480 334 OFFCURVE",
"409 353 CURVE",
"480 374 OFFCURVE",
"531 435 OFFCURVE",
"531 519 CURVE SMOOTH",
"531 623 OFFCURVE",
"434 710 OFFCURVE",
"295 710 CURVE SMOOTH",
"162 710 OFFCURVE",
"60 626 OFFCURVE",
"57 509 CURVE",
"174 509 LINE",
"179 569 OFFCURVE",
"230 608 OFFCURVE",
"288 608 CURVE SMOOTH",
"298 608 LINE SMOOTH",
"364 608 OFFCURVE",
"413 567 OFFCURVE",
"413 507 CURVE SMOOTH",
"413 445 OFFCURVE",
"364 401 OFFCURVE",
"289 401 CURVE SMOOTH",
"239 401 LINE",
"239 299 LINE",
"292 299 LINE SMOOTH",
"365 299 OFFCURVE",
"417 261 OFFCURVE",
"417 196 CURVE SMOOTH",
"417 140 OFFCURVE",
"372 92 OFFCURVE",
"295 92 CURVE SMOOTH",
"285 92 LINE SMOOTH",
"215 92 OFFCURVE",
"171 130 OFFCURVE",
"162 189 CURVE",
"44 189 LINE",
"50 66 OFFCURVE",
"148 -10 OFFCURVE",
"290 -10 CURVE SMOOTH"
);
}
);
width = 592;
}
);
leftKerningGroup = three;
note = three;
rightKerningGroup = three;
unicode = 0033;
},
{
glyphname = four;
lastChange = "2019-04-11 11:13:44 +0000";
layers = (
{
layerId = "1EC54930-9952-4E85-BD3B-546E0FD37DE9";
paths = (
{
closed = 1;
nodes = (
"483 0 LINE",
"483 149 LINE",
"590 149 LINE",
"590 251 LINE",
"483 251 LINE",
"483 700 LINE",
"368 700 LINE",
"29 265 LINE",
"29 149 LINE",
"370 149 LINE",
"370 0 LINE"
);
},
{
closed = 1;
nodes = (
"370 251 LINE",
"143 251 LINE",
"370 541 LINE"
);
}
);
width = 622;
}
);
leftKerningGroup = four;
note = four;
rightKerningGroup = four;
unicode = 0034;
},
{
glyphname = five;
lastChange = "2019-04-11 11:13:44 +0000";
layers = (
{
layerId = "1EC54930-9952-4E85-BD3B-546E0FD37DE9";
paths = (
{
closed = 1;
nodes = (
"435 -10 OFFCURVE",
"536 85 OFFCURVE",
"536 223 CURVE SMOOTH",
"536 347 OFFCURVE",
"447 438 OFFCURVE",
"317 438 CURVE SMOOTH",
"270 438 OFFCURVE",
"220 420 OFFCURVE",
"188 390 CURVE",
"231 596 LINE",
"529 596 LINE",
"529 700 LINE",
"143 700 LINE",
"57 279 LINE",
"168 279 LINE",
"199 319 OFFCURVE",
"247 336 OFFCURVE",
"286 336 CURVE SMOOTH",
"294 336 LINE SMOOTH",
"364 336 OFFCURVE",
"418 291 OFFCURVE",
"418 218 CURVE SMOOTH",
"418 142 OFFCURVE",
"365 92 OFFCURVE",
"291 92 CURVE SMOOTH",
"284 92 LINE SMOOTH",
"215 92 OFFCURVE",
"162 128 OFFCURVE",
"151 191 CURVE",
"33 191 LINE",
"45 67 OFFCURVE",
"149 -10 OFFCURVE",
"287 -10 CURVE SMOOTH"
);
}
);
width = 588;
}
);
leftKerningGroup = five;
note = five;
unicode = 0035;
},
{
glyphname = six;
lastChange = "2019-04-11 11:13:44 +0000";
layers = (
{
layerId = "1EC54930-9952-4E85-BD3B-546E0FD37DE9";
paths = (
{
closed = 1;
nodes = (
"567 371 OFFCURVE",
"464 460 OFFCURVE",
"341 460 CURVE SMOOTH",
"261 460 OFFCURVE",
"190 421 OFFCURVE",
"157 357 CURVE",
"172 526 OFFCURVE",
"257 607 OFFCURVE",
"348 607 CURVE SMOOTH",
"357 607 LINE SMOOTH",
"420 607 OFFCURVE",
"454 571 OFFCURVE",
"464 524 CURVE",
"582 524 LINE",
"564 640 OFFCURVE",
"477 710 OFFCURVE",
"358 710 CURVE SMOOTH",
"189 710 OFFCURVE",
"52 556 OFFCURVE",
"52 327 CURVE SMOOTH",
"52 112 OFFCURVE",
"152 -10 OFFCURVE",
"316 -10 CURVE SMOOTH",
"470 -10 OFFCURVE",
"567 96 OFFCURVE",
"567 230 CURVE SMOOTH"
);
},
{
closed = 1;
nodes = (
"180 302 OFFCURVE",
"240 358 OFFCURVE",
"313 358 CURVE SMOOTH",
"322 358 LINE SMOOTH",
"393 358 OFFCURVE",
"449 302 OFFCURVE",
"449 225 CURVE SMOOTH",
"449 149 OFFCURVE",
"393 93 OFFCURVE",
"322 93 CURVE SMOOTH",
"313 93 LINE SMOOTH",
"238 93 OFFCURVE",
"180 150 OFFCURVE",
"180 225 CURVE SMOOTH"
);
}
);
width = 627;
}
);
leftKerningGroup = six;
note = six;
unicode = 0036;
},
{
glyphname = seven;
lastChange = "2019-04-11 11:13:44 +0000";
layers = (
{
layerId = "1EC54930-9952-4E85-BD3B-546E0FD37DE9";
paths = (
{
closed = 1;
nodes = (
"263 0 LINE",
"263 46 LINE SMOOTH",
"263 333 OFFCURVE",
"362 497 OFFCURVE",
"520 596 CURVE",
"520 700 LINE",
"24 700 LINE",
"24 593 LINE",
"386 593 LINE",
"252 501 OFFCURVE",
"141 331 OFFCURVE",
"141 50 CURVE SMOOTH",
"141 0 LINE"
);
}
);
width = 549;
}
);
leftKerningGroup = seven;
note = seven;
rightKerningGroup = seven;
unicode = 0037;
},
{
glyphname = eight;
lastChange = "2019-04-11 11:13:44 +0000";
layers = (
{
layerId = "1EC54930-9952-4E85-BD3B-546E0FD37DE9";
paths = (
{
closed = 1;
nodes = (
"432 -10 OFFCURVE",
"516 74 OFFCURVE",
"516 178 CURVE SMOOTH",
"516 261 OFFCURVE",
"466 316 OFFCURVE",
"398 339 CURVE",
"469 361 OFFCURVE",
"530 426 OFFCURVE",
"530 517 CURVE SMOOTH",
"530 621 OFFCURVE",
"442 710 OFFCURVE",
"291 710 CURVE SMOOTH",
"141 710 OFFCURVE",
"53 621 OFFCURVE",
"53 517 CURVE SMOOTH",
"53 426 OFFCURVE",
"114 361 OFFCURVE",
"185 339 CURVE",
"117 316 OFFCURVE",
"67 261 OFFCURVE",
"67 178 CURVE SMOOTH",
"67 74 OFFCURVE",
"150 -10 OFFCURVE",
"291 -10 CURVE SMOOTH"
);
},
{
closed = 1;
nodes = (
"296 608 LINE SMOOTH",
"361 608 OFFCURVE",
"412 564 OFFCURVE",
"412 502 CURVE SMOOTH",
"412 439 OFFCURVE",
"361 394 OFFCURVE",
"296 394 CURVE SMOOTH",
"286 394 LINE SMOOTH",
"222 394 OFFCURVE",
"171 439 OFFCURVE",
"171 502 CURVE SMOOTH",
"171 564 OFFCURVE",
"222 608 OFFCURVE",
"286 608 CURVE SMOOTH"
);
},
{
closed = 1;
nodes = (
"399 131 OFFCURVE",
"355 92 OFFCURVE",
"296 92 CURVE SMOOTH",
"286 92 LINE SMOOTH",
"228 92 OFFCURVE",
"184 131 OFFCURVE",
"184 191 CURVE SMOOTH",
"184 250 OFFCURVE",
"228 292 OFFCURVE",
"286 292 CURVE SMOOTH",
"296 292 LINE SMOOTH",
"355 292 OFFCURVE",
"399 250 OFFCURVE",
"399 191 CURVE SMOOTH"
);
}
);
width = 583;
}
);
leftKerningGroup = eight;
note = eight;
rightKerningGroup = eight;
unicode = 0038;
},
{
glyphname = nine;
lastChange = "2019-04-11 11:13:44 +0000";
layers = (
{
layerId = "1EC54930-9952-4E85-BD3B-546E0FD37DE9";
paths = (
{
closed = 1;
nodes = (
"447 398 OFFCURVE",
"387 342 OFFCURVE",
"314 342 CURVE SMOOTH",
"305 342 LINE SMOOTH",
"234 342 OFFCURVE",
"178 398 OFFCURVE",
"178 475 CURVE SMOOTH",
"178 551 OFFCURVE",
"234 607 OFFCURVE",
"305 607 CURVE SMOOTH",
"314 607 LINE SMOOTH",
"389 607 OFFCURVE",
"447 550 OFFCURVE",
"447 475 CURVE SMOOTH"
);
},
{
closed = 1;
nodes = (
"60 329 OFFCURVE",
"163 240 OFFCURVE",
"286 240 CURVE SMOOTH",
"366 240 OFFCURVE",
"437 279 OFFCURVE",
"470 343 CURVE",
"455 174 OFFCURVE",
"370 93 OFFCURVE",
"279 93 CURVE SMOOTH",
"270 93 LINE SMOOTH",
"207 93 OFFCURVE",
"173 129 OFFCURVE",
"163 176 CURVE",
"45 176 LINE",
"63 60 OFFCURVE",
"150 -10 OFFCURVE",
"269 -10 CURVE SMOOTH",
"438 -10 OFFCURVE",
"575 144 OFFCURVE",
"575 373 CURVE SMOOTH",
"575 588 OFFCURVE",
"475 710 OFFCURVE",
"311 710 CURVE SMOOTH",
"157 710 OFFCURVE",
"60 604 OFFCURVE",
"60 470 CURVE SMOOTH"
);
}
);
width = 627;
}
);
leftKerningGroup = nine;
note = nine;
rightKerningGroup = nine;
unicode = 0039;
},
{
glyphname = colon;
lastChange = "2019-04-11 11:13:44 +0000";
layers = (
{
layerId = "1EC54930-9952-4E85-BD3B-546E0FD37DE9";
paths = (
{
closed = 1;
nodes = (
"64 366 LINE",
"198 366 LINE",
"198 500 LINE",
"64 500 LINE"
);
},
{
closed = 1;
nodes = (
"64 0 LINE",
"198 0 LINE",
"198 134 LINE",
"64 134 LINE"
);
}
);
width = 262;
}
);
leftKerningGroup = colon;
note = colon;
rightKerningGroup = colon;
unicode = 003A;
},
{
glyphname = semicolon;
lastChange = "2019-04-11 11:13:44 +0000";
layers = (
{
layerId = "1EC54930-9952-4E85-BD3B-546E0FD37DE9";
paths = (
{
closed = 1;
nodes = (
"80 366 LINE",
"214 366 LINE",
"214 500 LINE",
"80 500 LINE"
);
},
{
closed = 1;
nodes = (
"84 -146 LINE SMOOTH",
"162 -146 OFFCURVE",
"214 -91 OFFCURVE",
"214 -17 CURVE SMOOTH",
"214 134 LINE",
"80 134 LINE",
"80 0 LINE",
"143 0 LINE",
"143 -12 LINE SMOOTH",
"143 -49 OFFCURVE",
"124 -75 OFFCURVE",
"81 -75 CURVE SMOOTH",
"46 -75 LINE",
"46 -146 LINE"
);
}
);
width = 286;
}
);
leftKerningGroup = colon;
note = semicolon;
rightKerningGroup = colon;
unicode = 003B;
},
{
glyphname = less;
lastChange = "2019-04-11 11:13:44 +0000";
layers = (
{
layerId = "1EC54930-9952-4E85-BD3B-546E0FD37DE9";
paths = (
{
closed = 1;
nodes = (
"465 32 LINE",
"465 154 LINE",
"191 259 LINE",
"465 365 LINE",
"465 480 LINE",
"40 307 LINE",
"40 205 LINE"
);
}
);
width = 529;
}
);
note = less;
unicode = 003C;
},
{
glyphname = equal;
lastChange = "2019-04-11 11:13:44 +0000";
layers = (
{
layerId = "1EC54930-9952-4E85-BD3B-546E0FD37DE9";
paths = (
{
closed = 1;
nodes = (
"68 302 LINE",
"562 302 LINE",
"562 404 LINE",
"68 404 LINE"
);
},
{
closed = 1;
nodes = (
"68 111 LINE",
"562 111 LINE",
"562 213 LINE",
"68 213 LINE"
);
}
);
width = 630;
}
);
leftKerningGroup = equal;
note = equal;
rightKerningGroup = equal;
unicode = 003D;
},
{
glyphname = greater;
lastChange = "2019-04-11 11:13:44 +0000";
layers = (
{
layerId = "1EC54930-9952-4E85-BD3B-546E0FD37DE9";
paths = (
{
closed = 1;
nodes = (
"64 32 LINE",
"489 205 LINE",
"489 307 LINE",
"64 480 LINE",
"64 358 LINE",
"338 253 LINE",
"64 147 LINE"
);
}
);
width = 529;
}
);
note = greater;
unicode = 003E;
},
{
glyphname = question;
lastChange = "2019-04-11 11:13:44 +0000";
layers = (
{
layerId = "1EC54930-9952-4E85-BD3B-546E0FD37DE9";
paths = (
{
closed = 1;
nodes = (
"241 195 LINE",
"241 294 LINE SMOOTH",
"241 316 OFFCURVE",
"248 323 OFFCURVE",
"271 323 CURVE SMOOTH",
"373 323 OFFCURVE",
"451 401 OFFCURVE",
"451 508 CURVE SMOOTH",
"451 625 OFFCURVE",
"368 700 OFFCURVE",
"250 700 CURVE SMOOTH",
"34 700 LINE",
"34 596 LINE",
"234 596 LINE SMOOTH",
"295 596 OFFCURVE",
"333 562 OFFCURVE",
"333 508 CURVE SMOOTH",
"333 448 OFFCURVE",
"295 419 OFFCURVE",
"238 419 CURVE SMOOTH",
"218 419 LINE SMOOTH",
"159 419 OFFCURVE",
"130 392 OFFCURVE",
"130 333 CURVE SMOOTH",
"130 195 LINE"
);
},
{
closed = 1;
nodes = (
"128 0 LINE",
"243 0 LINE",
"243 117 LINE",
"128 117 LINE"
);
}
);
width = 484;
}
);
leftKerningGroup = question;
note = question;
unicode = 003F;
},
{
glyphname = at;
lastChange = "2019-04-11 11:13:44 +0000";
layers = (
{
layerId = "1EC54930-9952-4E85-BD3B-546E0FD37DE9";
paths = (
{
closed = 1;
nodes = (
"259 176 OFFCURVE",
"337 85 OFFCURVE",
"439 85 CURVE SMOOTH",
"499 85 OFFCURVE",
"543 115 OFFCURVE",
"564 154 CURVE",
"564 95 LINE",
"685 95 LINE SMOOTH",
"790 95 OFFCURVE",
"888 184 OFFCURVE",
"888 356 CURVE SMOOTH",
"888 566 OFFCURVE",
"707 730 OFFCURVE",
"480 730 CURVE SMOOTH",
"260 730 OFFCURVE",
"47 572 OFFCURVE",
"47 307 CURVE SMOOTH",
"47 17 OFFCURVE",
"236 -125 OFFCURVE",
"485 -125 CURVE SMOOTH",
"743 -125 LINE",
"743 -26 LINE",
"492 -26 LINE SMOOTH",
"294 -26 OFFCURVE",
"156 96 OFFCURVE",
"156 307 CURVE SMOOTH",
"156 506 OFFCURVE",
"303 634 OFFCURVE",
"480 634 CURVE SMOOTH",
"662 634 OFFCURVE",
"779 518 OFFCURVE",
"779 356 CURVE SMOOTH",
"779 227 OFFCURVE",
"727 180 OFFCURVE",
"677 179 CURVE SMOOTH",
"664 179 LINE",
"664 500 LINE",
"562 500 LINE",
"562 441 LINE",
"540 480 OFFCURVE",
"499 510 OFFCURVE",
"439 510 CURVE SMOOTH",
"337 510 OFFCURVE",
"259 422 OFFCURVE",
"259 299 CURVE SMOOTH"
);
},
{
closed = 1;
nodes = (
"461 174 LINE SMOOTH",
"407 174 OFFCURVE",
"373 225 OFFCURVE",
"373 299 CURVE SMOOTH",
"373 371 OFFCURVE",
"409 421 OFFCURVE",
"464 421 CURVE SMOOTH",
"469 421 LINE SMOOTH",
"527 421 OFFCURVE",
"559 362 OFFCURVE",
"559 299 CURVE SMOOTH",
"559 235 OFFCURVE",
"525 174 OFFCURVE",
"466 174 CURVE SMOOTH"
);
}
);
width = 938;
}
);
leftKerningGroup = at;
note = at;
rightKerningGroup = at;
unicode = 0040;
},
{
glyphname = A;
lastChange = "2019-04-11 11:13:44 +0000";
layers = (
{
layerId = "1EC54930-9952-4E85-BD3B-546E0FD37DE9";
paths = (
{
closed = 1;
nodes = (
"465 279 LINE",
"237 279 LINE",
"351 575 LINE"
);
},
{
closed = 1;
nodes = (
"5 0 LINE",
"130 0 LINE",
"196 171 LINE",
"507 171 LINE",
"573 0 LINE",
"699 0 LINE",
"427 700 LINE",
"282 700 LINE"
);
}
);
width = 706;
}
);
leftKerningGroup = A;
note = A;
rightKerningGroup = A;
unicode = 0041;
},
{
glyphname = B;
lastChange = "2019-04-11 11:13:44 +0000";
layers = (
{
layerId = "1EC54930-9952-4E85-BD3B-546E0FD37DE9";
paths = (
{
closed = 1;
nodes = (
"404 0 LINE SMOOTH",
"526 0 OFFCURVE",
"618 78 OFFCURVE",
"618 188 CURVE SMOOTH",
"618 286 OFFCURVE",
"563 346 OFFCURVE",
"487 356 CURVE",
"555 375 OFFCURVE",
"603 434 OFFCURVE",
"603 517 CURVE SMOOTH",
"603 624 OFFCURVE",
"519 700 OFFCURVE",
"394 700 CURVE SMOOTH",
"86 700 LINE",
"86 0 LINE"
);
},
{
closed = 1;
nodes = (
"206 407 LINE",
"206 593 LINE",
"376 593 LINE SMOOTH",
"444 593 OFFCURVE",
"483 560 OFFCURVE",
"483 500 CURVE SMOOTH",
"483 441 OFFCURVE",
"444 407 OFFCURVE",
"376 407 CURVE SMOOTH"
);
},
{
closed = 1;
nodes = (
"206 107 LINE",
"206 303 LINE",
"384 303 LINE SMOOTH",
"454 303 OFFCURVE",
"498 269 OFFCURVE",
"498 205 CURVE SMOOTH",
"498 141 OFFCURVE",
"454 107 OFFCURVE",
"384 107 CURVE SMOOTH"
);
}
);
width = 666;
}
);
leftKerningGroup = B;
note = B;
rightKerningGroup = B;
unicode = 0042;
},
{
glyphname = C;
lastChange = "2019-04-11 11:13:44 +0000";
layers = (
{
layerId = "1EC54930-9952-4E85-BD3B-546E0FD37DE9";
paths = (
{
closed = 1;
nodes = (
"547 226 LINE",
"535 143 OFFCURVE",
"471 97 OFFCURVE",
"384 97 CURVE SMOOTH",
"374 97 LINE SMOOTH",
"246 97 OFFCURVE",
"166 200 OFFCURVE",
"166 350 CURVE SMOOTH",
"166 500 OFFCURVE",
"246 603 OFFCURVE",
"374 603 CURVE SMOOTH",
"384 603 LINE SMOOTH",
"471 603 OFFCURVE",
"535 556 OFFCURVE",
"547 474 CURVE",
"667 474 LINE",
"658 611 OFFCURVE",
"549 710 OFFCURVE",
"379 710 CURVE SMOOTH",
"168 710 OFFCURVE",
"46 561 OFFCURVE",
"46 350 CURVE SMOOTH",
"46 139 OFFCURVE",
"168 -10 OFFCURVE",
"379 -10 CURVE SMOOTH",
"549 -10 OFFCURVE",
"658 87 OFFCURVE",
"667 226 CURVE"
);
}
);
width = 708;
}
);
leftKerningGroup = C;
note = C;
rightKerningGroup = C;
unicode = 0043;
},
{
glyphname = D;
lastChange = "2019-04-11 11:13:44 +0000";
layers = (
{
layerId = "1EC54930-9952-4E85-BD3B-546E0FD37DE9";
paths = (
{
closed = 1;
nodes = (
"86 0 LINE",
"334 0 LINE SMOOTH",
"537 0 OFFCURVE",
"673 124 OFFCURVE",
"673 350 CURVE SMOOTH",
"673 576 OFFCURVE",
"534 700 OFFCURVE",
"331 700 CURVE SMOOTH",
"86 700 LINE"
);
},
{
closed = 1;
nodes = (
"206 107 LINE",
"206 593 LINE",
"321 593 LINE SMOOTH",
"462 593 OFFCURVE",
"553 523 OFFCURVE",
"553 350 CURVE SMOOTH",
"553 177 OFFCURVE",
"462 107 OFFCURVE",
"321 107 CURVE SMOOTH"
);
}
);
width = 719;
}
);
leftKerningGroup = B;
note = D;
rightKerningGroup = D;
unicode = 0044;
},
{
glyphname = E;
lastChange = "2019-04-11 11:13:44 +0000";
layers = (
{
layerId = "1EC54930-9952-4E85-BD3B-546E0FD37DE9";
paths = (
{
closed = 1;
nodes = (
"86 0 LINE",
"618 0 LINE",
"618 107 LINE",
"206 107 LINE",
"206 306 LINE",
"548 306 LINE",
"548 413 LINE",
"206 413 LINE",
"206 593 LINE",
"608 593 LINE",
"608 700 LINE",
"86 700 LINE"
);
}
);
width = 658;
}
);
leftKerningGroup = B;
note = E;
rightKerningGroup = E;
unicode = 0045;
},
{
glyphname = F;
lastChange = "2019-04-11 11:13:44 +0000";
layers = (
{
layerId = "1EC54930-9952-4E85-BD3B-546E0FD37DE9";
paths = (
{
closed = 1;
nodes = (
"86 0 LINE",
"206 0 LINE",
"206 286 LINE",
"538 286 LINE",
"538 394 LINE",
"206 394 LINE",
"206 593 LINE",
"588 593 LINE",
"588 700 LINE",
"86 700 LINE"
);
}
);
width = 613;
}
);
leftKerningGroup = B;
note = F;
rightKerningGroup = F;
unicode = 0046;
},
{
glyphname = G;
lastChange = "2019-04-11 11:13:44 +0000";
layers = (
{
layerId = "1EC54930-9952-4E85-BD3B-546E0FD37DE9";
paths = (
{
closed = 1;
nodes = (
"583 0 LINE",
"687 0 LINE",
"687 276 LINE SMOOTH",
"687 331 OFFCURVE",
"657 361 OFFCURVE",
"602 361 CURVE SMOOTH",
"389 361 LINE",
"389 254 LINE",
"583 254 LINE",
"584 246 LINE",
"572 158 OFFCURVE",
"498 97 OFFCURVE",
"394 97 CURVE SMOOTH",
"384 97 LINE SMOOTH",
"250 97 OFFCURVE",
"166 194 OFFCURVE",
"166 350 CURVE SMOOTH",
"166 506 OFFCURVE",
"250 603 OFFCURVE",
"384 603 CURVE SMOOTH",
"394 603 LINE SMOOTH",
"496 603 OFFCURVE",
"552 548 OFFCURVE",
"562 464 CURVE",
"682 464 LINE",
"672 605 OFFCURVE",
"569 711 OFFCURVE",
"389 711 CURVE SMOOTH",
"179 711 OFFCURVE",
"46 557 OFFCURVE",
"46 350 CURVE SMOOTH",
"46 143 OFFCURVE",
"181 -10 OFFCURVE",
"379 -10 CURVE SMOOTH",
"499 -10 OFFCURVE",
"567 49 OFFCURVE",
"583 80 CURVE"
);
}
);
width = 743;
}
);
leftKerningGroup = C;
note = G;
rightKerningGroup = G;
unicode = 0047;
},
{
glyphname = H;
lastChange = "2019-04-11 11:13:44 +0000";
layers = (
{
layerId = "1EC54930-9952-4E85-BD3B-546E0FD37DE9";
paths = (
{
closed = 1;
nodes = (
"86 0 LINE",
"206 0 LINE",
"206 296 LINE",
"533 296 LINE",
"533 0 LINE",
"653 0 LINE",
"653 700 LINE",
"533 700 LINE",
"533 404 LINE",
"206 404 LINE",
"206 700 LINE",
"86 700 LINE"
);
}
);
width = 739;
}
);
leftKerningGroup = B;
note = H;
rightKerningGroup = H;
unicode = 0048;
},
{
glyphname = I;
lastChange = "2019-04-11 11:13:44 +0000";
layers = (
{
layerId = "1EC54930-9952-4E85-BD3B-546E0FD37DE9";
paths = (
{
closed = 1;
nodes = (
"86 0 LINE",
"206 0 LINE",
"206 700 LINE",
"86 700 LINE"
);
}
);
width = 292;
}
);
leftKerningGroup = B;
note = I;
rightKerningGroup = H;
unicode = 0049;
},
{
glyphname = J;
lastChange = "2019-04-11 11:13:44 +0000";
layers = (
{
layerId = "1EC54930-9952-4E85-BD3B-546E0FD37DE9";
paths = (
{
closed = 1;
nodes = (
"183 0 LINE SMOOTH",
"284 0 OFFCURVE",
"339 55 OFFCURVE",
"339 155 CURVE SMOOTH",
"339 700 LINE",
"219 700 LINE",
"219 188 LINE SMOOTH",
"219 134 OFFCURVE",
"199 115 OFFCURVE",
"146 115 CURVE SMOOTH",
"28 115 LINE",
"28 0 LINE"
);
}
);
width = 420;
}
);
leftKerningGroup = J;
note = J;
rightKerningGroup = J;
unicode = 004A;
},
{
glyphname = K;
lastChange = "2019-04-11 11:13:44 +0000";
layers = (
{
layerId = "1EC54930-9952-4E85-BD3B-546E0FD37DE9";
paths = (
{
closed = 1;
nodes = (
"532 0 LINE",
"681 0 LINE",
"398 412 LINE",
"675 700 LINE",
"524 700 LINE",
"206 372 LINE",
"206 700 LINE",
"86 700 LINE",
"86 0 LINE",
"206 0 LINE",
"206 213 LINE",
"311 322 LINE"
);
}
);
width = 683;
}
);
leftKerningGroup = B;
note = K;
rightKerningGroup = K;
unicode = 004B;
},
{
glyphname = L;
lastChange = "2019-04-11 11:13:44 +0000";
layers = (
{
layerId = "1EC54930-9952-4E85-BD3B-546E0FD37DE9";
paths = (
{
closed = 1;
nodes = (
"86 0 LINE",
"608 0 LINE",
"608 107 LINE",
"206 107 LINE",
"206 700 LINE",
"86 700 LINE"
);
}
);
width = 625;
}
);
leftKerningGroup = B;
note = L;
rightKerningGroup = L;
unicode = 004C;
},
{
glyphname = M;
lastChange = "2019-04-11 11:13:44 +0000";
layers = (
{
layerId = "1EC54930-9952-4E85-BD3B-546E0FD37DE9";
paths = (
{
closed = 1;
nodes = (
"397 0 LINE",
"537 0 LINE",
"725 580 LINE",
"725 0 LINE",
"843 0 LINE",
"843 700 LINE",
"653 700 LINE",
"468 126 LINE",
"278 700 LINE",
"86 700 LINE",
"86 0 LINE",
"205 0 LINE",
"205 577 LINE"
);
}
);
width = 929;
}
);
leftKerningGroup = B;
note = M;
rightKerningGroup = H;
unicode = 004D;
},
{
glyphname = N;
lastChange = "2019-04-11 11:13:44 +0000";
layers = (
{
layerId = "1EC54930-9952-4E85-BD3B-546E0FD37DE9";
paths = (
{
closed = 1;
nodes = (
"503 0 LINE",
"663 0 LINE",
"663 700 LINE",
"543 700 LINE",
"543 158 LINE",
"246 700 LINE",
"86 700 LINE",
"86 0 LINE",
"206 0 LINE",
"206 544 LINE"
);
}
);
width = 749;
}
);
leftKerningGroup = B;
note = N;
rightKerningGroup = H;
unicode = 004E;
},
{
glyphname = O;
lastChange = "2019-04-11 11:13:44 +0000";
layers = (
{
layerId = "1EC54930-9952-4E85-BD3B-546E0FD37DE9";
paths = (
{
closed = 1;
nodes = (
"577 -10 OFFCURVE",
"717 125 OFFCURVE",
"717 350 CURVE SMOOTH",
"717 575 OFFCURVE",
"577 710 OFFCURVE",
"381 710 CURVE SMOOTH",
"186 710 OFFCURVE",
"46 575 OFFCURVE",
"46 350 CURVE SMOOTH",
"46 125 OFFCURVE",
"186 -10 OFFCURVE",
"381 -10 CURVE SMOOTH"
);
},
{
closed = 1;
nodes = (
"376 97 LINE SMOOTH",
"249 97 OFFCURVE",
"166 191 OFFCURVE",
"166 350 CURVE SMOOTH",
"166 509 OFFCURVE",
"249 603 OFFCURVE",
"376 603 CURVE SMOOTH",
"386 603 LINE SMOOTH",
"513 603 OFFCURVE",
"597 509 OFFCURVE",
"597 350 CURVE SMOOTH",
"597 191 OFFCURVE",
"513 97 OFFCURVE",
"386 97 CURVE SMOOTH"
);
}
);
width = 763;
}
);
leftKerningGroup = C;
note = O;
rightKerningGroup = O;
unicode = 004F;
},
{
glyphname = P;
lastChange = "2019-04-11 11:13:44 +0000";
layers = (
{
layerId = "1EC54930-9952-4E85-BD3B-546E0FD37DE9";
paths = (
{
closed = 1;
nodes = (
"86 0 LINE",
"206 0 LINE",
"206 266 LINE",
"393 266 LINE SMOOTH",
"526 266 OFFCURVE",
"618 346 OFFCURVE",
"618 483 CURVE SMOOTH",
"618 621 OFFCURVE",
"526 700 OFFCURVE",
"393 700 CURVE SMOOTH",
"86 700 LINE"
);
},
{
closed = 1;
nodes = (
"206 373 LINE",
"206 593 LINE",
"378 593 LINE SMOOTH",
"456 593 OFFCURVE",
"498 552 OFFCURVE",
"498 483 CURVE SMOOTH",
"498 415 OFFCURVE",
"456 373 OFFCURVE",
"378 373 CURVE SMOOTH"
);
}
);
width = 649;
}
);
leftKerningGroup = B;
note = P;
rightKerningGroup = P;
unicode = 0050;
},
{
glyphname = Q;
lastChange = "2019-04-11 11:13:44 +0000";
layers = (
{
layerId = "1EC54930-9952-4E85-BD3B-546E0FD37DE9";
paths = (
{
closed = 1;
nodes = (
"631 -196 LINE",
"631 -94 LINE",
"489 -94 LINE SMOOTH",
"450 -94 OFFCURVE",
"440 -84 OFFCURVE",
"440 -46 CURVE SMOOTH",
"440 -6 LINE",
"604 19 OFFCURVE",
"717 148 OFFCURVE",
"717 350 CURVE SMOOTH",
"717 575 OFFCURVE",
"577 710 OFFCURVE",
"381 710 CURVE SMOOTH",
"186 710 OFFCURVE",
"46 575 OFFCURVE",
"46 350 CURVE SMOOTH",
"46 147 OFFCURVE",
"160 17 OFFCURVE",
"326 -6 CURVE",
"326 -85 LINE SMOOTH",
"326 -157 OFFCURVE",
"366 -196 OFFCURVE",
"438 -196 CURVE SMOOTH"
);
},
{
closed = 1;
nodes = (
"376 97 LINE SMOOTH",
"249 97 OFFCURVE",
"166 191 OFFCURVE",
"166 350 CURVE SMOOTH",
"166 509 OFFCURVE",
"249 603 OFFCURVE",
"376 603 CURVE SMOOTH",
"386 603 LINE SMOOTH",
"513 603 OFFCURVE",
"597 509 OFFCURVE",
"597 350 CURVE SMOOTH",
"597 191 OFFCURVE",
"513 97 OFFCURVE",
"386 97 CURVE SMOOTH"
);
}
);
width = 763;
}
);
leftKerningGroup = C;
note = Q;
rightKerningGroup = O;
unicode = 0051;
},
{
glyphname = R;
lastChange = "2019-04-11 11:13:44 +0000";
layers = (
{
layerId = "1EC54930-9952-4E85-BD3B-546E0FD37DE9";
paths = (
{
closed = 1;
nodes = (
"206 377 LINE",
"206 593 LINE",
"371 593 LINE SMOOTH",
"454 593 OFFCURVE",
"498 558 OFFCURVE",
"498 489 CURVE SMOOTH",
"498 422 OFFCURVE",
"454 377 OFFCURVE",
"371 377 CURVE SMOOTH"
);
},
{
closed = 1;
nodes = (
"86 0 LINE",
"206 0 LINE",
"206 271 LINE",
"421 271 LINE SMOOTH",
"473 271 OFFCURVE",
"488 256 OFFCURVE",
"488 204 CURVE SMOOTH",
"488 0 LINE",
"608 0 LINE",
"608 234 LINE SMOOTH",
"608 300 OFFCURVE",
"578 333 OFFCURVE",
"502 333 CURVE",
"578 358 OFFCURVE",
"618 421 OFFCURVE",
"618 510 CURVE SMOOTH",
"618 620 OFFCURVE",
"525 700 OFFCURVE",
"401 700 CURVE SMOOTH",
"86 700 LINE"
);
}
);
width = 683;
}
);
leftKerningGroup = B;
note = R;
rightKerningGroup = R;
unicode = 0052;
},
{
glyphname = S;
lastChange = "2019-04-11 11:13:44 +0000";
layers = (
{
layerId = "1EC54930-9952-4E85-BD3B-546E0FD37DE9";
paths = (
{
closed = 1;
nodes = (
"588 484 LINE",
"586 618 OFFCURVE",
"489 710 OFFCURVE",
"326 710 CURVE SMOOTH",
"163 710 OFFCURVE",
"67 611 OFFCURVE",
"67 504 CURVE SMOOTH",
"67 397 OFFCURVE",
"126 329 OFFCURVE",
"246 304 CURVE SMOOTH",
"365 280 LINE SMOOTH",
"432 266 OFFCURVE",
"457 238 OFFCURVE",
"457 191 CURVE SMOOTH",
"457 140 OFFCURVE",
"413 97 OFFCURVE",
"330 97 CURVE SMOOTH",
"320 97 LINE SMOOTH",
"215 97 OFFCURVE",
"155 150 OFFCURVE",
"152 231 CURVE",
"32 231 LINE",
"37 81 OFFCURVE",
"132 -10 OFFCURVE",
"313 -10 CURVE SMOOTH",
"478 -10 OFFCURVE",
"577 77 OFFCURVE",
"577 198 CURVE SMOOTH",
"577 312 OFFCURVE",
"505 375 OFFCURVE",
"385 399 CURVE SMOOTH",
"277 420 LINE SMOOTH",
"217 432 OFFCURVE",
"187 458 OFFCURVE",
"187 508 CURVE SMOOTH",
"187 560 OFFCURVE",
"238 603 OFFCURVE",
"318 603 CURVE SMOOTH",
"328 603 LINE SMOOTH",
"405 603 OFFCURVE",
"463 560 OFFCURVE",
"468 484 CURVE"
);
}
);
width = 631;
}
);
leftKerningGroup = S;
note = S;
rightKerningGroup = S;
unicode = 0053;
},
{
glyphname = T;
lastChange = "2019-04-11 11:13:44 +0000";
layers = (
{
layerId = "1EC54930-9952-4E85-BD3B-546E0FD37DE9";
paths = (
{
closed = 1;
nodes = (
"262 0 LINE",
"382 0 LINE",
"382 593 LINE",
"628 593 LINE",
"628 700 LINE",
"17 700 LINE",
"17 593 LINE",
"262 593 LINE"
);
}
);
width = 645;
}
);
leftKerningGroup = T;
note = T;
rightKerningGroup = T;
unicode = 0054;
},
{
glyphname = U;
lastChange = "2019-04-11 11:13:44 +0000";
layers = (
{
layerId = "1EC54930-9952-4E85-BD3B-546E0FD37DE9";
paths = (
{
closed = 1;
nodes = (
"534 -10 OFFCURVE",
"621 89 OFFCURVE",
"621 247 CURVE SMOOTH",
"621 700 LINE",
"501 700 LINE",
"501 263 LINE SMOOTH",
"501 151 OFFCURVE",
"452 97 OFFCURVE",
"355 97 CURVE SMOOTH",
"345 97 LINE SMOOTH",
"249 97 OFFCURVE",
"199 151 OFFCURVE",
"199 263 CURVE SMOOTH",
"199 700 LINE",
"79 700 LINE",
"79 247 LINE SMOOTH",
"79 89 OFFCURVE",
"164 -10 OFFCURVE",
"350 -10 CURVE SMOOTH"
);
}
);
width = 700;
}
);
leftKerningGroup = U;
note = U;
rightKerningGroup = U;
unicode = 0055;
},
{
glyphname = V;
lastChange = "2019-04-11 11:13:44 +0000";
layers = (
{
layerId = "1EC54930-9952-4E85-BD3B-546E0FD37DE9";
paths = (
{
closed = 1;
nodes = (
"434 0 LINE",
"701 700 LINE",
"572 700 LINE",
"358 121 LINE",
"137 700 LINE",
"5 700 LINE",
"278 0 LINE"
);
}
);
width = 709;
}
);
leftKerningGroup = V;
note = V;
rightKerningGroup = V;
unicode = 0056;
},
{
glyphname = W;
lastChange = "2019-04-11 11:13:44 +0000";
layers = (
{
layerId = "1EC54930-9952-4E85-BD3B-546E0FD37DE9";
paths = (
{
closed = 1;
nodes = (
"594 0 LINE",
"752 0 LINE",
"924 700 LINE",
"799 700 LINE",
"674 128 LINE",
"551 700 LINE",
"401 700 LINE",
"276 130 LINE",
"146 700 LINE",
"22 700 LINE",
"193 0 LINE",
"351 0 LINE",
"473 544 LINE"
);
}
);
width = 945;
}
);
leftKerningGroup = W;
note = W;
rightKerningGroup = W;
unicode = 0057;
},
{
glyphname = X;
lastChange = "2019-04-11 11:13:44 +0000";
layers = (
{
layerId = "1EC54930-9952-4E85-BD3B-546E0FD37DE9";
paths = (
{
closed = 1;
nodes = (
"494 0 LINE",
"635 0 LINE",
"389 362 LINE",
"622 700 LINE",
"486 700 LINE",
"321 461 LINE",
"159 700 LINE",
"18 700 LINE",
"250 358 LINE",
"3 0 LINE",
"139 0 LINE",
"318 259 LINE"
);
}
);
width = 639;
}
);
leftKerningGroup = X;
note = X;
rightKerningGroup = X;
unicode = 0058;
},
{
glyphname = Y;
lastChange = "2019-04-11 11:13:44 +0000";
layers = (
{
layerId = "1EC54930-9952-4E85-BD3B-546E0FD37DE9";
paths = (
{
closed = 1;
nodes = (
"381 0 LINE",
"381 284 LINE",
"637 700 LINE",
"504 700 LINE",
"324 399 LINE",
"142 700 LINE",
"5 700 LINE",
"261 284 LINE",
"261 0 LINE"
);
}
);
width = 642;
}
);
leftKerningGroup = Y;
note = Y;
rightKerningGroup = Y;
unicode = 0059;
},
{
glyphname = Z;
lastChange = "2019-04-11 11:13:44 +0000";
layers = (
{
layerId = "1EC54930-9952-4E85-BD3B-546E0FD37DE9";
paths = (
{
closed = 1;
nodes = (
"586 0 LINE",
"586 107 LINE",
"179 107 LINE",
"576 596 LINE",
"576 700 LINE",
"50 700 LINE",
"50 593 LINE",
"437 593 LINE",
"40 104 LINE",
"40 0 LINE"
);
}
);
width = 626;
}
);
leftKerningGroup = Z;
note = Z;
rightKerningGroup = Z;
unicode = 005A;
},
{
glyphname = bracketleft;
lastChange = "2019-04-11 11:13:44 +0000";
layers = (
{
layerId = "1EC54930-9952-4E85-BD3B-546E0FD37DE9";
paths = (
{
closed = 1;
nodes = (
"82 -145 LINE",
"313 -145 LINE",
"313 -49 LINE",
"197 -49 LINE",
"197 749 LINE",
"313 749 LINE",
"313 845 LINE",
"82 845 LINE"
);
}
);
width = 344;
}
);
note = bracketleft;
rightKerningGroup = bracketleft;
unicode = 005B;
},
{
glyphname = backslash;
lastChange = "2019-04-11 11:13:44 +0000";
layers = (
{
layerId = "1EC54930-9952-4E85-BD3B-546E0FD37DE9";
paths = (
{
closed = 1;
nodes = (
"150 700 LINE",
"30 700 LINE",
"297 0 LINE",
"420 0 LINE"
);
}
);
width = 449;
}
);
leftKerningGroup = backslash;
note = backslash;
rightKerningGroup = backslash;
unicode = 005C;
},
{
glyphname = bracketright;
lastChange = "2019-04-11 11:13:44 +0000";
layers = (
{
layerId = "1EC54930-9952-4E85-BD3B-546E0FD37DE9";
paths = (
{
closed = 1;
nodes = (
"262 845 LINE",
"31 845 LINE",
"31 749 LINE",
"147 749 LINE",
"147 -49 LINE",
"31 -49 LINE",
"31 -145 LINE",
"262 -145 LINE"
);
}
);
width = 344;
}
);
leftKerningGroup = bracketright;
note = bracketright;
unicode = 005D;
},
{
glyphname = asciicircum;
lastChange = "2019-04-11 11:13:44 +0000";
layers = (
{
layerId = "1EC54930-9952-4E85-BD3B-546E0FD37DE9";
paths = (
{
closed = 1;
nodes = (
"381 285 LINE",
"501 285 LINE",
"326 700 LINE",
"210 700 LINE",
"35 285 LINE",
"152 285 LINE",
"267 570 LINE"
);
}
);
width = 536;
}
);
note = asciicircum;
unicode = 005E;
},
{
glyphname = underscore;
lastChange = "2019-04-11 11:13:44 +0000";
layers = (
{
layerId = "1EC54930-9952-4E85-BD3B-546E0FD37DE9";
paths = (
{
closed = 1;
nodes = (
"30 -96 LINE",
"491 -96 LINE",
"491 0 LINE",
"30 0 LINE"
);
}
);
width = 521;
}
);
note = underscore;
unicode = 005F;
},
{
glyphname = grave;
lastChange = "2019-04-11 11:13:44 +0000";
layers = (
{
layerId = "1EC54930-9952-4E85-BD3B-546E0FD37DE9";
paths = (
{
closed = 1;
nodes = (
"147 700 LINE",
"18 700 LINE",
"114 556 LINE",
"185 556 LINE"
);
}
);
width = 206;
}
);
note = grave;
unicode = 0060;
},
{
glyphname = a;
lastChange = "2019-04-11 11:13:44 +0000";
layers = (
{
layerId = "1EC54930-9952-4E85-BD3B-546E0FD37DE9";
paths = (
{
closed = 1;
nodes = (
"222 84 LINE SMOOTH",
"181 84 OFFCURVE",
"151 109 OFFCURVE",
"151 144 CURVE SMOOTH",
"151 187 OFFCURVE",
"192 209 OFFCURVE",
"236 213 CURVE SMOOTH",
"351 223 LINE",
"351 194 LINE SMOOTH",
"351 131 OFFCURVE",
"289 84 OFFCURVE",
"229 84 CURVE SMOOTH"
);
},
{
closed = 1;
nodes = (
"356 54 OFFCURVE",
"357 19 OFFCURVE",
"361 0 CURVE",
"469 0 LINE",
"464 35 OFFCURVE",
"464 80 OFFCURVE",
"464 110 CURVE SMOOTH",
"464 326 LINE SMOOTH",
"464 436 OFFCURVE",
"385 510 OFFCURVE",
"257 510 CURVE SMOOTH",
"137 510 OFFCURVE",
"56 442 OFFCURVE",
"48 349 CURVE",
"163 349 LINE",
"167 387 OFFCURVE",
"203 416 OFFCURVE",
"254 416 CURVE SMOOTH",
"260 416 LINE SMOOTH",
"316 416 OFFCURVE",
"351 379 OFFCURVE",
"351 323 CURVE SMOOTH",
"351 309 LINE",
"220 298 LINE SMOOTH",
"129 291 OFFCURVE",
"38 248 OFFCURVE",
"38 137 CURVE SMOOTH",
"38 50 OFFCURVE",
"110 -10 OFFCURVE",
"202 -10 CURVE SMOOTH",
"273 -10 OFFCURVE",
"329 25 OFFCURVE",
"355 69 CURVE"
);
}
);
width = 530;
}
);
leftKerningGroup = a;
note = a;
rightKerningGroup = a;
unicode = 0061;
},
{
glyphname = b;
lastChange = "2019-04-11 11:13:44 +0000";
layers = (
{
layerId = "1EC54930-9952-4E85-BD3B-546E0FD37DE9";
paths = (
{
closed = 1;
nodes = (
"557 398 OFFCURVE",
"471 510 OFFCURVE",
"334 510 CURVE SMOOTH",
"264 510 OFFCURVE",
"208 472 OFFCURVE",
"185 433 CURVE",
"185 700 LINE",
"70 700 LINE",
"70 0 LINE",
"185 0 LINE",
"185 67 LINE",
"208 28 OFFCURVE",
"268 -10 OFFCURVE",
"338 -10 CURVE SMOOTH",
"475 -10 OFFCURVE",
"557 102 OFFCURVE",
"557 250 CURVE SMOOTH"
);
},
{
closed = 1;
nodes = (
"185 356 OFFCURVE",
"246 416 OFFCURVE",
"311 416 CURVE SMOOTH",
"319 416 LINE SMOOTH",
"389 416 OFFCURVE",
"442 356 OFFCURVE",
"442 251 CURVE SMOOTH",
"442 145 OFFCURVE",
"389 84 OFFCURVE",
"319 84 CURVE SMOOTH",
"311 84 LINE SMOOTH",
"246 84 OFFCURVE",
"185 144 OFFCURVE",
"185 250 CURVE SMOOTH"
);
}
);
width = 598;
}
);
leftKerningGroup = b;
note = b;
rightKerningGroup = b;
unicode = 0062;
},
{
glyphname = c;
lastChange = "2019-04-11 11:13:44 +0000";
layers = (
{
layerId = "1EC54930-9952-4E85-BD3B-546E0FD37DE9";
paths = (
{
closed = 1;
nodes = (
"382 171 LINE",
"374 119 OFFCURVE",
"340 84 OFFCURVE",
"284 84 CURVE SMOOTH",
"277 84 LINE SMOOTH",
"193 84 OFFCURVE",
"156 161 OFFCURVE",
"156 250 CURVE SMOOTH",
"156 339 OFFCURVE",
"193 416 OFFCURVE",
"277 416 CURVE SMOOTH",
"284 416 LINE SMOOTH",
"340 416 OFFCURVE",
"374 381 OFFCURVE",
"382 329 CURVE",
"497 329 LINE",
"487 447 OFFCURVE",
"404 510 OFFCURVE",
"281 510 CURVE SMOOTH",
"137 510 OFFCURVE",
"41 404 OFFCURVE",
"41 250 CURVE SMOOTH",
"41 96 OFFCURVE",
"137 -10 OFFCURVE",
"281 -10 CURVE SMOOTH",
"404 -10 OFFCURVE",
"487 53 OFFCURVE",
"497 171 CURVE"
);
}
);
width = 534;
}
);
leftKerningGroup = c;
note = c;
rightKerningGroup = c;
unicode = 0063;
},
{
glyphname = d;
lastChange = "2019-04-11 11:13:44 +0000";
layers = (
{
layerId = "1EC54930-9952-4E85-BD3B-546E0FD37DE9";
paths = (
{
closed = 1;
nodes = (
"279 84 LINE SMOOTH",
"209 84 OFFCURVE",
"156 145 OFFCURVE",
"156 251 CURVE SMOOTH",
"156 356 OFFCURVE",
"209 416 OFFCURVE",
"279 416 CURVE SMOOTH",
"287 416 LINE SMOOTH",
"352 416 OFFCURVE",
"413 356 OFFCURVE",
"413 250 CURVE SMOOTH",
"413 144 OFFCURVE",
"352 84 OFFCURVE",
"287 84 CURVE SMOOTH"
);
},
{
closed = 1;
nodes = (
"330 -10 OFFCURVE",
"390 28 OFFCURVE",
"413 67 CURVE",
"413 0 LINE",
"528 0 LINE",
"528 700 LINE",
"413 700 LINE",
"413 433 LINE",
"390 472 OFFCURVE",
"334 510 OFFCURVE",
"264 510 CURVE SMOOTH",
"127 510 OFFCURVE",
"41 398 OFFCURVE",
"41 250 CURVE SMOOTH",
"41 102 OFFCURVE",
"123 -10 OFFCURVE",
"260 -10 CURVE SMOOTH"
);
}
);
width = 598;
}
);
leftKerningGroup = d;
note = d;
unicode = 0064;
},
{
glyphname = e;
lastChange = "2019-04-11 11:13:44 +0000";
layers = (
{
layerId = "1EC54930-9952-4E85-BD3B-546E0FD37DE9";
paths = (
{
closed = 1;
nodes = (
"382 154 LINE",
"372 112 OFFCURVE",
"335 84 OFFCURVE",
"285 84 CURVE SMOOTH",
"279 84 LINE SMOOTH",
"221 84 OFFCURVE",
"159 132 OFFCURVE",
"153 220 CURVE",
"496 220 LINE",
"497 229 OFFCURVE",
"498 262 OFFCURVE",
"498 271 CURVE SMOOTH",
"498 409 OFFCURVE",
"418 510 OFFCURVE",
"276 510 CURVE SMOOTH",
"140 510 OFFCURVE",
"41 410 OFFCURVE",
"41 250 CURVE SMOOTH",
"41 81 OFFCURVE",
"153 -10 OFFCURVE",
"278 -10 CURVE SMOOTH",
"394 -10 OFFCURVE",
"475 54 OFFCURVE",
"496 154 CURVE"
);
},
{
closed = 1;
nodes = (
"156 309 LINE",
"165 382 OFFCURVE",
"216 416 OFFCURVE",
"270 416 CURVE SMOOTH",
"277 416 LINE SMOOTH",
"333 416 OFFCURVE",
"381 381 OFFCURVE",
"385 309 CURVE"
);
}
);
width = 537;
}
);
leftKerningGroup = c;
note = e;
rightKerningGroup = e;
unicode = 0065;
},
{
glyphname = f;
lastChange = "2019-04-11 11:13:44 +0000";
layers = (
{
layerId = "1EC54930-9952-4E85-BD3B-546E0FD37DE9";
paths = (
{
closed = 1;
nodes = (
"126 0 LINE",
"241 0 LINE",
"241 405 LINE",
"362 405 LINE",
"362 500 LINE",
"241 500 LINE",
"241 554 LINE SMOOTH",
"241 593 OFFCURVE",
"251 603 OFFCURVE",
"290 603 CURVE SMOOTH",
"387 603 LINE",
"387 700 LINE",
"246 700 LINE SMOOTH",
"167 700 OFFCURVE",
"126 659 OFFCURVE",
"126 581 CURVE SMOOTH",
"126 500 LINE",
"21 500 LINE",
"21 405 LINE",
"126 405 LINE"
);
}
);
width = 386;
}
);
leftKerningGroup = f;
note = f;
rightKerningGroup = f;
unicode = 0066;
},
{
glyphname = g;
lastChange = "2019-04-11 11:13:44 +0000";
layers = (
{
layerId = "1EC54930-9952-4E85-BD3B-546E0FD37DE9";
paths = (
{
closed = 1;
nodes = (
"277 94 LINE SMOOTH",
"211 94 OFFCURVE",
"157 147 OFFCURVE",
"157 255 CURVE SMOOTH",
"157 363 OFFCURVE",
"213 416 OFFCURVE",
"279 416 CURVE SMOOTH",
"288 416 LINE SMOOTH",
"351 416 OFFCURVE",
"405 356 OFFCURVE",
"405 255 CURVE SMOOTH",
"405 154 OFFCURVE",
"349 94 OFFCURVE",
"286 94 CURVE SMOOTH"
);
},
{
closed = 1;
nodes = (
"433 -219 OFFCURVE",
"520 -120 OFFCURVE",
"520 -6 CURVE SMOOTH",
"520 500 LINE",
"405 500 LINE",
"405 436 LINE",
"380 481 OFFCURVE",
"324 510 OFFCURVE",
"261 510 CURVE SMOOTH",
"144 510 OFFCURVE",
"42 424 OFFCURVE",
"42 255 CURVE SMOOTH",
"42 86 OFFCURVE",
"146 0 OFFCURVE",
"261 0 CURVE SMOOTH",
"324 0 OFFCURVE",
"378 29 OFFCURVE",
"405 74 CURVE",
"405 7 LINE SMOOTH",
"405 -84 OFFCURVE",
"350 -125 OFFCURVE",
"276 -125 CURVE SMOOTH",
"269 -125 LINE SMOOTH",
"201 -125 OFFCURVE",
"156 -100 OFFCURVE",
"148 -59 CURVE",
"33 -59 LINE",
"40 -153 OFFCURVE",
"131 -219 OFFCURVE",
"267 -219 CURVE SMOOTH"
);
}
);
width = 590;
}
);
leftKerningGroup = d;
note = g;
rightKerningGroup = g;
unicode = 0067;
},
{
glyphname = h;
lastChange = "2019-04-11 11:13:44 +0000";
layers = (
{
layerId = "1EC54930-9952-4E85-BD3B-546E0FD37DE9";
paths = (
{
closed = 1;
nodes = (
"185 279 LINE SMOOTH",
"185 360 OFFCURVE",
"241 416 OFFCURVE",
"305 416 CURVE SMOOTH",
"314 416 LINE SMOOTH",
"372 416 OFFCURVE",
"402 376 OFFCURVE",
"402 309 CURVE SMOOTH",
"402 0 LINE",
"517 0 LINE",
"517 326 LINE SMOOTH",
"517 434 OFFCURVE",
"458 510 OFFCURVE",
"340 510 CURVE SMOOTH",
"269 510 OFFCURVE",
"215 476 OFFCURVE",
"185 428 CURVE",
"185 700 LINE",
"70 700 LINE",
"70 0 LINE",
"185 0 LINE"
);
}
);
width = 582;
}
);
leftKerningGroup = b;
note = h;
rightKerningGroup = h;
unicode = 0068;
},
{
glyphname = i;
lastChange = "2019-04-11 11:13:44 +0000";
layers = (
{
layerId = "1EC54930-9952-4E85-BD3B-546E0FD37DE9";
paths = (
{
closed = 1;
nodes = (
"66 576 LINE",
"191 576 LINE",
"191 700 LINE",
"66 700 LINE"
);
},
{
closed = 1;
nodes = (
"70 0 LINE",
"185 0 LINE",
"185 500 LINE",
"70 500 LINE"
);
}
);
width = 255;
}
);
leftKerningGroup = i;
note = i;
unicode = 0069;
},
{
glyphname = j;
lastChange = "2019-04-11 11:13:44 +0000";
layers = (
{
layerId = "1EC54930-9952-4E85-BD3B-546E0FD37DE9";
paths = (
{
closed = 1;
nodes = (
"73 576 LINE",
"198 576 LINE",
"198 700 LINE",
"73 700 LINE"
);
},
{
closed = 1;
nodes = (
"193 500 LINE",
"78 500 LINE",
"78 -46 LINE SMOOTH",
"78 -81 OFFCURVE",
"66 -94 OFFCURVE",
"30 -94 CURVE SMOOTH",
"-82 -94 LINE",
"-82 -194 LINE",
"77 -194 LINE SMOOTH",
"153 -194 OFFCURVE",
"193 -153 OFFCURVE",
"193 -77 CURVE SMOOTH"
);
}
);
width = 263;
}
);
leftKerningGroup = i;
note = j;
unicode = 006A;
},
{
glyphname = k;
lastChange = "2019-04-11 11:13:44 +0000";
layers = (
{
layerId = "1EC54930-9952-4E85-BD3B-546E0FD37DE9";
paths = (
{
closed = 1;
nodes = (
"400 0 LINE",
"538 0 LINE",
"329 301 LINE",
"528 500 LINE",
"383 500 LINE",
"185 300 LINE",
"185 700 LINE",
"70 700 LINE",
"70 0 LINE",
"185 0 LINE",
"185 157 LINE",
"248 220 LINE"
);
}
);
width = 543;
}
);
leftKerningGroup = b;
note = k;
rightKerningGroup = k;
unicode = 006B;
},
{
glyphname = l;
lastChange = "2019-04-11 11:13:44 +0000";
layers = (
{
layerId = "1EC54930-9952-4E85-BD3B-546E0FD37DE9";
paths = (
{
closed = 1;
nodes = (
"70 0 LINE",
"185 0 LINE",
"185 700 LINE",
"70 700 LINE"
);
}
);
width = 255;
}
);
leftKerningGroup = l;
note = l;
rightKerningGroup = l;
unicode = 006C;
},
{
glyphname = m;
lastChange = "2019-04-11 11:13:44 +0000";
layers = (
{
layerId = "1EC54930-9952-4E85-BD3B-546E0FD37DE9";
paths = (
{
closed = 1;
nodes = (
"185 279 LINE SMOOTH",
"185 360 OFFCURVE",
"240 413 OFFCURVE",
"301 413 CURVE SMOOTH",
"308 413 LINE SMOOTH",
"370 413 OFFCURVE",
"396 374 OFFCURVE",
"396 306 CURVE SMOOTH",
"396 0 LINE",
"511 0 LINE",
"511 279 LINE SMOOTH",
"511 360 OFFCURVE",
"566 413 OFFCURVE",
"627 413 CURVE SMOOTH",
"634 413 LINE SMOOTH",
"696 413 OFFCURVE",
"722 374 OFFCURVE",
"722 306 CURVE SMOOTH",
"722 0 LINE",
"837 0 LINE",
"837 324 LINE SMOOTH",
"837 431 OFFCURVE",
"782 510 OFFCURVE",
"658 510 CURVE SMOOTH",
"596 510 OFFCURVE",
"531 485 OFFCURVE",
"493 421 CURVE",
"463 481 OFFCURVE",
"406 510 OFFCURVE",
"335 510 CURVE SMOOTH",
"273 510 OFFCURVE",
"218 481 OFFCURVE",
"185 429 CURVE",
"185 500 LINE",
"70 500 LINE",
"70 0 LINE",
"185 0 LINE"
);
}
);
width = 902;
}
);
leftKerningGroup = m;
note = m;
rightKerningGroup = h;
unicode = 006D;
},
{
glyphname = n;
lastChange = "2019-04-11 11:13:44 +0000";
layers = (
{
layerId = "1EC54930-9952-4E85-BD3B-546E0FD37DE9";
paths = (
{
closed = 1;
nodes = (
"185 279 LINE SMOOTH",
"185 360 OFFCURVE",
"241 416 OFFCURVE",
"305 416 CURVE SMOOTH",
"314 416 LINE SMOOTH",
"372 416 OFFCURVE",
"402 376 OFFCURVE",
"402 309 CURVE SMOOTH",
"402 0 LINE",
"517 0 LINE",
"517 326 LINE SMOOTH",
"517 434 OFFCURVE",
"458 510 OFFCURVE",
"340 510 CURVE SMOOTH",
"269 510 OFFCURVE",
"215 476 OFFCURVE",
"185 428 CURVE",
"185 500 LINE",
"70 500 LINE",
"70 0 LINE",
"185 0 LINE"
);
}
);
width = 582;
}
);
leftKerningGroup = m;
note = n;
rightKerningGroup = h;
unicode = 006E;
},
{
glyphname = o;
lastChange = "2019-04-11 11:13:44 +0000";
layers = (
{
layerId = "1EC54930-9952-4E85-BD3B-546E0FD37DE9";
paths = (
{
closed = 1;
nodes = (
"429 -10 OFFCURVE",
"531 98 OFFCURVE",
"531 250 CURVE SMOOTH",
"531 402 OFFCURVE",
"429 510 OFFCURVE",
"285 510 CURVE SMOOTH",
"142 510 OFFCURVE",
"40 402 OFFCURVE",
"40 250 CURVE SMOOTH",
"40 98 OFFCURVE",
"142 -10 OFFCURVE",
"285 -10 CURVE SMOOTH"
);
},
{
closed = 1;
nodes = (
"281 84 LINE SMOOTH",
"207 84 OFFCURVE",
"155 145 OFFCURVE",
"155 250 CURVE SMOOTH",
"155 355 OFFCURVE",
"207 416 OFFCURVE",
"281 416 CURVE SMOOTH",
"290 416 LINE SMOOTH",
"364 416 OFFCURVE",
"415 355 OFFCURVE",
"415 250 CURVE SMOOTH",
"415 145 OFFCURVE",
"364 84 OFFCURVE",
"290 84 CURVE SMOOTH"
);
}
);
width = 571;
}
);
leftKerningGroup = c;
note = o;
rightKerningGroup = o;
unicode = 006F;
},
{
glyphname = p;
lastChange = "2019-04-11 11:13:44 +0000";
layers = (
{
layerId = "1EC54930-9952-4E85-BD3B-546E0FD37DE9";
paths = (
{
closed = 1;
nodes = (
"319 416 LINE SMOOTH",
"389 416 OFFCURVE",
"442 355 OFFCURVE",
"442 249 CURVE SMOOTH",
"442 144 OFFCURVE",
"389 84 OFFCURVE",
"319 84 CURVE SMOOTH",
"311 84 LINE SMOOTH",
"246 84 OFFCURVE",
"185 144 OFFCURVE",
"185 250 CURVE SMOOTH",
"185 356 OFFCURVE",
"246 416 OFFCURVE",
"311 416 CURVE SMOOTH"
);
},
{
closed = 1;
nodes = (
"268 510 OFFCURVE",
"208 472 OFFCURVE",
"185 433 CURVE",
"185 500 LINE",
"70 500 LINE",
"70 -200 LINE",
"185 -200 LINE",
"185 67 LINE",
"208 28 OFFCURVE",
"264 -10 OFFCURVE",
"334 -10 CURVE SMOOTH",
"471 -10 OFFCURVE",
"557 102 OFFCURVE",
"557 250 CURVE SMOOTH",
"557 398 OFFCURVE",
"475 510 OFFCURVE",
"338 510 CURVE SMOOTH"
);
}
);
width = 598;
}
);
leftKerningGroup = m;
note = p;
rightKerningGroup = b;
unicode = 0070;
},
{
glyphname = q;
lastChange = "2019-04-11 11:13:44 +0000";
layers = (
{
layerId = "1EC54930-9952-4E85-BD3B-546E0FD37DE9";
paths = (
{
closed = 1;
nodes = (
"41 102 OFFCURVE",
"127 -10 OFFCURVE",
"264 -10 CURVE SMOOTH",
"334 -10 OFFCURVE",
"390 28 OFFCURVE",
"413 67 CURVE",
"413 -200 LINE",
"528 -200 LINE",
"528 500 LINE",
"413 500 LINE",
"413 433 LINE",
"390 472 OFFCURVE",
"330 510 OFFCURVE",
"260 510 CURVE SMOOTH",
"123 510 OFFCURVE",
"41 398 OFFCURVE",
"41 250 CURVE SMOOTH"
);
},
{
closed = 1;
nodes = (
"413 144 OFFCURVE",
"352 84 OFFCURVE",
"287 84 CURVE SMOOTH",
"279 84 LINE SMOOTH",
"209 84 OFFCURVE",
"156 144 OFFCURVE",
"156 249 CURVE SMOOTH",
"156 355 OFFCURVE",
"209 416 OFFCURVE",
"279 416 CURVE SMOOTH",
"287 416 LINE SMOOTH",
"352 416 OFFCURVE",
"413 356 OFFCURVE",
"413 250 CURVE SMOOTH"
);
}
);
width = 598;
}
);
leftKerningGroup = d;
note = q;
rightKerningGroup = g;
unicode = 0071;
},
{
glyphname = r;
lastChange = "2019-04-11 11:13:44 +0000";
layers = (
{
layerId = "1EC54930-9952-4E85-BD3B-546E0FD37DE9";
paths = (
{
closed = 1;
nodes = (
"70 0 LINE",
"185 0 LINE",
"185 257 LINE SMOOTH",
"185 348 OFFCURVE",
"232 397 OFFCURVE",
"319 397 CURVE SMOOTH",
"362 397 LINE",
"362 505 LINE",
"328 505 LINE SMOOTH",
"258 505 OFFCURVE",
"203 465 OFFCURVE",
"183 396 CURVE",
"183 500 LINE",
"70 500 LINE"
);
}
);
width = 382;
}
);
leftKerningGroup = m;
note = r;
rightKerningGroup = r;
unicode = 0072;
},
{
glyphname = s;
lastChange = "2019-04-11 11:13:44 +0000";
layers = (
{
layerId = "1EC54930-9952-4E85-BD3B-546E0FD37DE9";
paths = (
{
closed = 1;
nodes = (
"371 -10 OFFCURVE",
"446 55 OFFCURVE",
"446 142 CURVE SMOOTH",
"446 226 OFFCURVE",
"394 270 OFFCURVE",
"306 290 CURVE SMOOTH",
"234 307 LINE SMOOTH",
"189 317 OFFCURVE",
"168 335 OFFCURVE",
"168 363 CURVE SMOOTH",
"168 395 OFFCURVE",
"199 419 OFFCURVE",
"242 419 CURVE SMOOTH",
"251 419 LINE SMOOTH",
"303 419 OFFCURVE",
"331 386 OFFCURVE",
"336 339 CURVE",
"451 339 LINE",
"451 443 OFFCURVE",
"380 510 OFFCURVE",
"249 510 CURVE SMOOTH",
"135 510 OFFCURVE",
"53 450 OFFCURVE",
"53 356 CURVE SMOOTH",
"53 273 OFFCURVE",
"109 230 OFFCURVE",
"204 208 CURVE SMOOTH",
"272 193 LINE SMOOTH",
"314 184 OFFCURVE",
"331 166 OFFCURVE",
"331 137 CURVE SMOOTH",
"331 103 OFFCURVE",
"298 81 OFFCURVE",
"253 81 CURVE SMOOTH",
"245 81 LINE SMOOTH",
"191 81 OFFCURVE",
"152 111 OFFCURVE",
"149 161 CURVE",
"33 161 LINE",
"35 57 OFFCURVE",
"110 -10 OFFCURVE",
"244 -10 CURVE SMOOTH"
);
}
);
width = 492;
}
);
leftKerningGroup = s;
note = s;
rightKerningGroup = s;
unicode = 0073;
},
{
glyphname = t;
lastChange = "2019-04-11 11:13:44 +0000";
layers = (
{
layerId = "1EC54930-9952-4E85-BD3B-546E0FD37DE9";
paths = (
{
closed = 1;
nodes = (
"368 99 LINE",
"287 99 LINE SMOOTH",
"248 99 OFFCURVE",
"238 109 OFFCURVE",
"238 148 CURVE SMOOTH",
"238 405 LINE",
"353 405 LINE",
"353 500 LINE",
"238 500 LINE",
"238 662 LINE",
"123 662 LINE",
"123 500 LINE",
"17 500 LINE",
"17 405 LINE",
"123 405 LINE",
"123 121 LINE SMOOTH",
"123 43 OFFCURVE",
"166 0 OFFCURVE",
"244 0 CURVE SMOOTH",
"368 0 LINE"
);
}
);
width = 396;
}
);
leftKerningGroup = t;
note = t;
rightKerningGroup = t;
unicode = 0074;
},
{
glyphname = u;
lastChange = "2019-04-11 11:13:44 +0000";
layers = (
{
layerId = "1EC54930-9952-4E85-BD3B-546E0FD37DE9";
paths = (
{
closed = 1;
nodes = (
"501 500 LINE",
"386 500 LINE",
"386 225 LINE SMOOTH",
"386 143 OFFCURVE",
"334 84 OFFCURVE",
"274 84 CURVE SMOOTH",
"265 84 LINE SMOOTH",
"210 84 OFFCURVE",
"180 121 OFFCURVE",
"180 193 CURVE SMOOTH",
"180 500 LINE",
"65 500 LINE",
"65 176 LINE SMOOTH",
"65 68 OFFCURVE",
"120 -10 OFFCURVE",
"234 -10 CURVE SMOOTH",
"308 -10 OFFCURVE",
"361 30 OFFCURVE",
"386 82 CURVE",
"386 0 LINE",
"501 0 LINE"
);
}
);
width = 571;
}
);
leftKerningGroup = u;
note = u;
rightKerningGroup = g;
unicode = 0075;
},
{
glyphname = v;
lastChange = "2019-04-11 11:13:44 +0000";
layers = (
{
layerId = "1EC54930-9952-4E85-BD3B-546E0FD37DE9";
paths = (
{
closed = 1;
nodes = (
"349 0 LINE",
"527 500 LINE",
"409 500 LINE",
"272 95 LINE",
"135 500 LINE",
"14 500 LINE",
"192 0 LINE"
);
}
);
width = 541;
}
);
leftKerningGroup = v;
note = v;
rightKerningGroup = v;
unicode = 0076;
},
{
glyphname = w;
lastChange = "2019-04-11 11:13:44 +0000";
layers = (
{
layerId = "1EC54930-9952-4E85-BD3B-546E0FD37DE9";
paths = (
{
closed = 1;
nodes = (
"490 0 LINE",
"618 0 LINE",
"766 500 LINE",
"652 500 LINE",
"552 119 LINE",
"453 500 LINE",
"331 500 LINE",
"237 117 LINE",
"133 500 LINE",
"16 500 LINE",
"169 0 LINE",
"298 0 LINE",
"393 367 LINE"
);
}
);
width = 784;
}
);
leftKerningGroup = w;
note = w;
rightKerningGroup = w;
unicode = 0077;
},
{
glyphname = x;
lastChange = "2019-04-11 11:13:44 +0000";
layers = (
{
layerId = "1EC54930-9952-4E85-BD3B-546E0FD37DE9";
paths = (
{
closed = 1;
nodes = (
"377 0 LINE",
"507 0 LINE",
"324 255 LINE",
"502 500 LINE",
"375 500 LINE",
"261 343 LINE",
"148 500 LINE",
"18 500 LINE",
"196 252 LINE",
"13 0 LINE",
"140 0 LINE",
"259 164 LINE"
);
}
);
width = 520;
}
);
leftKerningGroup = x;
note = x;
rightKerningGroup = x;
unicode = 0078;
},
{
glyphname = y;
lastChange = "2019-04-11 11:13:44 +0000";
layers = (
{
layerId = "1EC54930-9952-4E85-BD3B-546E0FD37DE9";
paths = (
{
closed = 1;
nodes = (
"221 -195 LINE SMOOTH",
"299 -195 OFFCURVE",
"340 -154 OFFCURVE",
"340 -75 CURVE SMOOTH",
"340 30 LINE",
"550 500 LINE",
"425 500 LINE",
"286 168 LINE",
"143 500 LINE",
"16 500 LINE",
"231 25 LINE",
"231 -46 LINE SMOOTH",
"231 -84 OFFCURVE",
"221 -94 OFFCURVE",
"182 -94 CURVE SMOOTH",
"46 -94 LINE",
"46 -195 LINE"
);
}
);
width = 557;
}
);
leftKerningGroup = y;
note = y;
rightKerningGroup = y;
unicode = 0079;
},
{
glyphname = z;
lastChange = "2019-04-11 11:13:44 +0000";
layers = (
{
layerId = "1EC54930-9952-4E85-BD3B-546E0FD37DE9";
paths = (
{
closed = 1;
nodes = (
"467 0 LINE",
"467 101 LINE",
"181 101 LINE",
"452 406 LINE",
"452 500 LINE",
"45 500 LINE",
"45 399 LINE",
"311 399 LINE",
"40 94 LINE",
"40 0 LINE"
);
}
);
width = 503;
}
);
leftKerningGroup = z;
note = z;
rightKerningGroup = z;
unicode = 007A;
},
{
glyphname = braceleft;
lastChange = "2019-04-11 11:13:44 +0000";
layers = (
{
layerId = "1EC54930-9952-4E85-BD3B-546E0FD37DE9";
paths = (
{
closed = 1;
nodes = (
"148 361 LINE",
"193 361 OFFCURVE",
"228 384 OFFCURVE",
"228 449 CURVE SMOOTH",
"228 674 LINE SMOOTH",
"228 729 OFFCURVE",
"238 749 OFFCURVE",
"288 749 CURVE SMOOTH",
"325 749 LINE",
"325 845 LINE",
"244 845 LINE SMOOTH",
"154 845 OFFCURVE",
"113 795 OFFCURVE",
"113 690 CURVE SMOOTH",
"113 485 LINE SMOOTH",
"113 435 OFFCURVE",
"103 420 OFFCURVE",
"63 420 CURVE SMOOTH",
"38 420 LINE",
"38 280 LINE",
"63 280 LINE SMOOTH",
"103 280 OFFCURVE",
"113 265 OFFCURVE",
"113 215 CURVE SMOOTH",
"113 10 LINE SMOOTH",
"113 -95 OFFCURVE",
"154 -145 OFFCURVE",
"244 -145 CURVE SMOOTH",
"325 -145 LINE",
"325 -49 LINE",
"288 -49 LINE SMOOTH",
"238 -49 OFFCURVE",
"228 -29 OFFCURVE",
"228 26 CURVE SMOOTH",
"228 251 LINE SMOOTH",
"228 316 OFFCURVE",
"193 339 OFFCURVE",
"148 339 CURVE"
);
}
);
width = 358;
}
);
note = braceleft;
rightKerningGroup = braceleft;
unicode = 007B;
},
{
glyphname = bar;
lastChange = "2019-04-11 11:13:44 +0000";
layers = (
{
layerId = "1EC54930-9952-4E85-BD3B-546E0FD37DE9";
paths = (
{
closed = 1;
nodes = (
"201 -85 LINE",
"201 785 LINE",
"82 785 LINE",
"82 -85 LINE"
);
}
);
width = 283;
}
);
leftKerningGroup = bar;
note = bar;
unicode = 007C;
},
{
glyphname = braceright;
lastChange = "2019-04-11 11:13:44 +0000";
layers = (
{
layerId = "1EC54930-9952-4E85-BD3B-546E0FD37DE9";
paths = (
{
closed = 1;
nodes = (
"210 339 LINE",
"165 339 OFFCURVE",
"130 316 OFFCURVE",
"130 251 CURVE SMOOTH",
"130 26 LINE SMOOTH",
"130 -29 OFFCURVE",
"120 -49 OFFCURVE",
"70 -49 CURVE SMOOTH",
"33 -49 LINE",
"33 -145 LINE",
"114 -145 LINE SMOOTH",
"204 -145 OFFCURVE",
"245 -95 OFFCURVE",
"245 10 CURVE SMOOTH",
"245 215 LINE SMOOTH",
"245 265 OFFCURVE",
"255 280 OFFCURVE",
"295 280 CURVE SMOOTH",
"320 280 LINE",
"320 420 LINE",
"295 420 LINE SMOOTH",
"255 420 OFFCURVE",
"245 435 OFFCURVE",
"245 485 CURVE SMOOTH",
"245 690 LINE SMOOTH",
"245 795 OFFCURVE",
"204 845 OFFCURVE",
"114 845 CURVE SMOOTH",
"33 845 LINE",
"33 749 LINE",
"70 749 LINE SMOOTH",
"120 749 OFFCURVE",
"130 729 OFFCURVE",
"130 674 CURVE SMOOTH",
"130 449 LINE SMOOTH",
"130 384 OFFCURVE",
"165 361 OFFCURVE",
"210 361 CURVE"
);
}
);
width = 358;
}
);
leftKerningGroup = braceright;
note = braceright;
unicode = 007D;
},
{
glyphname = asciitilde;
lastChange = "2019-04-11 11:13:44 +0000";
layers = (
{
layerId = "1EC54930-9952-4E85-BD3B-546E0FD37DE9";
paths = (
{
closed = 1;
nodes = (
"309 431 OFFCURVE",
"292 442 OFFCURVE",
"276 451 CURVE SMOOTH",
"256 462 LINE SMOOTH",
"234 475 OFFCURVE",
"210 488 OFFCURVE",
"176 488 CURVE SMOOTH",
"115 488 OFFCURVE",
"70 438 OFFCURVE",
"70 378 CURVE SMOOTH",
"70 352 LINE",
"154 352 LINE",
"154 382 OFFCURVE",
"166 400 OFFCURVE",
"187 399 CURVE",
"203 399 OFFCURVE",
"217 392 OFFCURVE",
"233 383 CURVE",
"254 370 LINE",
"283 354 OFFCURVE",
"309 342 OFFCURVE",
"337 342 CURVE SMOOTH",
"405 342 OFFCURVE",
"441 392 OFFCURVE",
"441 452 CURVE SMOOTH",
"441 478 LINE",
"356 478 LINE",
"356 448 OFFCURVE",
"345 431 OFFCURVE",
"325 431 CURVE SMOOTH"
);
}
);
width = 500;
}
);
note = asciitilde;
unicode = 007E;
},
{
glyphname = exclamdown;
lastChange = "2019-04-11 11:13:44 +0000";
layers = (
{
layerId = "1EC54930-9952-4E85-BD3B-546E0FD37DE9";
paths = (
{
closed = 1;
nodes = (
"72 383 LINE",
"187 383 LINE",
"187 500 LINE",
"72 500 LINE"
);
},
{
closed = 1;
nodes = (
"70 34 LINE",
"70 -200 LINE",
"189 -200 LINE",
"189 34 LINE",
"160 319 LINE",
"98 319 LINE"
);
}
);
width = 258;
}
);
note = exclamdown;
rightKerningGroup = exclamdown;
unicode = 00A1;
},
{
glyphname = cent;
lastChange = "2019-04-11 11:13:44 +0000";
layers = (
{
layerId = "1EC54930-9952-4E85-BD3B-546E0FD37DE9";
paths = (
{
closed = 1;
nodes = (
"159 325 OFFCURVE",
"192 394 OFFCURVE",
"260 407 CURVE",
"211 116 LINE",
"176 146 OFFCURVE",
"159 196 OFFCURVE",
"159 250 CURVE SMOOTH"
);
},
{
closed = 1;
nodes = (
"289 -10 LINE SMOOTH",
"406 -10 OFFCURVE",
"489 59 OFFCURVE",
"500 171 CURVE",
"384 171 LINE",
"376 128 OFFCURVE",
"346 95 OFFCURVE",
"301 91 CURVE",
"351 388 LINE",
"368 374 OFFCURVE",
"380 353 OFFCURVE",
"384 329 CURVE",
"500 329 LINE",
"492 413 OFFCURVE",
"443 473 OFFCURVE",
"369 498 CURVE",
"390 620 LINE",
"296 620 LINE",
"277 510 LINE",
"127 504 OFFCURVE",
"43 393 OFFCURVE",
"43 250 CURVE SMOOTH",
"43 136 OFFCURVE",
"96 43 OFFCURVE",
"192 7 CURVE",
"171 -120 LINE",
"265 -120 LINE",
"284 -10 LINE"
);
}
);
width = 545;
}
);
note = cent;
unicode = 00A2;
},
{
glyphname = sterling;
lastChange = "2019-04-11 11:13:44 +0000";
layers = (
{
layerId = "1EC54930-9952-4E85-BD3B-546E0FD37DE9";
paths = (
{
closed = 1;
nodes = (
"553 0 LINE",
"553 102 LINE",
"221 102 LINE",
"253 122 OFFCURVE",
"264 145 OFFCURVE",
"267 183 CURVE SMOOTH",
"276 297 LINE",
"403 327 LINE",
"403 429 LINE",
"284 401 LINE",
"290 485 LINE SMOOTH",
"296 564 OFFCURVE",
"323 598 OFFCURVE",
"389 598 CURVE SMOOTH",
"503 598 LINE",
"503 700 LINE",
"392 700 LINE SMOOTH",
"253 700 OFFCURVE",
"184 625 OFFCURVE",
"174 490 CURVE SMOOTH",
"165 372 LINE",
"46 344 LINE",
"46 243 LINE",
"158 269 LINE",
"150 168 LINE SMOOTH",
"147 124 OFFCURVE",
"128 102 OFFCURVE",
"84 102 CURVE SMOOTH",
"46 102 LINE",
"46 0 LINE"
);
}
);
width = 586;
}
);
note = sterling;
unicode = 00A3;
},
{
glyphname = currency;
lastChange = "2019-04-11 11:13:44 +0000";
layers = (
{
layerId = "1EC54930-9952-4E85-BD3B-546E0FD37DE9";
paths = (
{
closed = 1;
nodes = (
"606 1 LINE",
"683 79 LINE",
"592 166 LINE",
"616 206 OFFCURVE",
"630 253 OFFCURVE",
"630 305 CURVE SMOOTH",
"630 354 OFFCURVE",
"617 400 OFFCURVE",
"595 438 CURVE",
"683 526 LINE",
"606 604 LINE",
"518 520 LINE",
"475 549 OFFCURVE",
"422 565 OFFCURVE",
"365 565 CURVE SMOOTH",
"309 565 OFFCURVE",
"257 549 OFFCURVE",
"214 522 CURVE",
"128 604 LINE",
"51 526 LINE",
"136 441 LINE",
"112 402 OFFCURVE",
"99 356 OFFCURVE",
"99 305 CURVE SMOOTH",
"99 252 OFFCURVE",
"114 204 OFFCURVE",
"139 163 CURVE",
"51 79 LINE",
"128 1 LINE",
"215 84 LINE",
"258 56 OFFCURVE",
"309 40 OFFCURVE",
"365 40 CURVE SMOOTH",
"422 40 OFFCURVE",
"474 57 OFFCURVE",
"517 86 CURVE"
);
},
{
closed = 1;
nodes = (
"362 142 LINE SMOOTH",
"280 142 OFFCURVE",
"217 209 OFFCURVE",
"217 305 CURVE SMOOTH",
"217 399 OFFCURVE",
"277 463 OFFCURVE",
"360 463 CURVE SMOOTH",
"369 463 LINE SMOOTH",
"452 463 OFFCURVE",
"512 399 OFFCURVE",
"512 305 CURVE SMOOTH",
"512 209 OFFCURVE",
"452 142 OFFCURVE",
"369 142 CURVE SMOOTH"
);
}
);
width = 733;
}
);
note = currency;
unicode = 00A4;
},
{
glyphname = yen;
lastChange = "2019-04-11 11:13:44 +0000";
layers = (
{
layerId = "1EC54930-9952-4E85-BD3B-546E0FD37DE9";
paths = (
{
closed = 1;
nodes = (
"394 0 LINE",
"394 139 LINE",
"531 169 LINE",
"531 268 LINE",
"394 238 LINE",
"394 289 LINE",
"409 313 LINE",
"561 347 LINE",
"561 446 LINE",
"478 427 LINE",
"644 700 LINE",
"517 700 LINE",
"338 400 LINE",
"157 700 LINE",
"27 700 LINE",
"227 371 LINE",
"110 345 LINE",
"110 247 LINE",
"276 284 LINE",
"276 211 LINE",
"140 181 LINE",
"140 82 LINE",
"276 112 LINE",
"276 0 LINE"
);
}
);
width = 670;
}
);
note = yen;
unicode = 00A5;
},
{
glyphname = brokenbar;
lastChange = "2019-04-11 11:13:44 +0000";
layers = (
{
layerId = "1EC54930-9952-4E85-BD3B-546E0FD37DE9";
paths = (
{
closed = 1;
nodes = (
"81 419 LINE",
"200 419 LINE",
"200 785 LINE",
"81 785 LINE"
);
},
{
closed = 1;
nodes = (
"81 -85 LINE",
"200 -85 LINE",
"200 291 LINE",
"81 291 LINE"
);
}
);
width = 281;
}
);
note = brokenbar;
unicode = 00A6;
},
{
glyphname = section;
lastChange = "2019-04-11 11:13:44 +0000";
layers = (
{
layerId = "1EC54930-9952-4E85-BD3B-546E0FD37DE9";
paths = (
{
closed = 1;
nodes = (
"285 -60 LINE SMOOTH",
"413 -60 OFFCURVE",
"462 9 OFFCURVE",
"462 81 CURVE SMOOTH",
"462 130 OFFCURVE",
"440 161 OFFCURVE",
"404 188 CURVE",
"462 219 OFFCURVE",
"497 268 OFFCURVE",
"497 323 CURVE SMOOTH",
"497 409 OFFCURVE",
"433 444 OFFCURVE",
"338 475 CURVE SMOOTH",
"247 505 LINE SMOOTH",
"207 518 OFFCURVE",
"191 533 OFFCURVE",
"191 559 CURVE SMOOTH",
"191 589 OFFCURVE",
"217 604 OFFCURVE",
"257 604 CURVE SMOOTH",
"437 604 LINE",
"437 700 LINE",
"252 700 LINE SMOOTH",
"140 700 OFFCURVE",
"77 652 OFFCURVE",
"77 560 CURVE SMOOTH",
"77 515 OFFCURVE",
"95 477 OFFCURVE",
"132 451 CURVE",
"74 419 OFFCURVE",
"41 372 OFFCURVE",
"40 322 CURVE SMOOTH",
"40 262 OFFCURVE",
"74 217 OFFCURVE",
"149 189 CURVE SMOOTH",
"288 137 LINE SMOOTH",
"329 122 OFFCURVE",
"346 107 OFFCURVE",
"346 82 CURVE SMOOTH",
"346 54 OFFCURVE",
"328 36 OFFCURVE",
"287 36 CURVE SMOOTH",
"80 36 LINE",
"80 -60 LINE"
);
},
{
closed = 1;
nodes = (
"232 267 LINE SMOOTH",
"192 283 OFFCURVE",
"156 294 OFFCURVE",
"156 330 CURVE SMOOTH",
"156 356 OFFCURVE",
"172 388 OFFCURVE",
"215 406 CURVE",
"302 378 LINE SMOOTH",
"342 365 OFFCURVE",
"381 347 OFFCURVE",
"381 308 CURVE SMOOTH",
"381 285 OFFCURVE",
"368 253 OFFCURVE",
"320 234 CURVE"
);
}
);
width = 534;
}
);
note = section;
unicode = 00A7;
},
{
glyphname = dieresis;
lastChange = "2019-04-11 11:13:44 +0000";
layers = (
{
layerId = "1EC54930-9952-4E85-BD3B-546E0FD37DE9";
paths = (
{
closed = 1;
nodes = (
"219 576 LINE",
"330 576 LINE",
"330 695 LINE",
"219 695 LINE"
);
},
{
closed = 1;
nodes = (
"23 576 LINE",
"134 576 LINE",
"134 695 LINE",
"23 695 LINE"
);
}
);
width = 353;
}
);
note = dieresis;
unicode = 00A8;
},
{
glyphname = copyright;
lastChange = "2019-04-11 11:13:44 +0000";
layers = (
{
layerId = "1EC54930-9952-4E85-BD3B-546E0FD37DE9";
paths = (
{
closed = 1;
nodes = (
"652 -39 OFFCURVE",
"827 137 OFFCURVE",
"827 351 CURVE SMOOTH",
"827 566 OFFCURVE",
"652 741 OFFCURVE",
"437 741 CURVE SMOOTH",
"223 741 OFFCURVE",
"47 566 OFFCURVE",
"47 351 CURVE SMOOTH",
"47 137 OFFCURVE",
"223 -39 OFFCURVE",
"437 -39 CURVE SMOOTH"
);
},
{
closed = 1;
nodes = (
"269 41 OFFCURVE",
"131 181 OFFCURVE",
"131 351 CURVE SMOOTH",
"131 520 OFFCURVE",
"269 660 OFFCURVE",
"437 660 CURVE SMOOTH",
"605 660 OFFCURVE",
"742 520 OFFCURVE",
"742 351 CURVE SMOOTH",
"742 181 OFFCURVE",
"605 41 OFFCURVE",
"437 41 CURVE SMOOTH"
);
},
{
closed = 1;
nodes = (
"548 152 OFFCURVE",
"600 213 OFFCURVE",
"602 297 CURVE",
"508 297 LINE",
"503 256 OFFCURVE",
"479 235 OFFCURVE",
"441 235 CURVE SMOOTH",
"436 235 LINE SMOOTH",
"384 235 OFFCURVE",
"358 277 OFFCURVE",
"358 353 CURVE SMOOTH",
"358 429 OFFCURVE",
"384 471 OFFCURVE",
"436 471 CURVE SMOOTH",
"441 471 LINE SMOOTH",
"479 471 OFFCURVE",
"503 450 OFFCURVE",
"508 411 CURVE",
"602 411 LINE",
"600 494 OFFCURVE",
"548 554 OFFCURVE",
"438 554 CURVE SMOOTH",
"323 554 OFFCURVE",
"263 467 OFFCURVE",
"263 353 CURVE SMOOTH",
"263 239 OFFCURVE",
"323 152 OFFCURVE",
"438 152 CURVE SMOOTH"
);
}
);
width = 874;
}
);
leftKerningGroup = copyright;
note = copyright;
rightKerningGroup = copyright;
unicode = 00A9;
},
{
glyphname = ordfeminine;
lastChange = "2019-04-11 11:13:44 +0000";
layers = (
{
layerId = "1EC54930-9952-4E85-BD3B-546E0FD37DE9";
paths = (
{
closed = 1;
nodes = (
"135 519 OFFCURVE",
"148 531 OFFCURVE",
"165 534 CURVE SMOOTH",
"226 543 LINE",
"226 529 LINE SMOOTH",
"226 494 OFFCURVE",
"198 476 OFFCURVE",
"170 476 CURVE SMOOTH",
"166 476 LINE SMOOTH",
"148 476 OFFCURVE",
"135 486 OFFCURVE",
"135 503 CURVE SMOOTH"
);
},
{
closed = 1;
nodes = (
"313 415 LINE",
"310 435 OFFCURVE",
"310 459 OFFCURVE",
"310 478 CURVE SMOOTH",
"310 605 LINE SMOOTH",
"310 666 OFFCURVE",
"256 705 OFFCURVE",
"184 705 CURVE SMOOTH",
"109 705 OFFCURVE",
"60 670 OFFCURVE",
"57 611 CURVE",
"140 611 LINE",
"144 632 OFFCURVE",
"161 639 OFFCURVE",
"180 639 CURVE SMOOTH",
"184 639 LINE SMOOTH",
"208 639 OFFCURVE",
"225 627 OFFCURVE",
"225 600 CURVE SMOOTH",
"225 591 LINE",
"152 583 LINE SMOOTH",
"95 576 OFFCURVE",
"49 552 OFFCURVE",
"49 496 CURVE SMOOTH",
"49 443 OFFCURVE",
"89 410 OFFCURVE",
"142 410 CURVE SMOOTH",
"181 410 OFFCURVE",
"214 425 OFFCURVE",
"231 457 CURVE",
"231 441 OFFCURVE",
"233 426 OFFCURVE",
"235 415 CURVE"
);
}
);
width = 374;
}
);
leftKerningGroup = ordfeminine;
note = ordfeminine;
unicode = 00AA;
},
{
glyphname = guillemotleft;
lastChange = "2019-04-11 11:13:44 +0000";
layers = (
{
layerId = "1EC54930-9952-4E85-BD3B-546E0FD37DE9";
paths = (
{
closed = 1;
nodes = (
"312 70 LINE",
"167 285 LINE",
"312 500 LINE",
"179 500 LINE",
"34 285 LINE",
"179 70 LINE"
);
},
{
closed = 1;
nodes = (
"539 70 LINE",
"394 285 LINE",
"539 500 LINE",
"406 500 LINE",
"261 285 LINE",
"406 70 LINE"
);
}
);
width = 576;
}
);
leftKerningGroup = guillemotleft;
note = guillemotleft;
rightKerningGroup = guillemotleft;
unicode = 00AB;
},
{
glyphname = logicalnot;
lastChange = "2019-04-11 11:13:44 +0000";
layers = (
{
layerId = "1EC54930-9952-4E85-BD3B-546E0FD37DE9";
paths = (
{
closed = 1;
nodes = (
"542 119 LINE",
"542 359 LINE",
"68 359 LINE",
"68 256 LINE",
"424 256 LINE",
"424 119 LINE"
);
}
);
width = 615;
}
);
note = logicalnot;
unicode = 00AC;
},
{
glyphname = registered;
lastChange = "2019-04-11 11:13:44 +0000";
layers = (
{
layerId = "1EC54930-9952-4E85-BD3B-546E0FD37DE9";
paths = (
{
closed = 1;
nodes = (
"652 -39 OFFCURVE",
"827 137 OFFCURVE",
"827 351 CURVE SMOOTH",
"827 566 OFFCURVE",
"652 741 OFFCURVE",
"437 741 CURVE SMOOTH",
"223 741 OFFCURVE",
"47 566 OFFCURVE",
"47 351 CURVE SMOOTH",
"47 137 OFFCURVE",
"223 -39 OFFCURVE",
"437 -39 CURVE SMOOTH"
);
},
{
closed = 1;
nodes = (
"269 41 OFFCURVE",
"131 181 OFFCURVE",
"131 351 CURVE SMOOTH",
"131 520 OFFCURVE",
"269 660 OFFCURVE",
"437 660 CURVE SMOOTH",
"605 660 OFFCURVE",
"742 520 OFFCURVE",
"742 351 CURVE SMOOTH",
"742 181 OFFCURVE",
"605 41 OFFCURVE",
"437 41 CURVE SMOOTH"
);
},
{
closed = 1;
nodes = (
"387 376 LINE",
"387 463 LINE",
"451 463 LINE SMOOTH",
"490 463 OFFCURVE",
"508 451 OFFCURVE",
"508 421 CURVE SMOOTH",
"508 391 OFFCURVE",
"489 376 OFFCURVE",
"453 376 CURVE SMOOTH"
);
},
{
closed = 1;
nodes = (
"295 162 LINE",
"387 162 LINE",
"387 299 LINE",
"462 299 LINE SMOOTH",
"493 299 OFFCURVE",
"503 288 OFFCURVE",
"503 260 CURVE SMOOTH",
"503 162 LINE",
"595 162 LINE",
"595 281 LINE SMOOTH",
"595 325 OFFCURVE",
"569 340 OFFCURVE",
"519 340 CURVE",
"564 350 OFFCURVE",
"600 381 OFFCURVE",
"600 439 CURVE SMOOTH",
"600 499 OFFCURVE",
"556 544 OFFCURVE",
"474 544 CURVE SMOOTH",
"295 544 LINE"
);
}
);
width = 874;
}
);
leftKerningGroup = registered;
note = registered;
rightKerningGroup = registered;
unicode = 00AE;
},
{
glyphname = macron;
lastChange = "2019-04-11 11:13:44 +0000";
layers = (
{
layerId = "1EC54930-9952-4E85-BD3B-546E0FD37DE9";
paths = (
{
closed = 1;
nodes = (
"23 576 LINE",
"319 576 LINE",
"319 668 LINE",
"23 668 LINE"
);
}
);
width = 342;
}
);
note = macron;
unicode = 00AF;
},
{
glyphname = degree;
lastChange = "2019-04-11 11:13:44 +0000";
layers = (
{
layerId = "1EC54930-9952-4E85-BD3B-546E0FD37DE9";
paths = (
{
closed = 1;
nodes = (
"331 340 OFFCURVE",
"411 420 OFFCURVE",
"411 525 CURVE SMOOTH",
"411 630 OFFCURVE",
"331 710 OFFCURVE",
"226 710 CURVE SMOOTH",
"121 710 OFFCURVE",
"41 630 OFFCURVE",
"41 525 CURVE SMOOTH",
"41 420 OFFCURVE",
"121 340 OFFCURVE",
"226 340 CURVE SMOOTH"
);
},
{
closed = 1;
nodes = (
"180 437 OFFCURVE",
"144 476 OFFCURVE",
"144 525 CURVE SMOOTH",
"144 572 OFFCURVE",
"180 610 OFFCURVE",
"226 610 CURVE SMOOTH",
"271 610 OFFCURVE",
"307 572 OFFCURVE",
"307 525 CURVE SMOOTH",
"307 476 OFFCURVE",
"271 437 OFFCURVE",
"226 437 CURVE SMOOTH"
);
}
);
width = 452;
}
);
note = degree;
rightKerningGroup = degree;
unicode = 00B0;
},
{
glyphname = plusminus;
lastChange = "2019-04-11 11:13:44 +0000";
layers = (
{
layerId = "1EC54930-9952-4E85-BD3B-546E0FD37DE9";
paths = (
{
closed = 1;
nodes = (
"559 279 LINE",
"559 381 LINE",
"370 381 LINE",
"370 500 LINE",
"252 500 LINE",
"252 381 LINE",
"65 381 LINE",
"65 279 LINE",
"252 279 LINE",
"252 166 LINE",
"370 166 LINE",
"370 279 LINE"
);
},
{
closed = 1;
nodes = (
"65 0 LINE",
"559 0 LINE",
"559 102 LINE",
"65 102 LINE"
);
}
);
width = 624;
}
);
note = plusminus;
unicode = 00B1;
},
{
glyphname = twosuperior;
lastChange = "2019-04-11 11:13:44 +0000";
layers = (
{
layerId = "1EC54930-9952-4E85-BD3B-546E0FD37DE9";
paths = (
{
closed = 1;
nodes = (
"328 415 LINE",
"328 495 LINE",
"155 495 LINE",
"253 581 LINE SMOOTH",
"290 614 OFFCURVE",
"326 647 OFFCURVE",
"326 699 CURVE SMOOTH",
"326 762 OFFCURVE",
"270 815 OFFCURVE",
"188 815 CURVE SMOOTH",
"106 815 OFFCURVE",
"42 766 OFFCURVE",
"38 687 CURVE",
"131 687 LINE",
"133 716 OFFCURVE",
"155 736 OFFCURVE",
"181 736 CURVE SMOOTH",
"185 736 LINE SMOOTH",
"212 736 OFFCURVE",
"231 720 OFFCURVE",
"232 696 CURVE",
"232 668 OFFCURVE",
"204 645 OFFCURVE",
"180 624 CURVE SMOOTH",
"39 498 LINE",
"39 415 LINE"
);
}
);
width = 367;
}
);
leftKerningGroup = twosuperior;
note = twosuperior;
rightKerningGroup = twosuperior;
unicode = 00B2;
},
{
glyphname = threesuperior;
lastChange = "2019-04-11 11:13:44 +0000";
layers = (
{
layerId = "1EC54930-9952-4E85-BD3B-546E0FD37DE9";
paths = (
{
closed = 1;
nodes = (
"256 410 OFFCURVE",
"330 447 OFFCURVE",
"330 522 CURVE SMOOTH",
"330 567 OFFCURVE",
"304 599 OFFCURVE",
"269 615 CURVE",
"306 631 OFFCURVE",
"327 663 OFFCURVE",
"327 703 CURVE SMOOTH",
"327 776 OFFCURVE",
"259 815 OFFCURVE",
"184 815 CURVE SMOOTH",
"105 815 OFFCURVE",
"39 775 OFFCURVE",
"39 700 CURVE",
"132 700 LINE",
"134 722 OFFCURVE",
"154 738 OFFCURVE",
"180 738 CURVE SMOOTH",
"185 738 LINE SMOOTH",
"214 738 OFFCURVE",
"234 720 OFFCURVE",
"234 695 CURVE SMOOTH",
"234 669 OFFCURVE",
"214 653 OFFCURVE",
"187 653 CURVE SMOOTH",
"148 653 LINE",
"148 576 LINE",
"186 576 LINE SMOOTH",
"215 576 OFFCURVE",
"237 561 OFFCURVE",
"237 533 CURVE SMOOTH",
"237 504 OFFCURVE",
"212 487 OFFCURVE",
"182 487 CURVE SMOOTH",
"177 487 LINE SMOOTH",
"150 487 OFFCURVE",
"126 503 OFFCURVE",
"126 528 CURVE",
"32 528 LINE",
"32 452 OFFCURVE",
"100 410 OFFCURVE",
"179 410 CURVE SMOOTH"
);
}
);
width = 369;
}
);
leftKerningGroup = threesuperior;
note = threesuperior;
rightKerningGroup = threesuperior;
unicode = 00B3;
},
{
glyphname = acute;
lastChange = "2019-04-11 11:13:44 +0000";
layers = (
{
layerId = "1EC54930-9952-4E85-BD3B-546E0FD37DE9";
paths = (
{
closed = 1;
nodes = (
"27 556 LINE",
"98 556 LINE",
"194 700 LINE",
"65 700 LINE"
);
}
);
width = 221;
}
);
note = acute;
unicode = 00B4;
},
{
glyphname = mu;
lastChange = "2019-04-11 11:13:44 +0000";
layers = (
{
layerId = "1EC54930-9952-4E85-BD3B-546E0FD37DE9";
paths = (
{
closed = 1;
nodes = (
"313 -10 OFFCURVE",
"366 30 OFFCURVE",
"391 82 CURVE",
"391 0 LINE",
"506 0 LINE",
"506 500 LINE",
"391 500 LINE",
"391 225 LINE SMOOTH",
"391 143 OFFCURVE",
"339 84 OFFCURVE",
"279 84 CURVE SMOOTH",
"270 84 LINE SMOOTH",
"215 84 OFFCURVE",
"185 121 OFFCURVE",
"185 193 CURVE SMOOTH",
"185 500 LINE",
"70 500 LINE",
"70 -200 LINE",
"185 -200 LINE",
"185 -3 LINE",
"201 -8 OFFCURVE",
"219 -10 OFFCURVE",
"239 -10 CURVE SMOOTH"
);
}
);
width = 576;
}
);
note = mu;
unicode = 00B5;
},
{
glyphname = paragraph;
lastChange = "2019-04-11 11:13:44 +0000";
layers = (
{
layerId = "1EC54930-9952-4E85-BD3B-546E0FD37DE9";
paths = (
{
closed = 1;
nodes = (
"355 -200 LINE",
"355 604 LINE",
"437 604 LINE",
"437 -200 LINE",
"550 -200 LINE",
"550 604 LINE",
"618 604 LINE",
"618 700 LINE",
"238 700 LINE SMOOTH",
"123 700 OFFCURVE",
"29 606 OFFCURVE",
"29 492 CURVE SMOOTH",
"29 378 OFFCURVE",
"123 285 OFFCURVE",
"236 283 CURVE SMOOTH",
"242 283 LINE",
"242 -200 LINE"
);
}
);
width = 665;
}
);
note = paragraph;
unicode = 00B6;
},
{
glyphname = periodcentered;
lastChange = "2019-04-11 11:13:44 +0000";
layers = (
{
layerId = "1EC54930-9952-4E85-BD3B-546E0FD37DE9";
paths = (
{
closed = 1;
nodes = (
"64 282 LINE",
"198 282 LINE",
"198 416 LINE",
"64 416 LINE"
);
}
);
width = 262;
}
);
leftKerningGroup = periodcentered;
note = periodcentered;
rightKerningGroup = periodcentered;
unicode = 00B7;
},
{
glyphname = cedilla;
lastChange = "2019-04-11 11:13:44 +0000";
layers = (
{
layerId = "1EC54930-9952-4E85-BD3B-546E0FD37DE9";
paths = (
{
closed = 1;
nodes = (
"34 -241 LINE",
"106 -241 LINE SMOOTH",
"174 -241 OFFCURVE",
"224 -202 OFFCURVE",
"224 -138 CURVE SMOOTH",
"224 -78 OFFCURVE",
"184 -47 OFFCURVE",
"133 -45 CURVE",
"133 15 LINE",
"69 15 LINE",
"69 -104 LINE",
"114 -104 LINE SMOOTH",
"141 -104 OFFCURVE",
"154 -118 OFFCURVE",
"154 -137 CURVE SMOOTH",
"154 -158 OFFCURVE",
"139 -170 OFFCURVE",
"109 -170 CURVE SMOOTH",
"34 -170 LINE"
);
}
);
width = 256;
}
);
note = cedilla;
unicode = 00B8;
},
{
glyphname = onesuperior;
lastChange = "2019-04-11 11:13:44 +0000";
layers = (
{
layerId = "1EC54930-9952-4E85-BD3B-546E0FD37DE9";
paths = (
{
closed = 1;
nodes = (
"230 415 LINE",
"230 810 LINE",
"155 810 LINE",
"27 704 LINE",
"27 596 LINE",
"139 689 LINE",
"139 415 LINE"
);
}
);
width = 287;
}
);
leftKerningGroup = onesuperior;
note = onesuperior;
rightKerningGroup = onesuperior;
unicode = 00B9;
},
{
glyphname = ordmasculine;
lastChange = "2019-04-11 11:13:44 +0000";
layers = (
{
layerId = "1EC54930-9952-4E85-BD3B-546E0FD37DE9";
paths = (
{
closed = 1;
nodes = (
"100 705 OFFCURVE",
"43 643 OFFCURVE",
"43 557 CURVE SMOOTH",
"43 471 OFFCURVE",
"100 410 OFFCURVE",
"191 410 CURVE SMOOTH",
"283 410 OFFCURVE",
"339 471 OFFCURVE",
"339 557 CURVE SMOOTH",
"339 643 OFFCURVE",
"283 705 OFFCURVE",
"191 705 CURVE SMOOTH"
);
},
{
closed = 1;
nodes = (
"194 633 LINE SMOOTH",
"228 633 OFFCURVE",
"249 603 OFFCURVE",
"249 557 CURVE SMOOTH",
"249 511 OFFCURVE",
"229 482 OFFCURVE",
"194 482 CURVE SMOOTH",
"189 482 LINE SMOOTH",
"154 482 OFFCURVE",
"134 511 OFFCURVE",
"134 557 CURVE SMOOTH",
"134 603 OFFCURVE",
"154 633 OFFCURVE",
"189 633 CURVE SMOOTH"
);
}
);
width = 382;
}
);
leftKerningGroup = ordmasculine;
note = ordmasculine;
unicode = 00BA;
},
{
glyphname = guillemotright;
lastChange = "2019-04-11 11:13:44 +0000";
layers = (
{
layerId = "1EC54930-9952-4E85-BD3B-546E0FD37DE9";
paths = (
{
closed = 1;
nodes = (
"397 70 LINE",
"542 285 LINE",
"397 500 LINE",
"264 500 LINE",
"409 285 LINE",
"264 70 LINE"
);
},
{
closed = 1;
nodes = (
"170 70 LINE",
"315 285 LINE",
"170 500 LINE",
"37 500 LINE",
"182 285 LINE",
"37 70 LINE"
);
}
);
width = 576;
}
);
leftKerningGroup = guillemotright;
note = guillemotright;
rightKerningGroup = guillemotright;
unicode = 00BB;
},
{
glyphname = onequarter;
lastChange = "2019-04-11 11:13:44 +0000";
layers = (
{
layerId = "1EC54930-9952-4E85-BD3B-546E0FD37DE9";
paths = (
{
closed = 1;
nodes = (
"273 0 LINE",
"693 700 LINE",
"590 700 LINE",
"170 0 LINE"
);
},
{
closed = 1;
nodes = (
"235 305 LINE",
"235 700 LINE",
"160 700 LINE",
"32 594 LINE",
"32 486 LINE",
"144 579 LINE",
"144 305 LINE"
);
},
{
closed = 1;
nodes = (
"792 0 LINE",
"792 73 LINE",
"847 73 LINE",
"847 148 LINE",
"792 148 LINE",
"792 395 LINE",
"691 395 LINE",
"514 163 LINE",
"514 73 LINE",
"706 73 LINE",
"706 0 LINE"
);
},
{
closed = 1;
nodes = (
"706 294 LINE",
"706 148 LINE",
"596 148 LINE"
);
}
);
width = 879;
}
);
note = onequarter;
unicode = 00BC;
},
{
glyphname = onehalf;
lastChange = "2019-04-11 11:13:44 +0000";
layers = (
{
layerId = "1EC54930-9952-4E85-BD3B-546E0FD37DE9";
paths = (
{
closed = 1;
nodes = (
"270 0 LINE",
"690 700 LINE",
"587 700 LINE",
"167 0 LINE"
);
},
{
closed = 1;
nodes = (
"234 305 LINE",
"234 700 LINE",
"159 700 LINE",
"31 594 LINE",
"31 486 LINE",
"143 579 LINE",
"143 305 LINE"
);
},
{
closed = 1;
nodes = (
"865 0 LINE",
"865 80 LINE",
"692 80 LINE",
"790 166 LINE SMOOTH",
"827 199 OFFCURVE",
"863 232 OFFCURVE",
"863 284 CURVE SMOOTH",
"863 347 OFFCURVE",
"807 400 OFFCURVE",
"725 400 CURVE SMOOTH",
"643 400 OFFCURVE",
"579 351 OFFCURVE",
"575 272 CURVE",
"668 272 LINE",
"670 301 OFFCURVE",
"692 321 OFFCURVE",
"718 321 CURVE SMOOTH",
"722 321 LINE SMOOTH",
"749 321 OFFCURVE",
"768 305 OFFCURVE",
"769 281 CURVE",
"769 253 OFFCURVE",
"741 230 OFFCURVE",
"717 209 CURVE SMOOTH",
"576 83 LINE",
"576 0 LINE"
);
}
);
width = 906;
}
);
note = onehalf;
unicode = 00BD;
},
{
glyphname = threequarters;
lastChange = "2019-04-11 11:13:44 +0000";
layers = (
{
layerId = "1EC54930-9952-4E85-BD3B-546E0FD37DE9";
paths = (
{
closed = 1;
nodes = (
"332 0 LINE",
"752 700 LINE",
"649 700 LINE",
"229 0 LINE"
);
},
{
closed = 1;
nodes = (
"261 300 OFFCURVE",
"335 337 OFFCURVE",
"335 412 CURVE SMOOTH",
"335 457 OFFCURVE",
"309 489 OFFCURVE",
"274 505 CURVE",
"311 521 OFFCURVE",
"332 553 OFFCURVE",
"332 593 CURVE SMOOTH",
"332 666 OFFCURVE",
"264 705 OFFCURVE",
"189 705 CURVE SMOOTH",
"110 705 OFFCURVE",
"44 665 OFFCURVE",
"44 590 CURVE",
"137 590 LINE",
"139 612 OFFCURVE",
"159 628 OFFCURVE",
"185 628 CURVE SMOOTH",
"190 628 LINE SMOOTH",
"219 628 OFFCURVE",
"239 610 OFFCURVE",
"239 585 CURVE SMOOTH",
"239 559 OFFCURVE",
"219 543 OFFCURVE",
"192 543 CURVE SMOOTH",
"153 543 LINE",
"153 466 LINE",
"191 466 LINE SMOOTH",
"220 466 OFFCURVE",
"242 451 OFFCURVE",
"242 423 CURVE SMOOTH",
"242 394 OFFCURVE",
"217 377 OFFCURVE",
"187 377 CURVE SMOOTH",
"182 377 LINE SMOOTH",
"155 377 OFFCURVE",
"131 393 OFFCURVE",
"131 418 CURVE",
"37 418 LINE",
"37 342 OFFCURVE",
"105 300 OFFCURVE",
"184 300 CURVE SMOOTH"
);
},
{
closed = 1;
nodes = (
"854 0 LINE",
"854 73 LINE",
"909 73 LINE",
"909 148 LINE",
"854 148 LINE",
"854 395 LINE",
"753 395 LINE",
"576 163 LINE",
"576 73 LINE",
"768 73 LINE",
"768 0 LINE"
);
},
{
closed = 1;
nodes = (
"768 294 LINE",
"768 148 LINE",
"658 148 LINE"
);
}
);
width = 941;
}
);
note = threequarters;
unicode = 00BE;
},
{
glyphname = questiondown;
lastChange = "2019-04-11 11:13:44 +0000";
layers = (
{
layerId = "1EC54930-9952-4E85-BD3B-546E0FD37DE9";
paths = (
{
closed = 1;
nodes = (
"352 500 LINE",
"237 500 LINE",
"237 383 LINE",
"352 383 LINE"
);
},
{
closed = 1;
nodes = (
"239 305 LINE",
"239 206 LINE SMOOTH",
"239 184 OFFCURVE",
"232 177 OFFCURVE",
"209 177 CURVE SMOOTH",
"107 177 OFFCURVE",
"29 99 OFFCURVE",
"29 -8 CURVE SMOOTH",
"29 -125 OFFCURVE",
"112 -200 OFFCURVE",
"230 -200 CURVE SMOOTH",
"446 -200 LINE",
"446 -96 LINE",
"246 -96 LINE SMOOTH",
"185 -96 OFFCURVE",
"147 -62 OFFCURVE",
"147 -8 CURVE SMOOTH",
"147 52 OFFCURVE",
"185 81 OFFCURVE",
"242 81 CURVE SMOOTH",
"262 81 LINE SMOOTH",
"321 81 OFFCURVE",
"350 108 OFFCURVE",
"350 167 CURVE SMOOTH",
"350 305 LINE"
);
}
);
width = 477;
}
);
note = questiondown;
rightKerningGroup = questiondown;
unicode = 00BF;
},
{
glyphname = Agrave;
lastChange = "2019-04-11 11:13:44 +0000";
layers = (
{
layerId = "1EC54930-9952-4E85-BD3B-546E0FD37DE9";
paths = (
{
closed = 1;
nodes = (
"357 890 LINE",
"219 890 LINE",
"318 751 LINE",
"400 751 LINE"
);
},
{
closed = 1;
nodes = (
"465 279 LINE",
"237 279 LINE",
"351 575 LINE"
);
},
{
closed = 1;
nodes = (
"5 0 LINE",
"130 0 LINE",
"196 171 LINE",
"507 171 LINE",
"573 0 LINE",
"699 0 LINE",
"427 700 LINE",
"282 700 LINE"
);
}
);
width = 706;
}
);
leftKerningGroup = A;
note = Agrave;
rightKerningGroup = A;
unicode = 00C0;
},
{
glyphname = Aacute;
lastChange = "2019-04-11 11:13:44 +0000";
layers = (
{
layerId = "1EC54930-9952-4E85-BD3B-546E0FD37DE9";
paths = (
{
closed = 1;
nodes = (
"311 751 LINE",
"393 751 LINE",
"492 890 LINE",
"354 890 LINE"
);
},
{
closed = 1;
nodes = (
"465 279 LINE",
"237 279 LINE",
"351 575 LINE"
);
},
{
closed = 1;
nodes = (
"5 0 LINE",
"130 0 LINE",
"196 171 LINE",
"507 171 LINE",
"573 0 LINE",
"699 0 LINE",
"427 700 LINE",
"282 700 LINE"
);
}
);
width = 706;
}
);
leftKerningGroup = A;
note = Aacute;
rightKerningGroup = A;
unicode = 00C1;
},
{
glyphname = Acircumflex;
lastChange = "2019-04-11 11:13:44 +0000";
layers = (
{
layerId = "1EC54930-9952-4E85-BD3B-546E0FD37DE9";
paths = (
{
closed = 1;
nodes = (
"268 751 LINE",
"352 814 LINE",
"435 751 LINE",
"533 751 LINE",
"417 890 LINE",
"286 890 LINE",
"171 751 LINE"
);
},
{
closed = 1;
nodes = (
"465 279 LINE",
"237 279 LINE",
"351 575 LINE"
);
},
{
closed = 1;
nodes = (
"5 0 LINE",
"130 0 LINE",
"196 171 LINE",
"507 171 LINE",
"573 0 LINE",
"699 0 LINE",
"427 700 LINE",
"282 700 LINE"
);
}
);
width = 706;
}
);
leftKerningGroup = A;
note = Acircumflex;
rightKerningGroup = A;
unicode = 00C2;
},
{
glyphname = Atilde;
lastChange = "2019-04-11 11:13:44 +0000";
layers = (
{
layerId = "1EC54930-9952-4E85-BD3B-546E0FD37DE9";
paths = (
{
closed = 1;
nodes = (
"406 841 OFFCURVE",
"389 852 OFFCURVE",
"373 861 CURVE SMOOTH",
"353 872 LINE SMOOTH",
"331 885 OFFCURVE",
"307 898 OFFCURVE",
"273 898 CURVE SMOOTH",
"212 898 OFFCURVE",
"167 848 OFFCURVE",
"167 788 CURVE SMOOTH",
"167 762 LINE",
"251 762 LINE",
"251 792 OFFCURVE",
"263 810 OFFCURVE",
"284 809 CURVE",
"300 809 OFFCURVE",
"314 802 OFFCURVE",
"330 793 CURVE",
"351 780 LINE",
"380 764 OFFCURVE",
"406 752 OFFCURVE",
"434 752 CURVE SMOOTH",
"502 752 OFFCURVE",
"538 802 OFFCURVE",
"538 862 CURVE SMOOTH",
"538 888 LINE",
"453 888 LINE",
"453 858 OFFCURVE",
"442 841 OFFCURVE",
"422 841 CURVE SMOOTH"
);
},
{
closed = 1;
nodes = (
"465 279 LINE",
"237 279 LINE",
"351 575 LINE"
);
},
{
closed = 1;
nodes = (
"5 0 LINE",
"130 0 LINE",
"196 171 LINE",
"507 171 LINE",
"573 0 LINE",
"699 0 LINE",
"427 700 LINE",
"282 700 LINE"
);
}
);
width = 706;
}
);
leftKerningGroup = A;
note = Atilde;
rightKerningGroup = A;
unicode = 00C3;
},
{
glyphname = Adieresis;
lastChange = "2019-04-11 11:13:44 +0000";
layers = (
{
layerId = "1EC54930-9952-4E85-BD3B-546E0FD37DE9";
paths = (
{
closed = 1;
nodes = (
"392 771 LINE",
"506 771 LINE",
"506 883 LINE",
"392 883 LINE"
);
},
{
closed = 1;
nodes = (
"199 771 LINE",
"313 771 LINE",
"313 883 LINE",
"199 883 LINE"
);
},
{
closed = 1;
nodes = (
"465 279 LINE",
"237 279 LINE",
"351 575 LINE"
);
},
{
closed = 1;
nodes = (
"5 0 LINE",
"130 0 LINE",
"196 171 LINE",
"507 171 LINE",
"573 0 LINE",
"699 0 LINE",
"427 700 LINE",
"282 700 LINE"
);
}
);
width = 706;
}
);
leftKerningGroup = A;
note = Adieresis;
rightKerningGroup = A;
unicode = 00C4;
},
{
glyphname = Aring;
lastChange = "2019-04-11 11:13:44 +0000";
layers = (
{
layerId = "1EC54930-9952-4E85-BD3B-546E0FD37DE9";
paths = (
{
closed = 1;
nodes = (
"251 781 OFFCURVE",
"300 739 OFFCURVE",
"353 739 CURVE SMOOTH",
"409 739 OFFCURVE",
"454 781 OFFCURVE",
"454 839 CURVE SMOOTH",
"454 894 OFFCURVE",
"409 940 OFFCURVE",
"353 940 CURVE SMOOTH",
"300 940 OFFCURVE",
"251 894 OFFCURVE",
"251 839 CURVE SMOOTH"
);
},
{
closed = 1;
nodes = (
"373 877 OFFCURVE",
"389 859 OFFCURVE",
"389 839 CURVE SMOOTH",
"389 819 OFFCURVE",
"373 802 OFFCURVE",
"353 802 CURVE SMOOTH",
"333 802 OFFCURVE",
"316 819 OFFCURVE",
"316 839 CURVE SMOOTH",
"316 859 OFFCURVE",
"333 877 OFFCURVE",
"353 877 CURVE SMOOTH"
);
},
{
closed = 1;
nodes = (
"465 279 LINE",
"237 279 LINE",
"351 575 LINE"
);
},
{
closed = 1;
nodes = (
"5 0 LINE",
"130 0 LINE",
"196 171 LINE",
"507 171 LINE",
"573 0 LINE",
"699 0 LINE",
"427 700 LINE",
"282 700 LINE"
);
}
);
width = 706;
}
);
leftKerningGroup = A;
note = Aring;
rightKerningGroup = A;
unicode = 00C5;
},
{
glyphname = AE;
lastChange = "2019-04-11 11:13:44 +0000";
layers = (
{
layerId = "1EC54930-9952-4E85-BD3B-546E0FD37DE9";
paths = (
{
closed = 1;
nodes = (
"485 279 LINE",
"275 279 LINE",
"441 590 LINE"
);
},
{
closed = 1;
nodes = (
"525 0 LINE",
"971 0 LINE",
"971 107 LINE",
"628 107 LINE",
"599 306 LINE",
"881 306 LINE",
"881 413 LINE",
"587 413 LINE",
"561 593 LINE",
"911 593 LINE",
"911 700 LINE",
"377 700 LINE",
"-5 0 LINE",
"126 0 LINE",
"217 171 LINE",
"501 171 LINE"
);
}
);
width = 995;
}
);
leftKerningGroup = AE;
note = AE;
rightKerningGroup = AE;
unicode = 00C6;
},
{
glyphname = Ccedilla;
lastChange = "2019-04-11 11:13:44 +0000";
layers = (
{
layerId = "1EC54930-9952-4E85-BD3B-546E0FD37DE9";
paths = (
{
closed = 1;
nodes = (
"485 -78 OFFCURVE",
"445 -47 OFFCURVE",
"394 -45 CURVE",
"394 -10 LINE",
"555 -4 OFFCURVE",
"658 91 OFFCURVE",
"667 226 CURVE",
"547 226 LINE",
"535 143 OFFCURVE",
"471 97 OFFCURVE",
"384 97 CURVE SMOOTH",
"374 97 LINE SMOOTH",
"246 97 OFFCURVE",
"166 200 OFFCURVE",
"166 350 CURVE SMOOTH",
"166 500 OFFCURVE",
"246 603 OFFCURVE",
"374 603 CURVE SMOOTH",
"384 603 LINE SMOOTH",
"471 603 OFFCURVE",
"535 556 OFFCURVE",
"547 474 CURVE",
"667 474 LINE",
"658 611 OFFCURVE",
"549 710 OFFCURVE",
"379 710 CURVE SMOOTH",
"168 710 OFFCURVE",
"46 561 OFFCURVE",
"46 350 CURVE SMOOTH",
"46 156 OFFCURVE",
"149 14 OFFCURVE",
"330 -7 CURVE",
"330 -104 LINE",
"375 -104 LINE SMOOTH",
"402 -104 OFFCURVE",
"415 -118 OFFCURVE",
"415 -137 CURVE SMOOTH",
"415 -158 OFFCURVE",
"400 -170 OFFCURVE",
"370 -170 CURVE SMOOTH",
"295 -170 LINE",
"295 -241 LINE",
"367 -241 LINE SMOOTH",
"435 -241 OFFCURVE",
"485 -202 OFFCURVE",
"485 -138 CURVE SMOOTH"
);
}
);
width = 708;
}
);
leftKerningGroup = C;
note = Ccedilla;
rightKerningGroup = C;
unicode = 00C7;
},
{
glyphname = Egrave;
lastChange = "2019-04-11 11:13:44 +0000";
layers = (
{
layerId = "1EC54930-9952-4E85-BD3B-546E0FD37DE9";
paths = (
{
closed = 1;
nodes = (
"368 890 LINE",
"230 890 LINE",
"329 751 LINE",
"411 751 LINE"
);
},
{
closed = 1;
nodes = (
"86 0 LINE",
"618 0 LINE",
"618 107 LINE",
"206 107 LINE",
"206 306 LINE",
"548 306 LINE",
"548 413 LINE",
"206 413 LINE",
"206 593 LINE",
"608 593 LINE",
"608 700 LINE",
"86 700 LINE"
);
}
);
width = 658;
}
);
leftKerningGroup = B;
note = Egrave;
rightKerningGroup = E;
unicode = 00C8;
},
{
glyphname = Eacute;
lastChange = "2019-04-11 11:13:44 +0000";
layers = (
{
layerId = "1EC54930-9952-4E85-BD3B-546E0FD37DE9";
paths = (
{
closed = 1;
nodes = (
"299 751 LINE",
"381 751 LINE",
"480 890 LINE",
"342 890 LINE"
);
},
{
closed = 1;
nodes = (
"86 0 LINE",
"618 0 LINE",
"618 107 LINE",
"206 107 LINE",
"206 306 LINE",
"548 306 LINE",
"548 413 LINE",
"206 413 LINE",
"206 593 LINE",
"608 593 LINE",
"608 700 LINE",
"86 700 LINE"
);
}
);
width = 658;
}
);
leftKerningGroup = B;
note = Eacute;
rightKerningGroup = E;
unicode = 00C9;
},
{
glyphname = Ecircumflex;
lastChange = "2019-04-11 11:13:44 +0000";
layers = (
{
layerId = "1EC54930-9952-4E85-BD3B-546E0FD37DE9";
paths = (
{
closed = 1;
nodes = (
"264 751 LINE",
"348 814 LINE",
"431 751 LINE",
"529 751 LINE",
"413 890 LINE",
"282 890 LINE",
"167 751 LINE"
);
},
{
closed = 1;
nodes = (
"86 0 LINE",
"618 0 LINE",
"618 107 LINE",
"206 107 LINE",
"206 306 LINE",
"548 306 LINE",
"548 413 LINE",
"206 413 LINE",
"206 593 LINE",
"608 593 LINE",
"608 700 LINE",
"86 700 LINE"
);
}
);
width = 658;
}
);
leftKerningGroup = B;
note = Ecircumflex;
rightKerningGroup = E;
unicode = 00CA;
},
{
glyphname = Edieresis;
lastChange = "2019-04-11 11:13:44 +0000";
layers = (
{
layerId = "1EC54930-9952-4E85-BD3B-546E0FD37DE9";
paths = (
{
closed = 1;
nodes = (
"388 771 LINE",
"502 771 LINE",
"502 883 LINE",
"388 883 LINE"
);
},
{
closed = 1;
nodes = (
"195 771 LINE",
"309 771 LINE",
"309 883 LINE",
"195 883 LINE"
);
},
{
closed = 1;
nodes = (
"86 0 LINE",
"618 0 LINE",
"618 107 LINE",
"206 107 LINE",
"206 306 LINE",
"548 306 LINE",
"548 413 LINE",
"206 413 LINE",
"206 593 LINE",
"608 593 LINE",
"608 700 LINE",
"86 700 LINE"
);
}
);
width = 658;
}
);
leftKerningGroup = B;
note = Edieresis;
rightKerningGroup = E;
unicode = 00CB;
},
{
glyphname = Igrave;
lastChange = "2019-04-11 11:13:44 +0000";
layers = (
{
layerId = "1EC54930-9952-4E85-BD3B-546E0FD37DE9";
paths = (
{
closed = 1;
nodes = (
"148 890 LINE",
"10 890 LINE",
"109 751 LINE",
"191 751 LINE"
);
},
{
closed = 1;
nodes = (
"86 0 LINE",
"206 0 LINE",
"206 700 LINE",
"86 700 LINE"
);
}
);
width = 292;
}
);
leftKerningGroup = B;
note = Igrave;
rightKerningGroup = H;
unicode = 00CC;
},
{
glyphname = Iacute;
lastChange = "2019-04-11 11:13:44 +0000";
layers = (
{
layerId = "1EC54930-9952-4E85-BD3B-546E0FD37DE9";
paths = (
{
closed = 1;
nodes = (
"108 751 LINE",
"190 751 LINE",
"289 890 LINE",
"151 890 LINE"
);
},
{
closed = 1;
nodes = (
"86 0 LINE",
"206 0 LINE",
"206 700 LINE",
"86 700 LINE"
);
}
);
width = 292;
}
);
leftKerningGroup = B;
note = Iacute;
rightKerningGroup = H;
unicode = 00CD;
},
{
glyphname = Icircumflex;
lastChange = "2019-04-11 11:13:44 +0000";
layers = (
{
layerId = "1EC54930-9952-4E85-BD3B-546E0FD37DE9";
paths = (
{
closed = 1;
nodes = (
"63 751 LINE",
"147 814 LINE",
"230 751 LINE",
"328 751 LINE",
"212 890 LINE",
"81 890 LINE",
"-34 751 LINE"
);
},
{
closed = 1;
nodes = (
"86 0 LINE",
"206 0 LINE",
"206 700 LINE",
"86 700 LINE"
);
}
);
width = 292;
}
);
leftKerningGroup = B;
note = Icircumflex;
rightKerningGroup = H;
unicode = 00CE;
},
{
glyphname = Idieresis;
lastChange = "2019-04-11 11:13:44 +0000";
layers = (
{
layerId = "1EC54930-9952-4E85-BD3B-546E0FD37DE9";
paths = (
{
closed = 1;
nodes = (
"186 771 LINE",
"300 771 LINE",
"300 883 LINE",
"186 883 LINE"
);
},
{
closed = 1;
nodes = (
"-7 771 LINE",
"107 771 LINE",
"107 883 LINE",
"-7 883 LINE"
);
},
{
closed = 1;
nodes = (
"86 0 LINE",
"206 0 LINE",
"206 700 LINE",
"86 700 LINE"
);
}
);
width = 292;
}
);
leftKerningGroup = B;
note = Idieresis;
rightKerningGroup = H;
unicode = 00CF;
},
{
glyphname = Eth;
lastChange = "2019-04-11 11:13:44 +0000";
layers = (
{
layerId = "1EC54930-9952-4E85-BD3B-546E0FD37DE9";
paths = (
{
closed = 1;
nodes = (
"359 0 LINE SMOOTH",
"562 0 OFFCURVE",
"698 124 OFFCURVE",
"698 350 CURVE SMOOTH",
"698 576 OFFCURVE",
"559 700 OFFCURVE",
"356 700 CURVE SMOOTH",
"111 700 LINE",
"111 404 LINE",
"12 404 LINE",
"12 297 LINE",
"111 297 LINE",
"111 0 LINE"
);
},
{
closed = 1;
nodes = (
"231 107 LINE",
"231 297 LINE",
"363 297 LINE",
"363 404 LINE",
"231 404 LINE",
"231 593 LINE",
"346 593 LINE SMOOTH",
"487 593 OFFCURVE",
"578 523 OFFCURVE",
"578 350 CURVE SMOOTH",
"578 177 OFFCURVE",
"487 107 OFFCURVE",
"346 107 CURVE SMOOTH"
);
}
);
width = 744;
}
);
leftKerningGroup = B;
note = Eth;
rightKerningGroup = D;
unicode = 00D0;
},
{
glyphname = Ntilde;
lastChange = "2019-04-11 11:13:44 +0000";
layers = (
{
layerId = "1EC54930-9952-4E85-BD3B-546E0FD37DE9";
paths = (
{
closed = 1;
nodes = (
"439 841 OFFCURVE",
"422 852 OFFCURVE",
"406 861 CURVE SMOOTH",
"386 872 LINE SMOOTH",
"364 885 OFFCURVE",
"340 898 OFFCURVE",
"306 898 CURVE SMOOTH",
"245 898 OFFCURVE",
"200 848 OFFCURVE",
"200 788 CURVE SMOOTH",
"200 762 LINE",
"284 762 LINE",
"284 792 OFFCURVE",
"296 810 OFFCURVE",
"317 809 CURVE",
"333 809 OFFCURVE",
"347 802 OFFCURVE",
"363 793 CURVE",
"384 780 LINE",
"413 764 OFFCURVE",
"439 752 OFFCURVE",
"467 752 CURVE SMOOTH",
"535 752 OFFCURVE",
"571 802 OFFCURVE",
"571 862 CURVE SMOOTH",
"571 888 LINE",
"486 888 LINE",
"486 858 OFFCURVE",
"475 841 OFFCURVE",
"455 841 CURVE SMOOTH"
);
},
{
closed = 1;
nodes = (
"503 0 LINE",
"663 0 LINE",
"663 700 LINE",
"543 700 LINE",
"543 158 LINE",
"246 700 LINE",
"86 700 LINE",
"86 0 LINE",
"206 0 LINE",
"206 544 LINE"
);
}
);
width = 749;
}
);
leftKerningGroup = B;
note = Ntilde;
rightKerningGroup = H;
unicode = 00D1;
},
{
glyphname = Ograve;
lastChange = "2019-04-11 11:13:44 +0000";
layers = (
{
layerId = "1EC54930-9952-4E85-BD3B-546E0FD37DE9";
paths = (
{
closed = 1;
nodes = (
"386 890 LINE",
"248 890 LINE",
"347 751 LINE",
"429 751 LINE"
);
},
{
closed = 1;
nodes = (
"577 -10 OFFCURVE",
"717 125 OFFCURVE",
"717 350 CURVE SMOOTH",
"717 575 OFFCURVE",
"577 710 OFFCURVE",
"381 710 CURVE SMOOTH",
"186 710 OFFCURVE",
"46 575 OFFCURVE",
"46 350 CURVE SMOOTH",
"46 125 OFFCURVE",
"186 -10 OFFCURVE",
"381 -10 CURVE SMOOTH"
);
},
{
closed = 1;
nodes = (
"376 97 LINE SMOOTH",
"249 97 OFFCURVE",
"166 191 OFFCURVE",
"166 350 CURVE SMOOTH",
"166 509 OFFCURVE",
"249 603 OFFCURVE",
"376 603 CURVE SMOOTH",
"386 603 LINE SMOOTH",
"513 603 OFFCURVE",
"597 509 OFFCURVE",
"597 350 CURVE SMOOTH",
"597 191 OFFCURVE",
"513 97 OFFCURVE",
"386 97 CURVE SMOOTH"
);
}
);
width = 763;
}
);
leftKerningGroup = C;
note = Ograve;
rightKerningGroup = O;
unicode = 00D2;
},
{
glyphname = Oacute;
lastChange = "2019-04-11 11:13:44 +0000";
layers = (
{
layerId = "1EC54930-9952-4E85-BD3B-546E0FD37DE9";
paths = (
{
closed = 1;
nodes = (
"344 751 LINE",
"426 751 LINE",
"525 890 LINE",
"387 890 LINE"
);
},
{
closed = 1;
nodes = (
"577 -10 OFFCURVE",
"717 125 OFFCURVE",
"717 350 CURVE SMOOTH",
"717 575 OFFCURVE",
"577 710 OFFCURVE",
"381 710 CURVE SMOOTH",
"186 710 OFFCURVE",
"46 575 OFFCURVE",
"46 350 CURVE SMOOTH",
"46 125 OFFCURVE",
"186 -10 OFFCURVE",
"381 -10 CURVE SMOOTH"
);
},
{
closed = 1;
nodes = (
"376 97 LINE SMOOTH",
"249 97 OFFCURVE",
"166 191 OFFCURVE",
"166 350 CURVE SMOOTH",
"166 509 OFFCURVE",
"249 603 OFFCURVE",
"376 603 CURVE SMOOTH",
"386 603 LINE SMOOTH",
"513 603 OFFCURVE",
"597 509 OFFCURVE",
"597 350 CURVE SMOOTH",
"597 191 OFFCURVE",
"513 97 OFFCURVE",
"386 97 CURVE SMOOTH"
);
}
);
width = 763;
}
);
leftKerningGroup = C;
note = Oacute;
rightKerningGroup = O;
unicode = 00D3;
},
{
glyphname = Ocircumflex;
lastChange = "2019-04-11 11:13:44 +0000";
layers = (
{
layerId = "1EC54930-9952-4E85-BD3B-546E0FD37DE9";
paths = (
{
closed = 1;
nodes = (
"298 751 LINE",
"382 814 LINE",
"465 751 LINE",
"563 751 LINE",
"447 890 LINE",
"316 890 LINE",
"201 751 LINE"
);
},
{
closed = 1;
nodes = (
"577 -10 OFFCURVE",
"717 125 OFFCURVE",
"717 350 CURVE SMOOTH",
"717 575 OFFCURVE",
"577 710 OFFCURVE",
"381 710 CURVE SMOOTH",
"186 710 OFFCURVE",
"46 575 OFFCURVE",
"46 350 CURVE SMOOTH",
"46 125 OFFCURVE",
"186 -10 OFFCURVE",
"381 -10 CURVE SMOOTH"
);
},
{
closed = 1;
nodes = (
"376 97 LINE SMOOTH",
"249 97 OFFCURVE",
"166 191 OFFCURVE",
"166 350 CURVE SMOOTH",
"166 509 OFFCURVE",
"249 603 OFFCURVE",
"376 603 CURVE SMOOTH",
"386 603 LINE SMOOTH",
"513 603 OFFCURVE",
"597 509 OFFCURVE",
"597 350 CURVE SMOOTH",
"597 191 OFFCURVE",
"513 97 OFFCURVE",
"386 97 CURVE SMOOTH"
);
}
);
width = 763;
}
);
leftKerningGroup = C;
note = Ocircumflex;
rightKerningGroup = O;
unicode = 00D4;
},
{
glyphname = Otilde;
lastChange = "2019-04-11 11:13:44 +0000";
layers = (
{
layerId = "1EC54930-9952-4E85-BD3B-546E0FD37DE9";
paths = (
{
closed = 1;
nodes = (
"438 841 OFFCURVE",
"421 852 OFFCURVE",
"405 861 CURVE SMOOTH",
"385 872 LINE SMOOTH",
"363 885 OFFCURVE",
"339 898 OFFCURVE",
"305 898 CURVE SMOOTH",
"244 898 OFFCURVE",
"199 848 OFFCURVE",
"199 788 CURVE SMOOTH",
"199 762 LINE",
"283 762 LINE",
"283 792 OFFCURVE",
"295 810 OFFCURVE",
"316 809 CURVE",
"332 809 OFFCURVE",
"346 802 OFFCURVE",
"362 793 CURVE",
"383 780 LINE",
"412 764 OFFCURVE",
"438 752 OFFCURVE",
"466 752 CURVE SMOOTH",
"534 752 OFFCURVE",
"570 802 OFFCURVE",
"570 862 CURVE SMOOTH",
"570 888 LINE",
"485 888 LINE",
"485 858 OFFCURVE",
"474 841 OFFCURVE",
"454 841 CURVE SMOOTH"
);
},
{
closed = 1;
nodes = (
"577 -10 OFFCURVE",
"717 125 OFFCURVE",
"717 350 CURVE SMOOTH",
"717 575 OFFCURVE",
"577 710 OFFCURVE",
"381 710 CURVE SMOOTH",
"186 710 OFFCURVE",
"46 575 OFFCURVE",
"46 350 CURVE SMOOTH",
"46 125 OFFCURVE",
"186 -10 OFFCURVE",
"381 -10 CURVE SMOOTH"
);
},
{
closed = 1;
nodes = (
"376 97 LINE SMOOTH",
"249 97 OFFCURVE",
"166 191 OFFCURVE",
"166 350 CURVE SMOOTH",
"166 509 OFFCURVE",
"249 603 OFFCURVE",
"376 603 CURVE SMOOTH",
"386 603 LINE SMOOTH",
"513 603 OFFCURVE",
"597 509 OFFCURVE",
"597 350 CURVE SMOOTH",
"597 191 OFFCURVE",
"513 97 OFFCURVE",
"386 97 CURVE SMOOTH"
);
}
);
width = 763;
}
);
leftKerningGroup = C;
note = Otilde;
rightKerningGroup = O;
unicode = 00D5;
},
{
glyphname = Odieresis;
lastChange = "2019-04-11 11:13:44 +0000";
layers = (
{
layerId = "1EC54930-9952-4E85-BD3B-546E0FD37DE9";
paths = (
{
closed = 1;
nodes = (
"421 771 LINE",
"535 771 LINE",
"535 883 LINE",
"421 883 LINE"
);
},
{
closed = 1;
nodes = (
"228 771 LINE",
"342 771 LINE",
"342 883 LINE",
"228 883 LINE"
);
},
{
closed = 1;
nodes = (
"577 -10 OFFCURVE",
"717 125 OFFCURVE",
"717 350 CURVE SMOOTH",
"717 575 OFFCURVE",
"577 710 OFFCURVE",
"381 710 CURVE SMOOTH",
"186 710 OFFCURVE",
"46 575 OFFCURVE",
"46 350 CURVE SMOOTH",
"46 125 OFFCURVE",
"186 -10 OFFCURVE",
"381 -10 CURVE SMOOTH"
);
},
{
closed = 1;
nodes = (
"376 97 LINE SMOOTH",
"249 97 OFFCURVE",
"166 191 OFFCURVE",
"166 350 CURVE SMOOTH",
"166 509 OFFCURVE",
"249 603 OFFCURVE",
"376 603 CURVE SMOOTH",
"386 603 LINE SMOOTH",
"513 603 OFFCURVE",
"597 509 OFFCURVE",
"597 350 CURVE SMOOTH",
"597 191 OFFCURVE",
"513 97 OFFCURVE",
"386 97 CURVE SMOOTH"
);
}
);
width = 763;
}
);
leftKerningGroup = C;
note = Odieresis;
rightKerningGroup = O;
unicode = 00D6;
},
{
glyphname = multiply;
lastChange = "2019-04-11 11:13:44 +0000";
layers = (
{
layerId = "1EC54930-9952-4E85-BD3B-546E0FD37DE9";
paths = (
{
closed = 1;
nodes = (
"420 36 LINE",
"494 110 LINE",
"345 258 LINE",
"493 406 LINE",
"420 480 LINE",
"272 332 LINE",
"123 480 LINE",
"49 406 LINE",
"198 257 LINE",
"50 109 LINE",
"122 36 LINE",
"271 185 LINE"
);
}
);
width = 543;
}
);
note = multiply;
unicode = 00D7;
},
{
glyphname = Oslash;
lastChange = "2019-04-11 11:13:44 +0000";
layers = (
{
layerId = "1EC54930-9952-4E85-BD3B-546E0FD37DE9";
paths = (
{
closed = 1;
nodes = (
"167 509 OFFCURVE",
"250 603 OFFCURVE",
"377 603 CURVE SMOOTH",
"387 603 LINE SMOOTH",
"426 603 OFFCURVE",
"461 594 OFFCURVE",
"490 577 CURVE",
"197 206 LINE",
"178 245 OFFCURVE",
"167 293 OFFCURVE",
"167 350 CURVE SMOOTH"
);
},
{
closed = 1;
nodes = (
"377 97 LINE SMOOTH",
"339 97 OFFCURVE",
"305 105 OFFCURVE",
"276 122 CURVE",
"569 492 LINE",
"588 454 OFFCURVE",
"598 406 OFFCURVE",
"598 350 CURVE SMOOTH",
"598 191 OFFCURVE",
"514 97 OFFCURVE",
"387 97 CURVE SMOOTH"
);
},
{
closed = 1;
nodes = (
"578 -10 OFFCURVE",
"718 125 OFFCURVE",
"718 350 CURVE SMOOTH",
"718 448 OFFCURVE",
"691 529 OFFCURVE",
"645 589 CURVE",
"711 673 LINE",
"621 743 LINE",
"559 665 LINE",
"509 694 OFFCURVE",
"449 710 OFFCURVE",
"382 710 CURVE SMOOTH",
"187 710 OFFCURVE",
"47 575 OFFCURVE",
"47 350 CURVE SMOOTH",
"47 251 OFFCURVE",
"74 170 OFFCURVE",
"121 109 CURVE",
"56 27 LINE",
"146 -43 LINE",
"207 34 LINE",
"257 5 OFFCURVE",
"316 -10 OFFCURVE",
"382 -10 CURVE SMOOTH"
);
}
);
width = 765;
}
);
leftKerningGroup = C;
note = Oslash;
rightKerningGroup = O;
unicode = 00D8;
},
{
glyphname = Ugrave;
lastChange = "2019-04-11 11:13:44 +0000";
layers = (
{
layerId = "1EC54930-9952-4E85-BD3B-546E0FD37DE9";
paths = (
{
closed = 1;
nodes = (
"356 890 LINE",
"218 890 LINE",
"317 751 LINE",
"399 751 LINE"
);
},
{
closed = 1;
nodes = (
"534 -10 OFFCURVE",
"621 89 OFFCURVE",
"621 247 CURVE SMOOTH",
"621 700 LINE",
"501 700 LINE",
"501 263 LINE SMOOTH",
"501 151 OFFCURVE",
"452 97 OFFCURVE",
"355 97 CURVE SMOOTH",
"345 97 LINE SMOOTH",
"249 97 OFFCURVE",
"199 151 OFFCURVE",
"199 263 CURVE SMOOTH",
"199 700 LINE",
"79 700 LINE",
"79 247 LINE SMOOTH",
"79 89 OFFCURVE",
"164 -10 OFFCURVE",
"350 -10 CURVE SMOOTH"
);
}
);
width = 700;
}
);
leftKerningGroup = U;
note = Ugrave;
rightKerningGroup = U;
unicode = 00D9;
},
{
glyphname = Uacute;
lastChange = "2019-04-11 11:13:44 +0000";
layers = (
{
layerId = "1EC54930-9952-4E85-BD3B-546E0FD37DE9";
paths = (
{
closed = 1;
nodes = (
"301 751 LINE",
"383 751 LINE",
"482 890 LINE",
"344 890 LINE"
);
},
{
closed = 1;
nodes = (
"534 -10 OFFCURVE",
"621 89 OFFCURVE",
"621 247 CURVE SMOOTH",
"621 700 LINE",
"501 700 LINE",
"501 263 LINE SMOOTH",
"501 151 OFFCURVE",
"452 97 OFFCURVE",
"355 97 CURVE SMOOTH",
"345 97 LINE SMOOTH",
"249 97 OFFCURVE",
"199 151 OFFCURVE",
"199 263 CURVE SMOOTH",
"199 700 LINE",
"79 700 LINE",
"79 247 LINE SMOOTH",
"79 89 OFFCURVE",
"164 -10 OFFCURVE",
"350 -10 CURVE SMOOTH"
);
}
);
width = 700;
}
);
leftKerningGroup = U;
note = Uacute;
rightKerningGroup = U;
unicode = 00DA;
},
{
glyphname = Ucircumflex;
lastChange = "2019-04-11 11:13:44 +0000";
layers = (
{
layerId = "1EC54930-9952-4E85-BD3B-546E0FD37DE9";
paths = (
{
closed = 1;
nodes = (
"267 751 LINE",
"351 814 LINE",
"434 751 LINE",
"532 751 LINE",
"416 890 LINE",
"285 890 LINE",
"170 751 LINE"
);
},
{
closed = 1;
nodes = (
"534 -10 OFFCURVE",
"621 89 OFFCURVE",
"621 247 CURVE SMOOTH",
"621 700 LINE",
"501 700 LINE",
"501 263 LINE SMOOTH",
"501 151 OFFCURVE",
"452 97 OFFCURVE",
"355 97 CURVE SMOOTH",
"345 97 LINE SMOOTH",
"249 97 OFFCURVE",
"199 151 OFFCURVE",
"199 263 CURVE SMOOTH",
"199 700 LINE",
"79 700 LINE",
"79 247 LINE SMOOTH",
"79 89 OFFCURVE",
"164 -10 OFFCURVE",
"350 -10 CURVE SMOOTH"
);
}
);
width = 700;
}
);
leftKerningGroup = U;
note = Ucircumflex;
rightKerningGroup = U;
unicode = 00DB;
},
{
glyphname = Udieresis;
lastChange = "2019-04-11 11:13:44 +0000";
layers = (
{
layerId = "1EC54930-9952-4E85-BD3B-546E0FD37DE9";
paths = (
{
closed = 1;
nodes = (
"390 771 LINE",
"504 771 LINE",
"504 883 LINE",
"390 883 LINE"
);
},
{
closed = 1;
nodes = (
"197 771 LINE",
"311 771 LINE",
"311 883 LINE",
"197 883 LINE"
);
},
{
closed = 1;
nodes = (
"534 -10 OFFCURVE",
"621 89 OFFCURVE",
"621 247 CURVE SMOOTH",
"621 700 LINE",
"501 700 LINE",
"501 263 LINE SMOOTH",
"501 151 OFFCURVE",
"452 97 OFFCURVE",
"355 97 CURVE SMOOTH",
"345 97 LINE SMOOTH",
"249 97 OFFCURVE",
"199 151 OFFCURVE",
"199 263 CURVE SMOOTH",
"199 700 LINE",
"79 700 LINE",
"79 247 LINE SMOOTH",
"79 89 OFFCURVE",
"164 -10 OFFCURVE",
"350 -10 CURVE SMOOTH"
);
}
);
width = 700;
}
);
leftKerningGroup = U;
note = Udieresis;
rightKerningGroup = U;
unicode = 00DC;
},
{
glyphname = Yacute;
lastChange = "2019-04-11 11:13:44 +0000";
layers = (
{
layerId = "1EC54930-9952-4E85-BD3B-546E0FD37DE9";
paths = (
{
closed = 1;
nodes = (
"278 751 LINE",
"360 751 LINE",
"459 890 LINE",
"321 890 LINE"
);
},
{
closed = 1;
nodes = (
"381 0 LINE",
"381 284 LINE",
"637 700 LINE",
"504 700 LINE",
"324 399 LINE",
"142 700 LINE",
"5 700 LINE",
"261 284 LINE",
"261 0 LINE"
);
}
);
width = 642;
}
);
leftKerningGroup = Y;
note = Yacute;
rightKerningGroup = Y;
unicode = 00DD;
},
{
glyphname = Thorn;
lastChange = "2019-04-11 11:13:44 +0000";
layers = (
{
layerId = "1EC54930-9952-4E85-BD3B-546E0FD37DE9";
paths = (
{
closed = 1;
nodes = (
"86 0 LINE",
"206 0 LINE",
"206 131 LINE",
"390 131 LINE SMOOTH",
"523 131 OFFCURVE",
"618 210 OFFCURVE",
"618 350 CURVE SMOOTH",
"618 490 OFFCURVE",
"523 569 OFFCURVE",
"390 569 CURVE SMOOTH",
"206 569 LINE",
"206 700 LINE",
"86 700 LINE"
);
},
{
closed = 1;
nodes = (
"206 238 LINE",
"206 462 LINE",
"378 462 LINE SMOOTH",
"456 462 OFFCURVE",
"498 420 OFFCURVE",
"498 350 CURVE SMOOTH",
"498 280 OFFCURVE",
"456 238 OFFCURVE",
"378 238 CURVE SMOOTH"
);
}
);
width = 649;
}
);
leftKerningGroup = B;
note = Thorn;
rightKerningGroup = Thorn;
unicode = 00DE;
},
{
glyphname = germandbls;
lastChange = "2019-04-11 11:13:44 +0000";
layers = (
{
layerId = "1EC54930-9952-4E85-BD3B-546E0FD37DE9";
paths = (
{
closed = 1;
nodes = (
"70 -185 LINE",
"185 -185 LINE",
"185 498 LINE SMOOTH",
"185 579 OFFCURVE",
"228 616 OFFCURVE",
"279 616 CURVE SMOOTH",
"287 616 LINE SMOOTH",
"338 616 OFFCURVE",
"377 579 OFFCURVE",
"377 519 CURVE SMOOTH",
"377 456 OFFCURVE",
"326 414 OFFCURVE",
"264 414 CURVE SMOOTH",
"237 414 LINE",
"237 320 LINE",
"266 320 LINE SMOOTH",
"336 320 OFFCURVE",
"397 284 OFFCURVE",
"397 210 CURVE SMOOTH",
"397 140 OFFCURVE",
"348 96 OFFCURVE",
"264 96 CURVE SMOOTH",
"237 96 LINE",
"237 0 LINE",
"287 0 LINE SMOOTH",
"419 0 OFFCURVE",
"512 77 OFFCURVE",
"512 200 CURVE SMOOTH",
"512 297 OFFCURVE",
"440 361 OFFCURVE",
"373 371 CURVE",
"433 393 OFFCURVE",
"487 445 OFFCURVE",
"487 530 CURVE SMOOTH",
"487 628 OFFCURVE",
"410 710 OFFCURVE",
"283 710 CURVE SMOOTH",
"150 710 OFFCURVE",
"70 624 OFFCURVE",
"70 503 CURVE SMOOTH"
);
}
);
width = 552;
}
);
leftKerningGroup = b;
note = germandbls;
rightKerningGroup = germandbls;
unicode = 00DF;
},
{
glyphname = agrave;
lastChange = "2019-04-11 11:13:44 +0000";
layers = (
{
layerId = "1EC54930-9952-4E85-BD3B-546E0FD37DE9";
paths = (
{
closed = 1;
nodes = (
"269 700 LINE",
"140 700 LINE",
"236 556 LINE",
"307 556 LINE"
);
},
{
closed = 1;
nodes = (
"222 84 LINE SMOOTH",
"181 84 OFFCURVE",
"151 109 OFFCURVE",
"151 144 CURVE SMOOTH",
"151 187 OFFCURVE",
"192 209 OFFCURVE",
"236 213 CURVE SMOOTH",
"351 223 LINE",
"351 194 LINE SMOOTH",
"351 131 OFFCURVE",
"289 84 OFFCURVE",
"229 84 CURVE SMOOTH"
);
},
{
closed = 1;
nodes = (
"356 54 OFFCURVE",
"357 19 OFFCURVE",
"361 0 CURVE",
"469 0 LINE",
"464 35 OFFCURVE",
"464 80 OFFCURVE",
"464 110 CURVE SMOOTH",
"464 326 LINE SMOOTH",
"464 436 OFFCURVE",
"385 510 OFFCURVE",
"257 510 CURVE SMOOTH",
"137 510 OFFCURVE",
"56 442 OFFCURVE",
"48 349 CURVE",
"163 349 LINE",
"167 387 OFFCURVE",
"203 416 OFFCURVE",
"254 416 CURVE SMOOTH",
"260 416 LINE SMOOTH",
"316 416 OFFCURVE",
"351 379 OFFCURVE",
"351 323 CURVE SMOOTH",
"351 309 LINE",
"220 298 LINE SMOOTH",
"129 291 OFFCURVE",
"38 248 OFFCURVE",
"38 137 CURVE SMOOTH",
"38 50 OFFCURVE",
"110 -10 OFFCURVE",
"202 -10 CURVE SMOOTH",
"273 -10 OFFCURVE",
"329 25 OFFCURVE",
"355 69 CURVE"
);
}
);
width = 530;
}
);
leftKerningGroup = a;
note = agrave;
rightKerningGroup = a;
unicode = 00E0;
},
{
glyphname = aacute;
lastChange = "2019-04-11 11:13:44 +0000";
layers = (
{
layerId = "1EC54930-9952-4E85-BD3B-546E0FD37DE9";
paths = (
{
closed = 1;
nodes = (
"219 556 LINE",
"290 556 LINE",
"386 700 LINE",
"257 700 LINE"
);
},
{
closed = 1;
nodes = (
"222 84 LINE SMOOTH",
"181 84 OFFCURVE",
"151 109 OFFCURVE",
"151 144 CURVE SMOOTH",
"151 187 OFFCURVE",
"192 209 OFFCURVE",
"236 213 CURVE SMOOTH",
"351 223 LINE",
"351 194 LINE SMOOTH",
"351 131 OFFCURVE",
"289 84 OFFCURVE",
"229 84 CURVE SMOOTH"
);
},
{
closed = 1;
nodes = (
"356 54 OFFCURVE",
"357 19 OFFCURVE",
"361 0 CURVE",
"469 0 LINE",
"464 35 OFFCURVE",
"464 80 OFFCURVE",
"464 110 CURVE SMOOTH",
"464 326 LINE SMOOTH",
"464 436 OFFCURVE",
"385 510 OFFCURVE",
"257 510 CURVE SMOOTH",
"137 510 OFFCURVE",
"56 442 OFFCURVE",
"48 349 CURVE",
"163 349 LINE",
"167 387 OFFCURVE",
"203 416 OFFCURVE",
"254 416 CURVE SMOOTH",
"260 416 LINE SMOOTH",
"316 416 OFFCURVE",
"351 379 OFFCURVE",
"351 323 CURVE SMOOTH",
"351 309 LINE",
"220 298 LINE SMOOTH",
"129 291 OFFCURVE",
"38 248 OFFCURVE",
"38 137 CURVE SMOOTH",
"38 50 OFFCURVE",
"110 -10 OFFCURVE",
"202 -10 CURVE SMOOTH",
"273 -10 OFFCURVE",
"329 25 OFFCURVE",
"355 69 CURVE"
);
}
);
width = 530;
}
);
leftKerningGroup = a;
note = aacute;
rightKerningGroup = a;
unicode = 00E1;
},
{
glyphname = acircumflex;
lastChange = "2019-04-11 11:13:44 +0000";
layers = (
{
layerId = "1EC54930-9952-4E85-BD3B-546E0FD37DE9";
paths = (
{
closed = 1;
nodes = (
"359 556 LINE",
"434 556 LINE",
"326 700 LINE",
"191 700 LINE",
"83 556 LINE",
"159 556 LINE",
"259 630 LINE"
);
},
{
closed = 1;
nodes = (
"222 84 LINE SMOOTH",
"181 84 OFFCURVE",
"151 109 OFFCURVE",
"151 144 CURVE SMOOTH",
"151 187 OFFCURVE",
"192 209 OFFCURVE",
"236 213 CURVE SMOOTH",
"351 223 LINE",
"351 194 LINE SMOOTH",
"351 131 OFFCURVE",
"289 84 OFFCURVE",
"229 84 CURVE SMOOTH"
);
},
{
closed = 1;
nodes = (
"356 54 OFFCURVE",
"357 19 OFFCURVE",
"361 0 CURVE",
"469 0 LINE",
"464 35 OFFCURVE",
"464 80 OFFCURVE",
"464 110 CURVE SMOOTH",
"464 326 LINE SMOOTH",
"464 436 OFFCURVE",
"385 510 OFFCURVE",
"257 510 CURVE SMOOTH",
"137 510 OFFCURVE",
"56 442 OFFCURVE",
"48 349 CURVE",
"163 349 LINE",
"167 387 OFFCURVE",
"203 416 OFFCURVE",
"254 416 CURVE SMOOTH",
"260 416 LINE SMOOTH",
"316 416 OFFCURVE",
"351 379 OFFCURVE",
"351 323 CURVE SMOOTH",
"351 309 LINE",
"220 298 LINE SMOOTH",
"129 291 OFFCURVE",
"38 248 OFFCURVE",
"38 137 CURVE SMOOTH",
"38 50 OFFCURVE",
"110 -10 OFFCURVE",
"202 -10 CURVE SMOOTH",
"273 -10 OFFCURVE",
"329 25 OFFCURVE",
"355 69 CURVE"
);
}
);
width = 530;
}
);
leftKerningGroup = a;
note = acircumflex;
rightKerningGroup = a;
unicode = 00E2;
},
{
glyphname = atilde;
lastChange = "2019-04-11 11:13:44 +0000";
layers = (
{
layerId = "1EC54930-9952-4E85-BD3B-546E0FD37DE9";
paths = (
{
closed = 1;
nodes = (
"319 644 OFFCURVE",
"302 655 OFFCURVE",
"286 664 CURVE SMOOTH",
"266 675 LINE SMOOTH",
"244 688 OFFCURVE",
"220 701 OFFCURVE",
"186 701 CURVE SMOOTH",
"125 701 OFFCURVE",
"80 651 OFFCURVE",
"80 591 CURVE SMOOTH",
"80 565 LINE",
"164 565 LINE",
"164 595 OFFCURVE",
"180 611 OFFCURVE",
"198 611 CURVE SMOOTH",
"215 611 OFFCURVE",
"227 605 OFFCURVE",
"243 595 CURVE",
"264 583 LINE SMOOTH",
"293 567 OFFCURVE",
"319 555 OFFCURVE",
"347 555 CURVE SMOOTH",
"405 555 OFFCURVE",
"451 604 OFFCURVE",
"451 665 CURVE SMOOTH",
"451 691 LINE",
"366 691 LINE",
"366 661 OFFCURVE",
"353 644 OFFCURVE",
"335 644 CURVE SMOOTH"
);
},
{
closed = 1;
nodes = (
"222 84 LINE SMOOTH",
"181 84 OFFCURVE",
"151 109 OFFCURVE",
"151 144 CURVE SMOOTH",
"151 187 OFFCURVE",
"192 209 OFFCURVE",
"236 213 CURVE SMOOTH",
"351 223 LINE",
"351 194 LINE SMOOTH",
"351 131 OFFCURVE",
"289 84 OFFCURVE",
"229 84 CURVE SMOOTH"
);
},
{
closed = 1;
nodes = (
"356 54 OFFCURVE",
"357 19 OFFCURVE",
"361 0 CURVE",
"469 0 LINE",
"464 35 OFFCURVE",
"464 80 OFFCURVE",
"464 110 CURVE SMOOTH",
"464 326 LINE SMOOTH",
"464 436 OFFCURVE",
"385 510 OFFCURVE",
"257 510 CURVE SMOOTH",
"137 510 OFFCURVE",
"56 442 OFFCURVE",
"48 349 CURVE",
"163 349 LINE",
"167 387 OFFCURVE",
"203 416 OFFCURVE",
"254 416 CURVE SMOOTH",
"260 416 LINE SMOOTH",
"316 416 OFFCURVE",
"351 379 OFFCURVE",
"351 323 CURVE SMOOTH",
"351 309 LINE",
"220 298 LINE SMOOTH",
"129 291 OFFCURVE",
"38 248 OFFCURVE",
"38 137 CURVE SMOOTH",
"38 50 OFFCURVE",
"110 -10 OFFCURVE",
"202 -10 CURVE SMOOTH",
"273 -10 OFFCURVE",
"329 25 OFFCURVE",
"355 69 CURVE"
);
}
);
width = 530;
}
);
leftKerningGroup = a;
note = atilde;
rightKerningGroup = a;
unicode = 00E3;
},
{
glyphname = adieresis;
lastChange = "2019-04-11 11:13:44 +0000";
layers = (
{
layerId = "1EC54930-9952-4E85-BD3B-546E0FD37DE9";
paths = (
{
closed = 1;
nodes = (
"302 576 LINE",
"413 576 LINE",
"413 695 LINE",
"302 695 LINE"
);
},
{
closed = 1;
nodes = (
"106 576 LINE",
"217 576 LINE",
"217 695 LINE",
"106 695 LINE"
);
},
{
closed = 1;
nodes = (
"222 84 LINE SMOOTH",
"181 84 OFFCURVE",
"151 109 OFFCURVE",
"151 144 CURVE SMOOTH",
"151 187 OFFCURVE",
"192 209 OFFCURVE",
"236 213 CURVE SMOOTH",
"351 223 LINE",
"351 194 LINE SMOOTH",
"351 131 OFFCURVE",
"289 84 OFFCURVE",
"229 84 CURVE SMOOTH"
);
},
{
closed = 1;
nodes = (
"356 54 OFFCURVE",
"357 19 OFFCURVE",
"361 0 CURVE",
"469 0 LINE",
"464 35 OFFCURVE",
"464 80 OFFCURVE",
"464 110 CURVE SMOOTH",
"464 326 LINE SMOOTH",
"464 436 OFFCURVE",
"385 510 OFFCURVE",
"257 510 CURVE SMOOTH",
"137 510 OFFCURVE",
"56 442 OFFCURVE",
"48 349 CURVE",
"163 349 LINE",
"167 387 OFFCURVE",
"203 416 OFFCURVE",
"254 416 CURVE SMOOTH",
"260 416 LINE SMOOTH",
"316 416 OFFCURVE",
"351 379 OFFCURVE",
"351 323 CURVE SMOOTH",
"351 309 LINE",
"220 298 LINE SMOOTH",
"129 291 OFFCURVE",
"38 248 OFFCURVE",
"38 137 CURVE SMOOTH",
"38 50 OFFCURVE",
"110 -10 OFFCURVE",
"202 -10 CURVE SMOOTH",
"273 -10 OFFCURVE",
"329 25 OFFCURVE",
"355 69 CURVE"
);
}
);
width = 530;
}
);
leftKerningGroup = a;
note = adieresis;
rightKerningGroup = a;
unicode = 00E4;
},
{
glyphname = aring;
lastChange = "2019-04-11 11:13:44 +0000";
layers = (
{
layerId = "1EC54930-9952-4E85-BD3B-546E0FD37DE9";
paths = (
{
closed = 1;
nodes = (
"164 589 OFFCURVE",
"212 546 OFFCURVE",
"265 546 CURVE SMOOTH",
"321 546 OFFCURVE",
"366 589 OFFCURVE",
"366 647 CURVE SMOOTH",
"366 701 OFFCURVE",
"321 747 OFFCURVE",
"265 747 CURVE SMOOTH",
"212 747 OFFCURVE",
"164 701 OFFCURVE",
"164 647 CURVE SMOOTH"
);
},
{
closed = 1;
nodes = (
"289 691 OFFCURVE",
"308 671 OFFCURVE",
"308 647 CURVE SMOOTH",
"308 623 OFFCURVE",
"289 603 OFFCURVE",
"265 603 CURVE SMOOTH",
"241 603 OFFCURVE",
"221 623 OFFCURVE",
"221 647 CURVE SMOOTH",
"221 671 OFFCURVE",
"241 691 OFFCURVE",
"265 691 CURVE SMOOTH"
);
},
{
closed = 1;
nodes = (
"222 84 LINE SMOOTH",
"181 84 OFFCURVE",
"151 109 OFFCURVE",
"151 144 CURVE SMOOTH",
"151 187 OFFCURVE",
"192 209 OFFCURVE",
"236 213 CURVE SMOOTH",
"351 223 LINE",
"351 194 LINE SMOOTH",
"351 131 OFFCURVE",
"289 84 OFFCURVE",
"229 84 CURVE SMOOTH"
);
},
{
closed = 1;
nodes = (
"356 54 OFFCURVE",
"357 19 OFFCURVE",
"361 0 CURVE",
"469 0 LINE",
"464 35 OFFCURVE",
"464 80 OFFCURVE",
"464 110 CURVE SMOOTH",
"464 326 LINE SMOOTH",
"464 436 OFFCURVE",
"385 510 OFFCURVE",
"257 510 CURVE SMOOTH",
"137 510 OFFCURVE",
"56 442 OFFCURVE",
"48 349 CURVE",
"163 349 LINE",
"167 387 OFFCURVE",
"203 416 OFFCURVE",
"254 416 CURVE SMOOTH",
"260 416 LINE SMOOTH",
"316 416 OFFCURVE",
"351 379 OFFCURVE",
"351 323 CURVE SMOOTH",
"351 309 LINE",
"220 298 LINE SMOOTH",
"129 291 OFFCURVE",
"38 248 OFFCURVE",
"38 137 CURVE SMOOTH",
"38 50 OFFCURVE",
"110 -10 OFFCURVE",
"202 -10 CURVE SMOOTH",
"273 -10 OFFCURVE",
"329 25 OFFCURVE",
"355 69 CURVE"
);
}
);
width = 530;
}
);
leftKerningGroup = a;
note = aring;
rightKerningGroup = a;
unicode = 00E5;
},
{
glyphname = ae;
lastChange = "2019-04-11 11:13:44 +0000";
layers = (
{
layerId = "1EC54930-9952-4E85-BD3B-546E0FD37DE9";
paths = (
{
closed = 1;
nodes = (
"704 -10 OFFCURVE",
"785 54 OFFCURVE",
"806 154 CURVE",
"692 154 LINE",
"682 112 OFFCURVE",
"645 84 OFFCURVE",
"595 84 CURVE SMOOTH",
"589 84 LINE SMOOTH",
"533 84 OFFCURVE",
"474 128 OFFCURVE",
"464 210 CURVE",
"464 220 LINE",
"806 220 LINE",
"807 229 OFFCURVE",
"808 262 OFFCURVE",
"808 271 CURVE SMOOTH",
"808 409 OFFCURVE",
"728 510 OFFCURVE",
"586 510 CURVE SMOOTH",
"521 510 OFFCURVE",
"464 487 OFFCURVE",
"423 446 CURVE",
"386 488 OFFCURVE",
"328 510 OFFCURVE",
"257 510 CURVE SMOOTH",
"137 510 OFFCURVE",
"56 442 OFFCURVE",
"48 349 CURVE",
"163 349 LINE",
"167 387 OFFCURVE",
"203 416 OFFCURVE",
"254 416 CURVE SMOOTH",
"260 416 LINE SMOOTH",
"316 416 OFFCURVE",
"351 379 OFFCURVE",
"351 323 CURVE SMOOTH",
"351 309 LINE",
"221 298 LINE SMOOTH",
"129 291 OFFCURVE",
"38 248 OFFCURVE",
"38 137 CURVE SMOOTH",
"38 50 OFFCURVE",
"110 -10 OFFCURVE",
"208 -10 CURVE SMOOTH",
"290 -10 OFFCURVE",
"361 31 OFFCURVE",
"395 90 CURVE",
"439 25 OFFCURVE",
"511 -10 OFFCURVE",
"588 -10 CURVE SMOOTH"
);
},
{
closed = 1;
nodes = (
"466 309 LINE",
"475 382 OFFCURVE",
"526 416 OFFCURVE",
"580 416 CURVE SMOOTH",
"587 416 LINE SMOOTH",
"643 416 OFFCURVE",
"691 381 OFFCURVE",
"695 309 CURVE"
);
},
{
closed = 1;
nodes = (
"222 84 LINE SMOOTH",
"181 84 OFFCURVE",
"151 109 OFFCURVE",
"151 144 CURVE SMOOTH",
"151 187 OFFCURVE",
"193 209 OFFCURVE",
"236 213 CURVE SMOOTH",
"351 224 LINE",
"351 194 LINE SMOOTH",
"351 131 OFFCURVE",
"289 84 OFFCURVE",
"229 84 CURVE SMOOTH"
);
}
);
width = 847;
}
);
leftKerningGroup = a;
note = ae;
rightKerningGroup = e;
unicode = 00E6;
},
{
glyphname = ccedilla;
lastChange = "2019-04-11 11:13:44 +0000";
layers = (
{
layerId = "1EC54930-9952-4E85-BD3B-546E0FD37DE9";
paths = (
{
closed = 1;
nodes = (
"398 -78 OFFCURVE",
"358 -47 OFFCURVE",
"307 -45 CURVE",
"307 -9 LINE",
"416 -1 OFFCURVE",
"488 62 OFFCURVE",
"497 171 CURVE",
"382 171 LINE",
"374 119 OFFCURVE",
"340 84 OFFCURVE",
"284 84 CURVE SMOOTH",
"277 84 LINE SMOOTH",
"193 84 OFFCURVE",
"156 161 OFFCURVE",
"156 250 CURVE SMOOTH",
"156 339 OFFCURVE",
"193 416 OFFCURVE",
"277 416 CURVE SMOOTH",
"284 416 LINE SMOOTH",
"340 416 OFFCURVE",
"374 381 OFFCURVE",
"382 329 CURVE",
"497 329 LINE",
"487 447 OFFCURVE",
"404 510 OFFCURVE",
"281 510 CURVE SMOOTH",
"137 510 OFFCURVE",
"41 404 OFFCURVE",
"41 250 CURVE SMOOTH",
"41 110 OFFCURVE",
"120 10 OFFCURVE",
"243 -7 CURVE",
"243 -104 LINE",
"288 -104 LINE SMOOTH",
"315 -104 OFFCURVE",
"328 -118 OFFCURVE",
"328 -137 CURVE SMOOTH",
"328 -158 OFFCURVE",
"313 -170 OFFCURVE",
"283 -170 CURVE SMOOTH",
"208 -170 LINE",
"208 -241 LINE",
"280 -241 LINE SMOOTH",
"348 -241 OFFCURVE",
"398 -202 OFFCURVE",
"398 -138 CURVE SMOOTH"
);
}
);
width = 534;
}
);
leftKerningGroup = c;
note = ccedilla;
rightKerningGroup = c;
unicode = 00E7;
},
{
glyphname = egrave;
lastChange = "2019-04-11 11:13:44 +0000";
layers = (
{
layerId = "1EC54930-9952-4E85-BD3B-546E0FD37DE9";
paths = (
{
closed = 1;
nodes = (
"277 700 LINE",
"148 700 LINE",
"244 556 LINE",
"315 556 LINE"
);
},
{
closed = 1;
nodes = (
"382 154 LINE",
"372 112 OFFCURVE",
"335 84 OFFCURVE",
"285 84 CURVE SMOOTH",
"279 84 LINE SMOOTH",
"221 84 OFFCURVE",
"159 132 OFFCURVE",
"153 220 CURVE",
"496 220 LINE",
"497 229 OFFCURVE",
"498 262 OFFCURVE",
"498 271 CURVE SMOOTH",
"498 409 OFFCURVE",
"418 510 OFFCURVE",
"276 510 CURVE SMOOTH",
"140 510 OFFCURVE",
"41 410 OFFCURVE",
"41 250 CURVE SMOOTH",
"41 81 OFFCURVE",
"153 -10 OFFCURVE",
"278 -10 CURVE SMOOTH",
"394 -10 OFFCURVE",
"475 54 OFFCURVE",
"496 154 CURVE"
);
},
{
closed = 1;
nodes = (
"156 309 LINE",
"165 382 OFFCURVE",
"216 416 OFFCURVE",
"270 416 CURVE SMOOTH",
"277 416 LINE SMOOTH",
"333 416 OFFCURVE",
"381 381 OFFCURVE",
"385 309 CURVE"
);
}
);
width = 537;
}
);
leftKerningGroup = c;
note = egrave;
rightKerningGroup = e;
unicode = 00E8;
},
{
glyphname = eacute;
lastChange = "2019-04-11 11:13:44 +0000";
layers = (
{
layerId = "1EC54930-9952-4E85-BD3B-546E0FD37DE9";
paths = (
{
closed = 1;
nodes = (
"231 556 LINE",
"302 556 LINE",
"398 700 LINE",
"269 700 LINE"
);
},
{
closed = 1;
nodes = (
"382 154 LINE",
"372 112 OFFCURVE",
"335 84 OFFCURVE",
"285 84 CURVE SMOOTH",
"279 84 LINE SMOOTH",
"221 84 OFFCURVE",
"159 132 OFFCURVE",
"153 220 CURVE",
"496 220 LINE",
"497 229 OFFCURVE",
"498 262 OFFCURVE",
"498 271 CURVE SMOOTH",
"498 409 OFFCURVE",
"418 510 OFFCURVE",
"276 510 CURVE SMOOTH",
"140 510 OFFCURVE",
"41 410 OFFCURVE",
"41 250 CURVE SMOOTH",
"41 81 OFFCURVE",
"153 -10 OFFCURVE",
"278 -10 CURVE SMOOTH",
"394 -10 OFFCURVE",
"475 54 OFFCURVE",
"496 154 CURVE"
);
},
{
closed = 1;
nodes = (
"156 309 LINE",
"165 382 OFFCURVE",
"216 416 OFFCURVE",
"270 416 CURVE SMOOTH",
"277 416 LINE SMOOTH",
"333 416 OFFCURVE",
"381 381 OFFCURVE",
"385 309 CURVE"
);
}
);
width = 537;
}
);
leftKerningGroup = c;
note = eacute;
rightKerningGroup = e;
unicode = 00E9;
},
{
glyphname = ecircumflex;
lastChange = "2019-04-11 11:13:44 +0000";
layers = (
{
layerId = "1EC54930-9952-4E85-BD3B-546E0FD37DE9";
paths = (
{
closed = 1;
nodes = (
"376 556 LINE",
"451 556 LINE",
"343 700 LINE",
"208 700 LINE",
"100 556 LINE",
"176 556 LINE",
"276 630 LINE"
);
},
{
closed = 1;
nodes = (
"382 154 LINE",
"372 112 OFFCURVE",
"335 84 OFFCURVE",
"285 84 CURVE SMOOTH",
"279 84 LINE SMOOTH",
"221 84 OFFCURVE",
"159 132 OFFCURVE",
"153 220 CURVE",
"496 220 LINE",
"497 229 OFFCURVE",
"498 262 OFFCURVE",
"498 271 CURVE SMOOTH",
"498 409 OFFCURVE",
"418 510 OFFCURVE",
"276 510 CURVE SMOOTH",
"140 510 OFFCURVE",
"41 410 OFFCURVE",
"41 250 CURVE SMOOTH",
"41 81 OFFCURVE",
"153 -10 OFFCURVE",
"278 -10 CURVE SMOOTH",
"394 -10 OFFCURVE",
"475 54 OFFCURVE",
"496 154 CURVE"
);
},
{
closed = 1;
nodes = (
"156 309 LINE",
"165 382 OFFCURVE",
"216 416 OFFCURVE",
"270 416 CURVE SMOOTH",
"277 416 LINE SMOOTH",
"333 416 OFFCURVE",
"381 381 OFFCURVE",
"385 309 CURVE"
);
}
);
width = 537;
}
);
leftKerningGroup = c;
note = ecircumflex;
rightKerningGroup = e;
unicode = 00EA;
},
{
glyphname = edieresis;
lastChange = "2019-04-11 11:13:44 +0000";
layers = (
{
layerId = "1EC54930-9952-4E85-BD3B-546E0FD37DE9";
paths = (
{
closed = 1;
nodes = (
"312 576 LINE",
"423 576 LINE",
"423 695 LINE",
"312 695 LINE"
);
},
{
closed = 1;
nodes = (
"116 576 LINE",
"227 576 LINE",
"227 695 LINE",
"116 695 LINE"
);
},
{
closed = 1;
nodes = (
"382 154 LINE",
"372 112 OFFCURVE",
"335 84 OFFCURVE",
"285 84 CURVE SMOOTH",
"279 84 LINE SMOOTH",
"221 84 OFFCURVE",
"159 132 OFFCURVE",
"153 220 CURVE",
"496 220 LINE",
"497 229 OFFCURVE",
"498 262 OFFCURVE",
"498 271 CURVE SMOOTH",
"498 409 OFFCURVE",
"418 510 OFFCURVE",
"276 510 CURVE SMOOTH",
"140 510 OFFCURVE",
"41 410 OFFCURVE",
"41 250 CURVE SMOOTH",
"41 81 OFFCURVE",
"153 -10 OFFCURVE",
"278 -10 CURVE SMOOTH",
"394 -10 OFFCURVE",
"475 54 OFFCURVE",
"496 154 CURVE"
);
},
{
closed = 1;
nodes = (
"156 309 LINE",
"165 382 OFFCURVE",
"216 416 OFFCURVE",
"270 416 CURVE SMOOTH",
"277 416 LINE SMOOTH",
"333 416 OFFCURVE",
"381 381 OFFCURVE",
"385 309 CURVE"
);
}
);
width = 537;
}
);
leftKerningGroup = c;
note = edieresis;
rightKerningGroup = e;
unicode = 00EB;
},
{
glyphname = igrave;
lastChange = "2019-04-11 11:13:44 +0000";
layers = (
{
layerId = "1EC54930-9952-4E85-BD3B-546E0FD37DE9";
paths = (
{
closed = 1;
nodes = (
"128 700 LINE",
"-1 700 LINE",
"95 556 LINE",
"166 556 LINE"
);
},
{
closed = 1;
nodes = (
"70 0 LINE",
"185 0 LINE",
"185 500 LINE",
"70 500 LINE"
);
}
);
width = 255;
}
);
leftKerningGroup = i;
note = igrave;
unicode = 00EC;
},
{
glyphname = iacute;
lastChange = "2019-04-11 11:13:44 +0000";
layers = (
{
layerId = "1EC54930-9952-4E85-BD3B-546E0FD37DE9";
paths = (
{
closed = 1;
nodes = (
"90 556 LINE",
"161 556 LINE",
"257 700 LINE",
"128 700 LINE"
);
},
{
closed = 1;
nodes = (
"70 0 LINE",
"185 0 LINE",
"185 500 LINE",
"70 500 LINE"
);
}
);
width = 255;
}
);
leftKerningGroup = i;
note = iacute;
unicode = 00ED;
},
{
glyphname = icircumflex;
lastChange = "2019-04-11 11:13:44 +0000";
layers = (
{
layerId = "1EC54930-9952-4E85-BD3B-546E0FD37DE9";
paths = (
{
closed = 1;
nodes = (
"226 556 LINE",
"301 556 LINE",
"193 700 LINE",
"58 700 LINE",
"-50 556 LINE",
"26 556 LINE",
"126 630 LINE"
);
},
{
closed = 1;
nodes = (
"70 0 LINE",
"185 0 LINE",
"185 500 LINE",
"70 500 LINE"
);
}
);
width = 255;
}
);
leftKerningGroup = i;
note = icircumflex;
unicode = 00EE;
},
{
glyphname = idieresis;
lastChange = "2019-04-11 11:13:44 +0000";
layers = (
{
layerId = "1EC54930-9952-4E85-BD3B-546E0FD37DE9";
paths = (
{
closed = 1;
nodes = (
"170 576 LINE",
"281 576 LINE",
"281 695 LINE",
"170 695 LINE"
);
},
{
closed = 1;
nodes = (
"-26 576 LINE",
"85 576 LINE",
"85 695 LINE",
"-26 695 LINE"
);
},
{
closed = 1;
nodes = (
"70 0 LINE",
"185 0 LINE",
"185 500 LINE",
"70 500 LINE"
);
}
);
width = 255;
}
);
leftKerningGroup = i;
note = idieresis;
unicode = 00EF;
},
{
glyphname = eth;
lastChange = "2019-04-11 11:13:44 +0000";
layers = (
{
layerId = "1EC54930-9952-4E85-BD3B-546E0FD37DE9";
paths = (
{
closed = 1;
nodes = (
"448 -10 OFFCURVE",
"527 130 OFFCURVE",
"527 292 CURVE SMOOTH",
"527 411 OFFCURVE",
"497 518 OFFCURVE",
"436 593 CURVE",
"495 633 LINE",
"443 705 LINE",
"367 654 LINE",
"316 686 OFFCURVE",
"253 700 OFFCURVE",
"174 700 CURVE",
"174 603 LINE",
"210 603 OFFCURVE",
"242 598 OFFCURVE",
"271 589 CURVE",
"231 562 LINE",
"282 489 LINE",
"353 537 LINE",
"378 509 OFFCURVE",
"394 473 OFFCURVE",
"401 429 CURVE",
"401 425 LINE",
"358 462 OFFCURVE",
"312 475 OFFCURVE",
"267 475 CURVE SMOOTH",
"127 475 OFFCURVE",
"41 371 OFFCURVE",
"41 241 CURVE SMOOTH",
"41 98 OFFCURVE",
"135 -10 OFFCURVE",
"282 -10 CURVE SMOOTH"
);
},
{
closed = 1;
nodes = (
"278 84 LINE SMOOTH",
"203 84 OFFCURVE",
"156 146 OFFCURVE",
"156 241 CURVE SMOOTH",
"156 325 OFFCURVE",
"204 381 OFFCURVE",
"277 381 CURVE SMOOTH",
"286 381 LINE SMOOTH",
"360 381 OFFCURVE",
"415 325 OFFCURVE",
"415 240 CURVE SMOOTH",
"415 146 OFFCURVE",
"361 84 OFFCURVE",
"287 84 CURVE SMOOTH"
);
}
);
width = 577;
}
);
leftKerningGroup = eth;
note = eth;
rightKerningGroup = eth;
unicode = 00F0;
},
{
glyphname = ntilde;
lastChange = "2019-04-11 11:13:44 +0000";
layers = (
{
layerId = "1EC54930-9952-4E85-BD3B-546E0FD37DE9";
paths = (
{
closed = 1;
nodes = (
"348 644 OFFCURVE",
"331 655 OFFCURVE",
"315 664 CURVE SMOOTH",
"295 675 LINE SMOOTH",
"273 688 OFFCURVE",
"249 701 OFFCURVE",
"215 701 CURVE SMOOTH",
"154 701 OFFCURVE",
"109 651 OFFCURVE",
"109 591 CURVE SMOOTH",
"109 565 LINE",
"193 565 LINE",
"193 595 OFFCURVE",
"209 611 OFFCURVE",
"227 611 CURVE SMOOTH",
"244 611 OFFCURVE",
"256 605 OFFCURVE",
"272 595 CURVE",
"293 583 LINE SMOOTH",
"322 567 OFFCURVE",
"348 555 OFFCURVE",
"376 555 CURVE SMOOTH",
"434 555 OFFCURVE",
"480 604 OFFCURVE",
"480 665 CURVE SMOOTH",
"480 691 LINE",
"395 691 LINE",
"395 661 OFFCURVE",
"382 644 OFFCURVE",
"364 644 CURVE SMOOTH"
);
},
{
closed = 1;
nodes = (
"185 279 LINE SMOOTH",
"185 360 OFFCURVE",
"241 416 OFFCURVE",
"305 416 CURVE SMOOTH",
"314 416 LINE SMOOTH",
"372 416 OFFCURVE",
"402 376 OFFCURVE",
"402 309 CURVE SMOOTH",
"402 0 LINE",
"517 0 LINE",
"517 326 LINE SMOOTH",
"517 434 OFFCURVE",
"458 510 OFFCURVE",
"340 510 CURVE SMOOTH",
"269 510 OFFCURVE",
"215 476 OFFCURVE",
"185 428 CURVE",
"185 500 LINE",
"70 500 LINE",
"70 0 LINE",
"185 0 LINE"
);
}
);
width = 582;
}
);
leftKerningGroup = m;
note = ntilde;
rightKerningGroup = h;
unicode = 00F1;
},
{
glyphname = ograve;
lastChange = "2019-04-11 11:13:44 +0000";
layers = (
{
layerId = "1EC54930-9952-4E85-BD3B-546E0FD37DE9";
paths = (
{
closed = 1;
nodes = (
"291 700 LINE",
"162 700 LINE",
"258 556 LINE",
"329 556 LINE"
);
},
{
closed = 1;
nodes = (
"429 -10 OFFCURVE",
"531 98 OFFCURVE",
"531 250 CURVE SMOOTH",
"531 402 OFFCURVE",
"429 510 OFFCURVE",
"285 510 CURVE SMOOTH",
"142 510 OFFCURVE",
"40 402 OFFCURVE",
"40 250 CURVE SMOOTH",
"40 98 OFFCURVE",
"142 -10 OFFCURVE",
"285 -10 CURVE SMOOTH"
);
},
{
closed = 1;
nodes = (
"281 84 LINE SMOOTH",
"207 84 OFFCURVE",
"155 145 OFFCURVE",
"155 250 CURVE SMOOTH",
"155 355 OFFCURVE",
"207 416 OFFCURVE",
"281 416 CURVE SMOOTH",
"290 416 LINE SMOOTH",
"364 416 OFFCURVE",
"415 355 OFFCURVE",
"415 250 CURVE SMOOTH",
"415 145 OFFCURVE",
"364 84 OFFCURVE",
"290 84 CURVE SMOOTH"
);
}
);
width = 571;
}
);
leftKerningGroup = c;
note = ograve;
rightKerningGroup = o;
unicode = 00F2;
},
{
glyphname = oacute;
lastChange = "2019-04-11 11:13:44 +0000";
layers = (
{
layerId = "1EC54930-9952-4E85-BD3B-546E0FD37DE9";
paths = (
{
closed = 1;
nodes = (
"242 556 LINE",
"313 556 LINE",
"409 700 LINE",
"280 700 LINE"
);
},
{
closed = 1;
nodes = (
"429 -10 OFFCURVE",
"531 98 OFFCURVE",
"531 250 CURVE SMOOTH",
"531 402 OFFCURVE",
"429 510 OFFCURVE",
"285 510 CURVE SMOOTH",
"142 510 OFFCURVE",
"40 402 OFFCURVE",
"40 250 CURVE SMOOTH",
"40 98 OFFCURVE",
"142 -10 OFFCURVE",
"285 -10 CURVE SMOOTH"
);
},
{
closed = 1;
nodes = (
"281 84 LINE SMOOTH",
"207 84 OFFCURVE",
"155 145 OFFCURVE",
"155 250 CURVE SMOOTH",
"155 355 OFFCURVE",
"207 416 OFFCURVE",
"281 416 CURVE SMOOTH",
"290 416 LINE SMOOTH",
"364 416 OFFCURVE",
"415 355 OFFCURVE",
"415 250 CURVE SMOOTH",
"415 145 OFFCURVE",
"364 84 OFFCURVE",
"290 84 CURVE SMOOTH"
);
}
);
width = 571;
}
);
leftKerningGroup = c;
note = oacute;
rightKerningGroup = o;
unicode = 00F3;
},
{
glyphname = ocircumflex;
lastChange = "2019-04-11 11:13:44 +0000";
layers = (
{
layerId = "1EC54930-9952-4E85-BD3B-546E0FD37DE9";
paths = (
{
closed = 1;
nodes = (
"385 556 LINE",
"460 556 LINE",
"352 700 LINE",
"217 700 LINE",
"109 556 LINE",
"185 556 LINE",
"285 630 LINE"
);
},
{
closed = 1;
nodes = (
"429 -10 OFFCURVE",
"531 98 OFFCURVE",
"531 250 CURVE SMOOTH",
"531 402 OFFCURVE",
"429 510 OFFCURVE",
"285 510 CURVE SMOOTH",
"142 510 OFFCURVE",
"40 402 OFFCURVE",
"40 250 CURVE SMOOTH",
"40 98 OFFCURVE",
"142 -10 OFFCURVE",
"285 -10 CURVE SMOOTH"
);
},
{
closed = 1;
nodes = (
"281 84 LINE SMOOTH",
"207 84 OFFCURVE",
"155 145 OFFCURVE",
"155 250 CURVE SMOOTH",
"155 355 OFFCURVE",
"207 416 OFFCURVE",
"281 416 CURVE SMOOTH",
"290 416 LINE SMOOTH",
"364 416 OFFCURVE",
"415 355 OFFCURVE",
"415 250 CURVE SMOOTH",
"415 145 OFFCURVE",
"364 84 OFFCURVE",
"290 84 CURVE SMOOTH"
);
}
);
width = 571;
}
);
leftKerningGroup = c;
note = ocircumflex;
rightKerningGroup = o;
unicode = 00F4;
},
{
glyphname = otilde;
lastChange = "2019-04-11 11:13:44 +0000";
layers = (
{
layerId = "1EC54930-9952-4E85-BD3B-546E0FD37DE9";
paths = (
{
closed = 1;
nodes = (
"345 644 OFFCURVE",
"328 655 OFFCURVE",
"312 664 CURVE SMOOTH",
"292 675 LINE SMOOTH",
"270 688 OFFCURVE",
"246 701 OFFCURVE",
"212 701 CURVE SMOOTH",
"151 701 OFFCURVE",
"106 651 OFFCURVE",
"106 591 CURVE SMOOTH",
"106 565 LINE",
"190 565 LINE",
"190 595 OFFCURVE",
"206 611 OFFCURVE",
"224 611 CURVE SMOOTH",
"241 611 OFFCURVE",
"253 605 OFFCURVE",
"269 595 CURVE",
"290 583 LINE SMOOTH",
"319 567 OFFCURVE",
"345 555 OFFCURVE",
"373 555 CURVE SMOOTH",
"431 555 OFFCURVE",
"477 604 OFFCURVE",
"477 665 CURVE SMOOTH",
"477 691 LINE",
"392 691 LINE",
"392 661 OFFCURVE",
"379 644 OFFCURVE",
"361 644 CURVE SMOOTH"
);
},
{
closed = 1;
nodes = (
"429 -10 OFFCURVE",
"531 98 OFFCURVE",
"531 250 CURVE SMOOTH",
"531 402 OFFCURVE",
"429 510 OFFCURVE",
"285 510 CURVE SMOOTH",
"142 510 OFFCURVE",
"40 402 OFFCURVE",
"40 250 CURVE SMOOTH",
"40 98 OFFCURVE",
"142 -10 OFFCURVE",
"285 -10 CURVE SMOOTH"
);
},
{
closed = 1;
nodes = (
"281 84 LINE SMOOTH",
"207 84 OFFCURVE",
"155 145 OFFCURVE",
"155 250 CURVE SMOOTH",
"155 355 OFFCURVE",
"207 416 OFFCURVE",
"281 416 CURVE SMOOTH",
"290 416 LINE SMOOTH",
"364 416 OFFCURVE",
"415 355 OFFCURVE",
"415 250 CURVE SMOOTH",
"415 145 OFFCURVE",
"364 84 OFFCURVE",
"290 84 CURVE SMOOTH"
);
}
);
width = 571;
}
);
leftKerningGroup = c;
note = otilde;
rightKerningGroup = o;
unicode = 00F5;
},
{
glyphname = odieresis;
lastChange = "2019-04-11 11:13:44 +0000";
layers = (
{
layerId = "1EC54930-9952-4E85-BD3B-546E0FD37DE9";
paths = (
{
closed = 1;
nodes = (
"328 576 LINE",
"439 576 LINE",
"439 695 LINE",
"328 695 LINE"
);
},
{
closed = 1;
nodes = (
"132 576 LINE",
"243 576 LINE",
"243 695 LINE",
"132 695 LINE"
);
},
{
closed = 1;
nodes = (
"429 -10 OFFCURVE",
"531 98 OFFCURVE",
"531 250 CURVE SMOOTH",
"531 402 OFFCURVE",
"429 510 OFFCURVE",
"285 510 CURVE SMOOTH",
"142 510 OFFCURVE",
"40 402 OFFCURVE",
"40 250 CURVE SMOOTH",
"40 98 OFFCURVE",
"142 -10 OFFCURVE",
"285 -10 CURVE SMOOTH"
);
},
{
closed = 1;
nodes = (
"281 84 LINE SMOOTH",
"207 84 OFFCURVE",
"155 145 OFFCURVE",
"155 250 CURVE SMOOTH",
"155 355 OFFCURVE",
"207 416 OFFCURVE",
"281 416 CURVE SMOOTH",
"290 416 LINE SMOOTH",
"364 416 OFFCURVE",
"415 355 OFFCURVE",
"415 250 CURVE SMOOTH",
"415 145 OFFCURVE",
"364 84 OFFCURVE",
"290 84 CURVE SMOOTH"
);
}
);
width = 571;
}
);
leftKerningGroup = c;
note = odieresis;
rightKerningGroup = o;
unicode = 00F6;
},
{
glyphname = divide;
lastChange = "2019-04-11 11:13:44 +0000";
layers = (
{
layerId = "1EC54930-9952-4E85-BD3B-546E0FD37DE9";
paths = (
{
closed = 1;
nodes = (
"237 364 LINE",
"362 364 LINE",
"362 491 LINE",
"237 491 LINE"
);
},
{
closed = 1;
nodes = (
"52 206 LINE",
"546 206 LINE",
"546 309 LINE",
"52 309 LINE"
);
},
{
closed = 1;
nodes = (
"237 24 LINE",
"362 24 LINE",
"362 151 LINE",
"237 151 LINE"
);
}
);
width = 598;
}
);
note = divide;
unicode = 00F7;
},
{
glyphname = oslash;
lastChange = "2019-04-11 11:13:44 +0000";
layers = (
{
layerId = "1EC54930-9952-4E85-BD3B-546E0FD37DE9";
paths = (
{
closed = 1;
nodes = (
"157 355 OFFCURVE",
"209 416 OFFCURVE",
"283 416 CURVE SMOOTH",
"292 416 LINE SMOOTH",
"311 416 OFFCURVE",
"329 412 OFFCURVE",
"344 404 CURVE",
"168 174 LINE",
"161 196 OFFCURVE",
"157 221 OFFCURVE",
"157 250 CURVE SMOOTH"
);
},
{
closed = 1;
nodes = (
"283 84 LINE SMOOTH",
"263 84 OFFCURVE",
"246 88 OFFCURVE",
"230 96 CURVE",
"406 326 LINE",
"413 304 OFFCURVE",
"417 279 OFFCURVE",
"417 250 CURVE SMOOTH",
"417 145 OFFCURVE",
"366 84 OFFCURVE",
"292 84 CURVE SMOOTH"
);
},
{
closed = 1;
nodes = (
"431 -10 OFFCURVE",
"533 98 OFFCURVE",
"533 250 CURVE SMOOTH",
"533 317 OFFCURVE",
"513 376 OFFCURVE",
"479 420 CURVE",
"531 488 LINE",
"452 545 LINE",
"404 482 LINE",
"370 500 OFFCURVE",
"330 510 OFFCURVE",
"287 510 CURVE SMOOTH",
"144 510 OFFCURVE",
"42 402 OFFCURVE",
"42 250 CURVE SMOOTH",
"42 183 OFFCURVE",
"62 125 OFFCURVE",
"96 80 CURVE",
"46 15 LINE",
"120 -46 LINE",
"169 18 LINE",
"204 0 OFFCURVE",
"243 -10 OFFCURVE",
"287 -10 CURVE SMOOTH"
);
}
);
width = 574;
}
);
leftKerningGroup = c;
note = oslash;
rightKerningGroup = o;
unicode = 00F8;
},
{
glyphname = ugrave;
lastChange = "2019-04-11 11:13:44 +0000";
layers = (
{
layerId = "1EC54930-9952-4E85-BD3B-546E0FD37DE9";
paths = (
{
closed = 1;
nodes = (
"287 700 LINE",
"158 700 LINE",
"254 556 LINE",
"325 556 LINE"
);
},
{
closed = 1;
nodes = (
"501 500 LINE",
"386 500 LINE",
"386 225 LINE SMOOTH",
"386 143 OFFCURVE",
"334 84 OFFCURVE",
"274 84 CURVE SMOOTH",
"265 84 LINE SMOOTH",
"210 84 OFFCURVE",
"180 121 OFFCURVE",
"180 193 CURVE SMOOTH",
"180 500 LINE",
"65 500 LINE",
"65 176 LINE SMOOTH",
"65 68 OFFCURVE",
"120 -10 OFFCURVE",
"234 -10 CURVE SMOOTH",
"308 -10 OFFCURVE",
"361 30 OFFCURVE",
"386 82 CURVE",
"386 0 LINE",
"501 0 LINE"
);
}
);
width = 571;
}
);
leftKerningGroup = u;
note = ugrave;
rightKerningGroup = g;
unicode = 00F9;
},
{
glyphname = uacute;
lastChange = "2019-04-11 11:13:44 +0000";
layers = (
{
layerId = "1EC54930-9952-4E85-BD3B-546E0FD37DE9";
paths = (
{
closed = 1;
nodes = (
"241 556 LINE",
"312 556 LINE",
"408 700 LINE",
"279 700 LINE"
);
},
{
closed = 1;
nodes = (
"501 500 LINE",
"386 500 LINE",
"386 225 LINE SMOOTH",
"386 143 OFFCURVE",
"334 84 OFFCURVE",
"274 84 CURVE SMOOTH",
"265 84 LINE SMOOTH",
"210 84 OFFCURVE",
"180 121 OFFCURVE",
"180 193 CURVE SMOOTH",
"180 500 LINE",
"65 500 LINE",
"65 176 LINE SMOOTH",
"65 68 OFFCURVE",
"120 -10 OFFCURVE",
"234 -10 CURVE SMOOTH",
"308 -10 OFFCURVE",
"361 30 OFFCURVE",
"386 82 CURVE",
"386 0 LINE",
"501 0 LINE"
);
}
);
width = 571;
}
);
leftKerningGroup = u;
note = uacute;
rightKerningGroup = g;
unicode = 00FA;
},
{
glyphname = ucircumflex;
lastChange = "2019-04-11 11:13:44 +0000";
layers = (
{
layerId = "1EC54930-9952-4E85-BD3B-546E0FD37DE9";
paths = (
{
closed = 1;
nodes = (
"382 556 LINE",
"457 556 LINE",
"349 700 LINE",
"214 700 LINE",
"106 556 LINE",
"182 556 LINE",
"282 630 LINE"
);
},
{
closed = 1;
nodes = (
"501 500 LINE",
"386 500 LINE",
"386 225 LINE SMOOTH",
"386 143 OFFCURVE",
"334 84 OFFCURVE",
"274 84 CURVE SMOOTH",
"265 84 LINE SMOOTH",
"210 84 OFFCURVE",
"180 121 OFFCURVE",
"180 193 CURVE SMOOTH",
"180 500 LINE",
"65 500 LINE",
"65 176 LINE SMOOTH",
"65 68 OFFCURVE",
"120 -10 OFFCURVE",
"234 -10 CURVE SMOOTH",
"308 -10 OFFCURVE",
"361 30 OFFCURVE",
"386 82 CURVE",
"386 0 LINE",
"501 0 LINE"
);
}
);
width = 571;
}
);
leftKerningGroup = u;
note = ucircumflex;
rightKerningGroup = g;
unicode = 00FB;
},
{
glyphname = udieresis;
lastChange = "2019-04-11 11:13:44 +0000";
layers = (
{
layerId = "1EC54930-9952-4E85-BD3B-546E0FD37DE9";
paths = (
{
closed = 1;
nodes = (
"324 576 LINE",
"435 576 LINE",
"435 695 LINE",
"324 695 LINE"
);
},
{
closed = 1;
nodes = (
"128 576 LINE",
"239 576 LINE",
"239 695 LINE",
"128 695 LINE"
);
},
{
closed = 1;
nodes = (
"501 500 LINE",
"386 500 LINE",
"386 225 LINE SMOOTH",
"386 143 OFFCURVE",
"334 84 OFFCURVE",
"274 84 CURVE SMOOTH",
"265 84 LINE SMOOTH",
"210 84 OFFCURVE",
"180 121 OFFCURVE",
"180 193 CURVE SMOOTH",
"180 500 LINE",
"65 500 LINE",
"65 176 LINE SMOOTH",
"65 68 OFFCURVE",
"120 -10 OFFCURVE",
"234 -10 CURVE SMOOTH",
"308 -10 OFFCURVE",
"361 30 OFFCURVE",
"386 82 CURVE",
"386 0 LINE",
"501 0 LINE"
);
}
);
width = 571;
}
);
leftKerningGroup = u;
note = udieresis;
rightKerningGroup = g;
unicode = 00FC;
},
{
glyphname = yacute;
lastChange = "2019-04-11 11:13:44 +0000";
layers = (
{
layerId = "1EC54930-9952-4E85-BD3B-546E0FD37DE9";
paths = (
{
closed = 1;
nodes = (
"239 556 LINE",
"310 556 LINE",
"406 700 LINE",
"277 700 LINE"
);
},
{
closed = 1;
nodes = (
"221 -195 LINE SMOOTH",
"299 -195 OFFCURVE",
"340 -154 OFFCURVE",
"340 -75 CURVE SMOOTH",
"340 30 LINE",
"550 500 LINE",
"425 500 LINE",
"286 168 LINE",
"143 500 LINE",
"16 500 LINE",
"231 25 LINE",
"231 -46 LINE SMOOTH",
"231 -84 OFFCURVE",
"221 -94 OFFCURVE",
"182 -94 CURVE SMOOTH",
"46 -94 LINE",
"46 -195 LINE"
);
}
);
width = 557;
}
);
leftKerningGroup = y;
note = yacute;
rightKerningGroup = y;
unicode = 00FD;
},
{
glyphname = thorn;
lastChange = "2019-04-11 11:13:44 +0000";
layers = (
{
layerId = "1EC54930-9952-4E85-BD3B-546E0FD37DE9";
paths = (
{
closed = 1;
nodes = (
"319 416 LINE SMOOTH",
"389 416 OFFCURVE",
"442 355 OFFCURVE",
"442 249 CURVE SMOOTH",
"442 144 OFFCURVE",
"389 84 OFFCURVE",
"319 84 CURVE SMOOTH",
"311 84 LINE SMOOTH",
"246 84 OFFCURVE",
"185 144 OFFCURVE",
"185 250 CURVE SMOOTH",
"185 356 OFFCURVE",
"246 416 OFFCURVE",
"311 416 CURVE SMOOTH"
);
},
{
closed = 1;
nodes = (
"185 67 LINE",
"208 28 OFFCURVE",
"264 -10 OFFCURVE",
"334 -10 CURVE SMOOTH",
"471 -10 OFFCURVE",
"557 102 OFFCURVE",
"557 250 CURVE SMOOTH",
"557 398 OFFCURVE",
"475 510 OFFCURVE",
"338 510 CURVE SMOOTH",
"268 510 OFFCURVE",
"208 472 OFFCURVE",
"185 433 CURVE",
"185 700 LINE",
"70 700 LINE",
"70 -200 LINE",
"185 -200 LINE"
);
}
);
width = 598;
}
);
leftKerningGroup = b;
note = thorn;
rightKerningGroup = b;
unicode = 00FE;
},
{
glyphname = ydieresis;
lastChange = "2019-04-11 11:13:44 +0000";
layers = (
{
layerId = "1EC54930-9952-4E85-BD3B-546E0FD37DE9";
paths = (
{
closed = 1;
nodes = (
"323 576 LINE",
"434 576 LINE",
"434 695 LINE",
"323 695 LINE"
);
},
{
closed = 1;
nodes = (
"127 576 LINE",
"238 576 LINE",
"238 695 LINE",
"127 695 LINE"
);
},
{
closed = 1;
nodes = (
"221 -195 LINE SMOOTH",
"299 -195 OFFCURVE",
"340 -154 OFFCURVE",
"340 -75 CURVE SMOOTH",
"340 30 LINE",
"550 500 LINE",
"425 500 LINE",
"286 168 LINE",
"143 500 LINE",
"16 500 LINE",
"231 25 LINE",
"231 -46 LINE SMOOTH",
"231 -84 OFFCURVE",
"221 -94 OFFCURVE",
"182 -94 CURVE SMOOTH",
"46 -94 LINE",
"46 -195 LINE"
);
}
);
width = 557;
}
);
leftKerningGroup = y;
note = ydieresis;
rightKerningGroup = y;
unicode = 00FF;
},
{
glyphname = Amacron;
lastChange = "2019-04-11 11:13:44 +0000";
layers = (
{
layerId = "1EC54930-9952-4E85-BD3B-546E0FD37DE9";
paths = (
{
closed = 1;
nodes = (
"194 771 LINE",
"512 771 LINE",
"512 866 LINE",
"194 866 LINE"
);
},
{
closed = 1;
nodes = (
"465 279 LINE",
"237 279 LINE",
"351 575 LINE"
);
},
{
closed = 1;
nodes = (
"5 0 LINE",
"130 0 LINE",
"196 171 LINE",
"507 171 LINE",
"573 0 LINE",
"699 0 LINE",
"427 700 LINE",
"282 700 LINE"
);
}
);
width = 706;
}
);
leftKerningGroup = A;
note = Amacron;
rightKerningGroup = A;
unicode = 0100;
},
{
glyphname = amacron;
lastChange = "2019-04-11 11:13:44 +0000";
layers = (
{
layerId = "1EC54930-9952-4E85-BD3B-546E0FD37DE9";
paths = (
{
closed = 1;
nodes = (
"114 576 LINE",
"410 576 LINE",
"410 668 LINE",
"114 668 LINE"
);
},
{
closed = 1;
nodes = (
"222 84 LINE SMOOTH",
"181 84 OFFCURVE",
"151 109 OFFCURVE",
"151 144 CURVE SMOOTH",
"151 187 OFFCURVE",
"192 209 OFFCURVE",
"236 213 CURVE SMOOTH",
"351 223 LINE",
"351 194 LINE SMOOTH",
"351 131 OFFCURVE",
"289 84 OFFCURVE",
"229 84 CURVE SMOOTH"
);
},
{
closed = 1;
nodes = (
"356 54 OFFCURVE",
"357 19 OFFCURVE",
"361 0 CURVE",
"469 0 LINE",
"464 35 OFFCURVE",
"464 80 OFFCURVE",
"464 110 CURVE SMOOTH",
"464 326 LINE SMOOTH",
"464 436 OFFCURVE",
"385 510 OFFCURVE",
"257 510 CURVE SMOOTH",
"137 510 OFFCURVE",
"56 442 OFFCURVE",
"48 349 CURVE",
"163 349 LINE",
"167 387 OFFCURVE",
"203 416 OFFCURVE",
"254 416 CURVE SMOOTH",
"260 416 LINE SMOOTH",
"316 416 OFFCURVE",
"351 379 OFFCURVE",
"351 323 CURVE SMOOTH",
"351 309 LINE",
"220 298 LINE SMOOTH",
"129 291 OFFCURVE",
"38 248 OFFCURVE",
"38 137 CURVE SMOOTH",
"38 50 OFFCURVE",
"110 -10 OFFCURVE",
"202 -10 CURVE SMOOTH",
"273 -10 OFFCURVE",
"329 25 OFFCURVE",
"355 69 CURVE"
);
}
);
width = 530;
}
);
leftKerningGroup = a;
note = amacron;
rightKerningGroup = a;
unicode = 0101;
},
{
glyphname = Abreve;
lastChange = "2019-04-11 11:13:44 +0000";
layers = (
{
layerId = "1EC54930-9952-4E85-BD3B-546E0FD37DE9";
paths = (
{
closed = 1;
nodes = (
"319 829 OFFCURVE",
"286 847 OFFCURVE",
"284 890 CURVE",
"189 890 LINE",
"190 799 OFFCURVE",
"259 744 OFFCURVE",
"352 744 CURVE SMOOTH",
"446 744 OFFCURVE",
"515 799 OFFCURVE",
"516 890 CURVE",
"421 890 LINE",
"418 847 OFFCURVE",
"386 829 OFFCURVE",
"352 829 CURVE SMOOTH"
);
},
{
closed = 1;
nodes = (
"465 279 LINE",
"237 279 LINE",
"351 575 LINE"
);
},
{
closed = 1;
nodes = (
"5 0 LINE",
"130 0 LINE",
"196 171 LINE",
"507 171 LINE",
"573 0 LINE",
"699 0 LINE",
"427 700 LINE",
"282 700 LINE"
);
}
);
width = 706;
}
);
leftKerningGroup = A;
note = Abreve;
rightKerningGroup = A;
unicode = 0102;
},
{
glyphname = abreve;
lastChange = "2019-04-11 11:13:44 +0000";
layers = (
{
layerId = "1EC54930-9952-4E85-BD3B-546E0FD37DE9";
paths = (
{
closed = 1;
nodes = (
"347 546 OFFCURVE",
"417 603 OFFCURVE",
"421 700 CURVE",
"328 700 LINE",
"325 652 OFFCURVE",
"298 629 OFFCURVE",
"259 629 CURVE SMOOTH",
"221 629 OFFCURVE",
"194 652 OFFCURVE",
"191 700 CURVE",
"98 700 LINE",
"101 603 OFFCURVE",
"169 546 OFFCURVE",
"259 546 CURVE SMOOTH"
);
},
{
closed = 1;
nodes = (
"222 84 LINE SMOOTH",
"181 84 OFFCURVE",
"151 109 OFFCURVE",
"151 144 CURVE SMOOTH",
"151 187 OFFCURVE",
"192 209 OFFCURVE",
"236 213 CURVE SMOOTH",
"351 223 LINE",
"351 194 LINE SMOOTH",
"351 131 OFFCURVE",
"289 84 OFFCURVE",
"229 84 CURVE SMOOTH"
);
},
{
closed = 1;
nodes = (
"356 54 OFFCURVE",
"357 19 OFFCURVE",
"361 0 CURVE",
"469 0 LINE",
"464 35 OFFCURVE",
"464 80 OFFCURVE",
"464 110 CURVE SMOOTH",
"464 326 LINE SMOOTH",
"464 436 OFFCURVE",
"385 510 OFFCURVE",
"257 510 CURVE SMOOTH",
"137 510 OFFCURVE",
"56 442 OFFCURVE",
"48 349 CURVE",
"163 349 LINE",
"167 387 OFFCURVE",
"203 416 OFFCURVE",
"254 416 CURVE SMOOTH",
"260 416 LINE SMOOTH",
"316 416 OFFCURVE",
"351 379 OFFCURVE",
"351 323 CURVE SMOOTH",
"351 309 LINE",
"220 298 LINE SMOOTH",
"129 291 OFFCURVE",
"38 248 OFFCURVE",
"38 137 CURVE SMOOTH",
"38 50 OFFCURVE",
"110 -10 OFFCURVE",
"202 -10 CURVE SMOOTH",
"273 -10 OFFCURVE",
"329 25 OFFCURVE",
"355 69 CURVE"
);
}
);
width = 530;
}
);
leftKerningGroup = a;
note = abreve;
rightKerningGroup = a;
unicode = 0103;
},
{
glyphname = Aogonek;
lastChange = "2019-04-11 11:13:44 +0000";
layers = (
{
layerId = "1EC54930-9952-4E85-BD3B-546E0FD37DE9";
paths = (
{
closed = 1;
nodes = (
"697 -214 LINE",
"697 -140 LINE",
"673 -140 LINE SMOOTH",
"644 -140 OFFCURVE",
"617 -128 OFFCURVE",
"617 -94 CURVE SMOOTH",
"617 -53 OFFCURVE",
"662 -22 OFFCURVE",
"699 0 CURVE",
"427 700 LINE",
"282 700 LINE",
"5 0 LINE",
"130 0 LINE",
"196 171 LINE",
"507 171 LINE",
"573 0 LINE",
"618 0 LINE",
"626 5 OFFCURVE",
"635 9 OFFCURVE",
"643 13 CURVE",
"699 0 LINE",
"618 0 LINE",
"579 -23 OFFCURVE",
"538 -61 OFFCURVE",
"538 -120 CURVE SMOOTH",
"538 -173 OFFCURVE",
"583 -214 OFFCURVE",
"654 -214 CURVE SMOOTH"
);
},
{
closed = 1;
nodes = (
"465 279 LINE",
"237 279 LINE",
"351 575 LINE"
);
}
);
width = 706;
}
);
leftKerningGroup = A;
note = Aogonek;
rightKerningGroup = A;
unicode = 0104;
},
{
glyphname = aogonek;
lastChange = "2019-04-11 11:13:44 +0000";
layers = (
{
layerId = "1EC54930-9952-4E85-BD3B-546E0FD37DE9";
paths = (
{
closed = 1;
nodes = (
"222 84 LINE SMOOTH",
"181 84 OFFCURVE",
"151 109 OFFCURVE",
"151 144 CURVE SMOOTH",
"151 187 OFFCURVE",
"192 209 OFFCURVE",
"236 213 CURVE SMOOTH",
"351 223 LINE",
"351 194 LINE SMOOTH",
"351 131 OFFCURVE",
"289 84 OFFCURVE",
"229 84 CURVE SMOOTH"
);
},
{
closed = 1;
nodes = (
"467 -140 LINE",
"443 -140 LINE SMOOTH",
"414 -140 OFFCURVE",
"387 -128 OFFCURVE",
"387 -94 CURVE SMOOTH",
"387 -53 OFFCURVE",
"432 -22 OFFCURVE",
"469 0 CURVE",
"464 35 OFFCURVE",
"464 80 OFFCURVE",
"464 110 CURVE SMOOTH",
"464 326 LINE SMOOTH",
"464 436 OFFCURVE",
"385 510 OFFCURVE",
"257 510 CURVE SMOOTH",
"137 510 OFFCURVE",
"56 442 OFFCURVE",
"48 349 CURVE",
"163 349 LINE",
"167 387 OFFCURVE",
"203 416 OFFCURVE",
"254 416 CURVE SMOOTH",
"260 416 LINE SMOOTH",
"316 416 OFFCURVE",
"351 379 OFFCURVE",
"351 323 CURVE SMOOTH",
"351 309 LINE",
"220 298 LINE SMOOTH",
"129 291 OFFCURVE",
"38 248 OFFCURVE",
"38 137 CURVE SMOOTH",
"38 50 OFFCURVE",
"110 -10 OFFCURVE",
"202 -10 CURVE SMOOTH",
"273 -10 OFFCURVE",
"329 25 OFFCURVE",
"355 69 CURVE",
"356 54 OFFCURVE",
"357 19 OFFCURVE",
"361 0 CURVE",
"388 0 LINE",
"349 -23 OFFCURVE",
"308 -61 OFFCURVE",
"308 -120 CURVE SMOOTH",
"308 -173 OFFCURVE",
"353 -214 OFFCURVE",
"424 -214 CURVE SMOOTH",
"467 -214 LINE"
);
}
);
width = 530;
}
);
leftKerningGroup = a;
note = aogonek;
rightKerningGroup = a;
unicode = 0105;
},
{
glyphname = Cacute;
lastChange = "2019-04-11 11:13:44 +0000";
layers = (
{
layerId = "1EC54930-9952-4E85-BD3B-546E0FD37DE9";
paths = (
{
closed = 1;
nodes = (
"339 751 LINE",
"421 751 LINE",
"520 890 LINE",
"382 890 LINE"
);
},
{
closed = 1;
nodes = (
"547 226 LINE",
"535 143 OFFCURVE",
"471 97 OFFCURVE",
"384 97 CURVE SMOOTH",
"374 97 LINE SMOOTH",
"246 97 OFFCURVE",
"166 200 OFFCURVE",
"166 350 CURVE SMOOTH",
"166 500 OFFCURVE",
"246 603 OFFCURVE",
"374 603 CURVE SMOOTH",
"384 603 LINE SMOOTH",
"471 603 OFFCURVE",
"535 556 OFFCURVE",
"547 474 CURVE",
"667 474 LINE",
"658 611 OFFCURVE",
"549 710 OFFCURVE",
"379 710 CURVE SMOOTH",
"168 710 OFFCURVE",
"46 561 OFFCURVE",
"46 350 CURVE SMOOTH",
"46 139 OFFCURVE",
"168 -10 OFFCURVE",
"379 -10 CURVE SMOOTH",
"549 -10 OFFCURVE",
"658 87 OFFCURVE",
"667 226 CURVE"
);
}
);
width = 708;
}
);
leftKerningGroup = C;
note = Cacute;
rightKerningGroup = C;
unicode = 0106;
},
{
glyphname = cacute;
lastChange = "2019-04-11 11:13:44 +0000";
layers = (
{
layerId = "1EC54930-9952-4E85-BD3B-546E0FD37DE9";
paths = (
{
closed = 1;
nodes = (
"241 556 LINE",
"312 556 LINE",
"408 700 LINE",
"279 700 LINE"
);
},
{
closed = 1;
nodes = (
"382 171 LINE",
"374 119 OFFCURVE",
"340 84 OFFCURVE",
"284 84 CURVE SMOOTH",
"277 84 LINE SMOOTH",
"193 84 OFFCURVE",
"156 161 OFFCURVE",
"156 250 CURVE SMOOTH",
"156 339 OFFCURVE",
"193 416 OFFCURVE",
"277 416 CURVE SMOOTH",
"284 416 LINE SMOOTH",
"340 416 OFFCURVE",
"374 381 OFFCURVE",
"382 329 CURVE",
"497 329 LINE",
"487 447 OFFCURVE",
"404 510 OFFCURVE",
"281 510 CURVE SMOOTH",
"137 510 OFFCURVE",
"41 404 OFFCURVE",
"41 250 CURVE SMOOTH",
"41 96 OFFCURVE",
"137 -10 OFFCURVE",
"281 -10 CURVE SMOOTH",
"404 -10 OFFCURVE",
"487 53 OFFCURVE",
"497 171 CURVE"
);
}
);
width = 534;
}
);
leftKerningGroup = c;
note = cacute;
rightKerningGroup = c;
unicode = 0107;
},
{
glyphname = Ccircumflex;
lastChange = "2019-04-11 11:13:44 +0000";
layers = (
{
layerId = "1EC54930-9952-4E85-BD3B-546E0FD37DE9";
paths = (
{
closed = 1;
nodes = (
"296 751 LINE",
"380 814 LINE",
"463 751 LINE",
"561 751 LINE",
"445 890 LINE",
"314 890 LINE",
"199 751 LINE"
);
},
{
closed = 1;
nodes = (
"547 226 LINE",
"535 143 OFFCURVE",
"471 97 OFFCURVE",
"384 97 CURVE SMOOTH",
"374 97 LINE SMOOTH",
"246 97 OFFCURVE",
"166 200 OFFCURVE",
"166 350 CURVE SMOOTH",
"166 500 OFFCURVE",
"246 603 OFFCURVE",
"374 603 CURVE SMOOTH",
"384 603 LINE SMOOTH",
"471 603 OFFCURVE",
"535 556 OFFCURVE",
"547 474 CURVE",
"667 474 LINE",
"658 611 OFFCURVE",
"549 710 OFFCURVE",
"379 710 CURVE SMOOTH",
"168 710 OFFCURVE",
"46 561 OFFCURVE",
"46 350 CURVE SMOOTH",
"46 139 OFFCURVE",
"168 -10 OFFCURVE",
"379 -10 CURVE SMOOTH",
"549 -10 OFFCURVE",
"658 87 OFFCURVE",
"667 226 CURVE"
);
}
);
width = 708;
}
);
leftKerningGroup = C;
note = Ccircumflex;
rightKerningGroup = C;
unicode = 0108;
},
{
glyphname = ccircumflex;
lastChange = "2019-04-11 11:13:44 +0000";
layers = (
{
layerId = "1EC54930-9952-4E85-BD3B-546E0FD37DE9";
paths = (
{
closed = 1;
nodes = (
"381 556 LINE",
"456 556 LINE",
"348 700 LINE",
"213 700 LINE",
"105 556 LINE",
"181 556 LINE",
"281 630 LINE"
);
},
{
closed = 1;
nodes = (
"382 171 LINE",
"374 119 OFFCURVE",
"340 84 OFFCURVE",
"284 84 CURVE SMOOTH",
"277 84 LINE SMOOTH",
"193 84 OFFCURVE",
"156 161 OFFCURVE",
"156 250 CURVE SMOOTH",
"156 339 OFFCURVE",
"193 416 OFFCURVE",
"277 416 CURVE SMOOTH",
"284 416 LINE SMOOTH",
"340 416 OFFCURVE",
"374 381 OFFCURVE",
"382 329 CURVE",
"497 329 LINE",
"487 447 OFFCURVE",
"404 510 OFFCURVE",
"281 510 CURVE SMOOTH",
"137 510 OFFCURVE",
"41 404 OFFCURVE",
"41 250 CURVE SMOOTH",
"41 96 OFFCURVE",
"137 -10 OFFCURVE",
"281 -10 CURVE SMOOTH",
"404 -10 OFFCURVE",
"487 53 OFFCURVE",
"497 171 CURVE"
);
}
);
width = 534;
}
);
leftKerningGroup = c;
note = ccircumflex;
rightKerningGroup = c;
unicode = 0109;
},
{
glyphname = Cdotaccent;
lastChange = "2019-04-11 11:13:44 +0000";
layers = (
{
layerId = "1EC54930-9952-4E85-BD3B-546E0FD37DE9";
paths = (
{
closed = 1;
nodes = (
"325 772 LINE",
"450 772 LINE",
"450 896 LINE",
"325 896 LINE"
);
},
{
closed = 1;
nodes = (
"547 226 LINE",
"535 143 OFFCURVE",
"471 97 OFFCURVE",
"384 97 CURVE SMOOTH",
"374 97 LINE SMOOTH",
"246 97 OFFCURVE",
"166 200 OFFCURVE",
"166 350 CURVE SMOOTH",
"166 500 OFFCURVE",
"246 603 OFFCURVE",
"374 603 CURVE SMOOTH",
"384 603 LINE SMOOTH",
"471 603 OFFCURVE",
"535 556 OFFCURVE",
"547 474 CURVE",
"667 474 LINE",
"658 611 OFFCURVE",
"549 710 OFFCURVE",
"379 710 CURVE SMOOTH",
"168 710 OFFCURVE",
"46 561 OFFCURVE",
"46 350 CURVE SMOOTH",
"46 139 OFFCURVE",
"168 -10 OFFCURVE",
"379 -10 CURVE SMOOTH",
"549 -10 OFFCURVE",
"658 87 OFFCURVE",
"667 226 CURVE"
);
}
);
width = 708;
}
);
leftKerningGroup = C;
note = Cdotaccent;
rightKerningGroup = C;
unicode = 010A;
},
{
glyphname = cdotaccent;
lastChange = "2019-04-11 11:13:44 +0000";
layers = (
{
layerId = "1EC54930-9952-4E85-BD3B-546E0FD37DE9";
paths = (
{
closed = 1;
nodes = (
"222 576 LINE",
"347 576 LINE",
"347 700 LINE",
"222 700 LINE"
);
},
{
closed = 1;
nodes = (
"382 171 LINE",
"374 119 OFFCURVE",
"340 84 OFFCURVE",
"284 84 CURVE SMOOTH",
"277 84 LINE SMOOTH",
"193 84 OFFCURVE",
"156 161 OFFCURVE",
"156 250 CURVE SMOOTH",
"156 339 OFFCURVE",
"193 416 OFFCURVE",
"277 416 CURVE SMOOTH",
"284 416 LINE SMOOTH",
"340 416 OFFCURVE",
"374 381 OFFCURVE",
"382 329 CURVE",
"497 329 LINE",
"487 447 OFFCURVE",
"404 510 OFFCURVE",
"281 510 CURVE SMOOTH",
"137 510 OFFCURVE",
"41 404 OFFCURVE",
"41 250 CURVE SMOOTH",
"41 96 OFFCURVE",
"137 -10 OFFCURVE",
"281 -10 CURVE SMOOTH",
"404 -10 OFFCURVE",
"487 53 OFFCURVE",
"497 171 CURVE"
);
}
);
width = 534;
}
);
leftKerningGroup = c;
note = cdotaccent;
rightKerningGroup = c;
unicode = 010B;
},
{
glyphname = Ccaron;
lastChange = "2019-04-11 11:13:44 +0000";
layers = (
{
layerId = "1EC54930-9952-4E85-BD3B-546E0FD37DE9";
paths = (
{
closed = 1;
nodes = (
"205 890 LINE",
"320 751 LINE",
"451 751 LINE",
"567 890 LINE",
"469 890 LINE",
"386 827 LINE",
"302 890 LINE"
);
},
{
closed = 1;
nodes = (
"547 226 LINE",
"535 143 OFFCURVE",
"471 97 OFFCURVE",
"384 97 CURVE SMOOTH",
"374 97 LINE SMOOTH",
"246 97 OFFCURVE",
"166 200 OFFCURVE",
"166 350 CURVE SMOOTH",
"166 500 OFFCURVE",
"246 603 OFFCURVE",
"374 603 CURVE SMOOTH",
"384 603 LINE SMOOTH",
"471 603 OFFCURVE",
"535 556 OFFCURVE",
"547 474 CURVE",
"667 474 LINE",
"658 611 OFFCURVE",
"549 710 OFFCURVE",
"379 710 CURVE SMOOTH",
"168 710 OFFCURVE",
"46 561 OFFCURVE",
"46 350 CURVE SMOOTH",
"46 139 OFFCURVE",
"168 -10 OFFCURVE",
"379 -10 CURVE SMOOTH",
"549 -10 OFFCURVE",
"658 87 OFFCURVE",
"667 226 CURVE"
);
}
);
width = 708;
}
);
leftKerningGroup = C;
note = Ccaron;
rightKerningGroup = C;
unicode = 010C;
},
{
glyphname = ccaron;
lastChange = "2019-04-11 11:13:44 +0000";
layers = (
{
layerId = "1EC54930-9952-4E85-BD3B-546E0FD37DE9";
paths = (
{
closed = 1;
nodes = (
"217 556 LINE",
"352 556 LINE",
"460 700 LINE",
"385 700 LINE",
"285 626 LINE",
"185 700 LINE",
"109 700 LINE"
);
},
{
closed = 1;
nodes = (
"382 171 LINE",
"374 119 OFFCURVE",
"340 84 OFFCURVE",
"284 84 CURVE SMOOTH",
"277 84 LINE SMOOTH",
"193 84 OFFCURVE",
"156 161 OFFCURVE",
"156 250 CURVE SMOOTH",
"156 339 OFFCURVE",
"193 416 OFFCURVE",
"277 416 CURVE SMOOTH",
"284 416 LINE SMOOTH",
"340 416 OFFCURVE",
"374 381 OFFCURVE",
"382 329 CURVE",
"497 329 LINE",
"487 447 OFFCURVE",
"404 510 OFFCURVE",
"281 510 CURVE SMOOTH",
"137 510 OFFCURVE",
"41 404 OFFCURVE",
"41 250 CURVE SMOOTH",
"41 96 OFFCURVE",
"137 -10 OFFCURVE",
"281 -10 CURVE SMOOTH",
"404 -10 OFFCURVE",
"487 53 OFFCURVE",
"497 171 CURVE"
);
}
);
width = 534;
}
);
leftKerningGroup = c;
note = ccaron;
rightKerningGroup = c;
unicode = 010D;
},
{
glyphname = Dcaron;
lastChange = "2019-04-11 11:13:44 +0000";
layers = (
{
layerId = "1EC54930-9952-4E85-BD3B-546E0FD37DE9";
paths = (
{
closed = 1;
nodes = (
"150 890 LINE",
"265 751 LINE",
"396 751 LINE",
"512 890 LINE",
"414 890 LINE",
"331 827 LINE",
"247 890 LINE"
);
},
{
closed = 1;
nodes = (
"86 0 LINE",
"334 0 LINE SMOOTH",
"537 0 OFFCURVE",
"673 124 OFFCURVE",
"673 350 CURVE SMOOTH",
"673 576 OFFCURVE",
"534 700 OFFCURVE",
"331 700 CURVE SMOOTH",
"86 700 LINE"
);
},
{
closed = 1;
nodes = (
"206 107 LINE",
"206 593 LINE",
"321 593 LINE SMOOTH",
"462 593 OFFCURVE",
"553 523 OFFCURVE",
"553 350 CURVE SMOOTH",
"553 177 OFFCURVE",
"462 107 OFFCURVE",
"321 107 CURVE SMOOTH"
);
}
);
width = 719;
}
);
leftKerningGroup = B;
note = Dcaron;
rightKerningGroup = D;
unicode = 010E;
},
{
glyphname = dcaron;
lastChange = "2019-04-11 11:13:44 +0000";
layers = (
{
layerId = "1EC54930-9952-4E85-BD3B-546E0FD37DE9";
paths = (
{
closed = 1;
nodes = (
"570 477 LINE",
"592 477 LINE SMOOTH",
"663 477 OFFCURVE",
"708 521 OFFCURVE",
"708 581 CURVE SMOOTH",
"708 700 LINE",
"593 700 LINE",
"593 583 LINE",
"642 583 LINE",
"642 580 LINE SMOOTH",
"642 556 OFFCURVE",
"624 541 OFFCURVE",
"587 541 CURVE SMOOTH",
"570 541 LINE"
);
},
{
closed = 1;
nodes = (
"279 84 LINE SMOOTH",
"209 84 OFFCURVE",
"156 145 OFFCURVE",
"156 251 CURVE SMOOTH",
"156 356 OFFCURVE",
"209 416 OFFCURVE",
"279 416 CURVE SMOOTH",
"287 416 LINE SMOOTH",
"352 416 OFFCURVE",
"413 356 OFFCURVE",
"413 250 CURVE SMOOTH",
"413 144 OFFCURVE",
"352 84 OFFCURVE",
"287 84 CURVE SMOOTH"
);
},
{
closed = 1;
nodes = (
"330 -10 OFFCURVE",
"390 28 OFFCURVE",
"413 67 CURVE",
"413 0 LINE",
"528 0 LINE",
"528 700 LINE",
"413 700 LINE",
"413 433 LINE",
"390 472 OFFCURVE",
"334 510 OFFCURVE",
"264 510 CURVE SMOOTH",
"127 510 OFFCURVE",
"41 398 OFFCURVE",
"41 250 CURVE SMOOTH",
"41 102 OFFCURVE",
"123 -10 OFFCURVE",
"260 -10 CURVE SMOOTH"
);
}
);
width = 669;
}
);
leftKerningGroup = d;
note = dcaron;
rightKerningGroup = dcaron;
unicode = 010F;
},
{
glyphname = Dcroat;
lastChange = "2019-04-11 11:13:44 +0000";
layers = (
{
layerId = "1EC54930-9952-4E85-BD3B-546E0FD37DE9";
paths = (
{
closed = 1;
nodes = (
"359 0 LINE SMOOTH",
"562 0 OFFCURVE",
"698 124 OFFCURVE",
"698 350 CURVE SMOOTH",
"698 576 OFFCURVE",
"559 700 OFFCURVE",
"356 700 CURVE SMOOTH",
"111 700 LINE",
"111 404 LINE",
"12 404 LINE",
"12 297 LINE",
"111 297 LINE",
"111 0 LINE"
);
},
{
closed = 1;
nodes = (
"231 107 LINE",
"231 297 LINE",
"363 297 LINE",
"363 404 LINE",
"231 404 LINE",
"231 593 LINE",
"346 593 LINE SMOOTH",
"487 593 OFFCURVE",
"578 523 OFFCURVE",
"578 350 CURVE SMOOTH",
"578 177 OFFCURVE",
"487 107 OFFCURVE",
"346 107 CURVE SMOOTH"
);
}
);
width = 744;
}
);
leftKerningGroup = B;
note = Dcroat;
rightKerningGroup = D;
unicode = 0110;
},
{
glyphname = dcroat;
lastChange = "2019-04-11 11:13:44 +0000";
layers = (
{
layerId = "1EC54930-9952-4E85-BD3B-546E0FD37DE9";
paths = (
{
closed = 1;
nodes = (
"279 84 LINE SMOOTH",
"209 84 OFFCURVE",
"156 145 OFFCURVE",
"156 251 CURVE SMOOTH",
"156 356 OFFCURVE",
"209 416 OFFCURVE",
"279 416 CURVE SMOOTH",
"287 416 LINE SMOOTH",
"352 416 OFFCURVE",
"413 356 OFFCURVE",
"413 250 CURVE SMOOTH",
"413 144 OFFCURVE",
"352 84 OFFCURVE",
"287 84 CURVE SMOOTH"
);
},
{
closed = 1;
nodes = (
"413 0 LINE",
"528 0 LINE",
"528 558 LINE",
"603 558 LINE",
"603 643 LINE",
"528 643 LINE",
"528 700 LINE",
"413 700 LINE",
"413 643 LINE",
"286 643 LINE",
"286 558 LINE",
"413 558 LINE",
"413 433 LINE",
"390 472 OFFCURVE",
"334 510 OFFCURVE",
"264 510 CURVE SMOOTH",
"127 510 OFFCURVE",
"41 398 OFFCURVE",
"41 250 CURVE SMOOTH",
"41 102 OFFCURVE",
"123 -10 OFFCURVE",
"260 -10 CURVE SMOOTH",
"330 -10 OFFCURVE",
"390 28 OFFCURVE",
"413 67 CURVE"
);
}
);
width = 598;
}
);
leftKerningGroup = d;
note = dcroat;
unicode = 0111;
},
{
glyphname = Emacron;
lastChange = "2019-04-11 11:13:44 +0000";
layers = (
{
layerId = "1EC54930-9952-4E85-BD3B-546E0FD37DE9";
paths = (
{
closed = 1;
nodes = (
"194 771 LINE",
"512 771 LINE",
"512 866 LINE",
"194 866 LINE"
);
},
{
closed = 1;
nodes = (
"86 0 LINE",
"618 0 LINE",
"618 107 LINE",
"206 107 LINE",
"206 306 LINE",
"548 306 LINE",
"548 413 LINE",
"206 413 LINE",
"206 593 LINE",
"608 593 LINE",
"608 700 LINE",
"86 700 LINE"
);
}
);
width = 658;
}
);
leftKerningGroup = B;
note = Emacron;
rightKerningGroup = E;
unicode = 0112;
},
{
glyphname = emacron;
lastChange = "2019-04-11 11:13:44 +0000";
layers = (
{
layerId = "1EC54930-9952-4E85-BD3B-546E0FD37DE9";
paths = (
{
closed = 1;
nodes = (
"129 576 LINE",
"425 576 LINE",
"425 668 LINE",
"129 668 LINE"
);
},
{
closed = 1;
nodes = (
"382 154 LINE",
"372 112 OFFCURVE",
"335 84 OFFCURVE",
"285 84 CURVE SMOOTH",
"279 84 LINE SMOOTH",
"221 84 OFFCURVE",
"159 132 OFFCURVE",
"153 220 CURVE",
"496 220 LINE",
"497 229 OFFCURVE",
"498 262 OFFCURVE",
"498 271 CURVE SMOOTH",
"498 409 OFFCURVE",
"418 510 OFFCURVE",
"276 510 CURVE SMOOTH",
"140 510 OFFCURVE",
"41 410 OFFCURVE",
"41 250 CURVE SMOOTH",
"41 81 OFFCURVE",
"153 -10 OFFCURVE",
"278 -10 CURVE SMOOTH",
"394 -10 OFFCURVE",
"475 54 OFFCURVE",
"496 154 CURVE"
);
},
{
closed = 1;
nodes = (
"156 309 LINE",
"165 382 OFFCURVE",
"216 416 OFFCURVE",
"270 416 CURVE SMOOTH",
"277 416 LINE SMOOTH",
"333 416 OFFCURVE",
"381 381 OFFCURVE",
"385 309 CURVE"
);
}
);
width = 537;
}
);
leftKerningGroup = c;
note = emacron;
rightKerningGroup = e;
unicode = 0113;
},
{
glyphname = Ebreve;
lastChange = "2019-04-11 11:13:44 +0000";
layers = (
{
layerId = "1EC54930-9952-4E85-BD3B-546E0FD37DE9";
paths = (
{
closed = 1;
nodes = (
"316 829 OFFCURVE",
"283 847 OFFCURVE",
"281 890 CURVE",
"186 890 LINE",
"187 799 OFFCURVE",
"256 744 OFFCURVE",
"349 744 CURVE SMOOTH",
"443 744 OFFCURVE",
"512 799 OFFCURVE",
"513 890 CURVE",
"418 890 LINE",
"415 847 OFFCURVE",
"383 829 OFFCURVE",
"349 829 CURVE SMOOTH"
);
},
{
closed = 1;
nodes = (
"86 0 LINE",
"618 0 LINE",
"618 107 LINE",
"206 107 LINE",
"206 306 LINE",
"548 306 LINE",
"548 413 LINE",
"206 413 LINE",
"206 593 LINE",
"608 593 LINE",
"608 700 LINE",
"86 700 LINE"
);
}
);
width = 658;
}
);
leftKerningGroup = B;
note = Ebreve;
rightKerningGroup = E;
unicode = 0114;
},
{
glyphname = ebreve;
lastChange = "2019-04-11 11:13:44 +0000";
layers = (
{
layerId = "1EC54930-9952-4E85-BD3B-546E0FD37DE9";
paths = (
{
closed = 1;
nodes = (
"363 546 OFFCURVE",
"433 603 OFFCURVE",
"437 700 CURVE",
"344 700 LINE",
"341 652 OFFCURVE",
"314 629 OFFCURVE",
"275 629 CURVE SMOOTH",
"237 629 OFFCURVE",
"210 652 OFFCURVE",
"207 700 CURVE",
"114 700 LINE",
"117 603 OFFCURVE",
"185 546 OFFCURVE",
"275 546 CURVE SMOOTH"
);
},
{
closed = 1;
nodes = (
"382 154 LINE",
"372 112 OFFCURVE",
"335 84 OFFCURVE",
"285 84 CURVE SMOOTH",
"279 84 LINE SMOOTH",
"221 84 OFFCURVE",
"159 132 OFFCURVE",
"153 220 CURVE",
"496 220 LINE",
"497 229 OFFCURVE",
"498 262 OFFCURVE",
"498 271 CURVE SMOOTH",
"498 409 OFFCURVE",
"418 510 OFFCURVE",
"276 510 CURVE SMOOTH",
"140 510 OFFCURVE",
"41 410 OFFCURVE",
"41 250 CURVE SMOOTH",
"41 81 OFFCURVE",
"153 -10 OFFCURVE",
"278 -10 CURVE SMOOTH",
"394 -10 OFFCURVE",
"475 54 OFFCURVE",
"496 154 CURVE"
);
},
{
closed = 1;
nodes = (
"156 309 LINE",
"165 382 OFFCURVE",
"216 416 OFFCURVE",
"270 416 CURVE SMOOTH",
"277 416 LINE SMOOTH",
"333 416 OFFCURVE",
"381 381 OFFCURVE",
"385 309 CURVE"
);
}
);
width = 537;
}
);
leftKerningGroup = c;
note = ebreve;
rightKerningGroup = e;
unicode = 0115;
},
{
glyphname = Edotaccent;
lastChange = "2019-04-11 11:13:44 +0000";
layers = (
{
layerId = "1EC54930-9952-4E85-BD3B-546E0FD37DE9";
paths = (
{
closed = 1;
nodes = (
"294 772 LINE",
"419 772 LINE",
"419 896 LINE",
"294 896 LINE"
);
},
{
closed = 1;
nodes = (
"86 0 LINE",
"618 0 LINE",
"618 107 LINE",
"206 107 LINE",
"206 306 LINE",
"548 306 LINE",
"548 413 LINE",
"206 413 LINE",
"206 593 LINE",
"608 593 LINE",
"608 700 LINE",
"86 700 LINE"
);
}
);
width = 658;
}
);
leftKerningGroup = B;
note = Edotaccent;
rightKerningGroup = E;
unicode = 0116;
},
{
glyphname = edotaccent;
lastChange = "2019-04-11 11:13:44 +0000";
layers = (
{
layerId = "1EC54930-9952-4E85-BD3B-546E0FD37DE9";
paths = (
{
closed = 1;
nodes = (
"214 576 LINE",
"339 576 LINE",
"339 700 LINE",
"214 700 LINE"
);
},
{
closed = 1;
nodes = (
"382 154 LINE",
"372 112 OFFCURVE",
"335 84 OFFCURVE",
"285 84 CURVE SMOOTH",
"279 84 LINE SMOOTH",
"221 84 OFFCURVE",
"159 132 OFFCURVE",
"153 220 CURVE",
"496 220 LINE",
"497 229 OFFCURVE",
"498 262 OFFCURVE",
"498 271 CURVE SMOOTH",
"498 409 OFFCURVE",
"418 510 OFFCURVE",
"276 510 CURVE SMOOTH",
"140 510 OFFCURVE",
"41 410 OFFCURVE",
"41 250 CURVE SMOOTH",
"41 81 OFFCURVE",
"153 -10 OFFCURVE",
"278 -10 CURVE SMOOTH",
"394 -10 OFFCURVE",
"475 54 OFFCURVE",
"496 154 CURVE"
);
},
{
closed = 1;
nodes = (
"156 309 LINE",
"165 382 OFFCURVE",
"216 416 OFFCURVE",
"270 416 CURVE SMOOTH",
"277 416 LINE SMOOTH",
"333 416 OFFCURVE",
"381 381 OFFCURVE",
"385 309 CURVE"
);
}
);
width = 537;
}
);
leftKerningGroup = c;
note = edotaccent;
rightKerningGroup = e;
unicode = 0117;
},
{
glyphname = Eogonek;
lastChange = "2019-04-11 11:13:44 +0000";
layers = (
{
layerId = "1EC54930-9952-4E85-BD3B-546E0FD37DE9";
paths = (
{
closed = 1;
nodes = (
"616 -140 LINE",
"592 -140 LINE SMOOTH",
"563 -140 OFFCURVE",
"536 -128 OFFCURVE",
"536 -94 CURVE SMOOTH",
"536 -53 OFFCURVE",
"581 -22 OFFCURVE",
"618 0 CURVE",
"618 107 LINE",
"206 107 LINE",
"206 306 LINE",
"548 306 LINE",
"548 413 LINE",
"206 413 LINE",
"206 593 LINE",
"608 593 LINE",
"608 700 LINE",
"86 700 LINE",
"86 0 LINE",
"537 0 LINE",
"498 -23 OFFCURVE",
"457 -61 OFFCURVE",
"457 -120 CURVE SMOOTH",
"457 -173 OFFCURVE",
"502 -214 OFFCURVE",
"573 -214 CURVE SMOOTH",
"616 -214 LINE"
);
}
);
width = 658;
}
);
leftKerningGroup = B;
note = Eogonek;
rightKerningGroup = E;
unicode = 0118;
},
{
glyphname = eogonek;
lastChange = "2019-04-11 11:13:44 +0000";
layers = (
{
layerId = "1EC54930-9952-4E85-BD3B-546E0FD37DE9";
paths = (
{
closed = 1;
nodes = (
"350 -214 LINE",
"350 -140 LINE",
"326 -140 LINE SMOOTH",
"297 -140 OFFCURVE",
"270 -128 OFFCURVE",
"270 -94 CURVE SMOOTH",
"270 -53 OFFCURVE",
"314 -22 OFFCURVE",
"351 0 CURVE",
"428 21 OFFCURVE",
"480 77 OFFCURVE",
"496 154 CURVE",
"382 154 LINE",
"372 112 OFFCURVE",
"335 84 OFFCURVE",
"285 84 CURVE SMOOTH",
"279 84 LINE SMOOTH",
"221 84 OFFCURVE",
"159 132 OFFCURVE",
"153 220 CURVE",
"496 220 LINE",
"497 229 OFFCURVE",
"498 262 OFFCURVE",
"498 271 CURVE SMOOTH",
"498 409 OFFCURVE",
"418 510 OFFCURVE",
"276 510 CURVE SMOOTH",
"140 510 OFFCURVE",
"41 410 OFFCURVE",
"41 250 CURVE SMOOTH",
"41 91 OFFCURVE",
"140 1 OFFCURVE",
"256 -9 CURVE",
"223 -32 OFFCURVE",
"191 -69 OFFCURVE",
"191 -120 CURVE SMOOTH",
"191 -173 OFFCURVE",
"236 -214 OFFCURVE",
"307 -214 CURVE SMOOTH"
);
},
{
closed = 1;
nodes = (
"156 309 LINE",
"165 382 OFFCURVE",
"216 416 OFFCURVE",
"270 416 CURVE SMOOTH",
"277 416 LINE SMOOTH",
"333 416 OFFCURVE",
"381 381 OFFCURVE",
"385 309 CURVE"
);
}
);
width = 537;
}
);
leftKerningGroup = c;
note = eogonek;
rightKerningGroup = e;
unicode = 0119;
},
{
glyphname = Ecaron;
lastChange = "2019-04-11 11:13:44 +0000";
layers = (
{
layerId = "1EC54930-9952-4E85-BD3B-546E0FD37DE9";
paths = (
{
closed = 1;
nodes = (
"168 890 LINE",
"283 751 LINE",
"414 751 LINE",
"530 890 LINE",
"432 890 LINE",
"349 827 LINE",
"265 890 LINE"
);
},
{
closed = 1;
nodes = (
"86 0 LINE",
"618 0 LINE",
"618 107 LINE",
"206 107 LINE",
"206 306 LINE",
"548 306 LINE",
"548 413 LINE",
"206 413 LINE",
"206 593 LINE",
"608 593 LINE",
"608 700 LINE",
"86 700 LINE"
);
}
);
width = 658;
}
);
leftKerningGroup = B;
note = Ecaron;
rightKerningGroup = E;
unicode = 011A;
},
{
glyphname = ecaron;
lastChange = "2019-04-11 11:13:44 +0000";
layers = (
{
layerId = "1EC54930-9952-4E85-BD3B-546E0FD37DE9";
paths = (
{
closed = 1;
nodes = (
"210 556 LINE",
"345 556 LINE",
"453 700 LINE",
"378 700 LINE",
"278 626 LINE",
"178 700 LINE",
"102 700 LINE"
);
},
{
closed = 1;
nodes = (
"382 154 LINE",
"372 112 OFFCURVE",
"335 84 OFFCURVE",
"285 84 CURVE SMOOTH",
"279 84 LINE SMOOTH",
"221 84 OFFCURVE",
"159 132 OFFCURVE",
"153 220 CURVE",
"496 220 LINE",
"497 229 OFFCURVE",
"498 262 OFFCURVE",
"498 271 CURVE SMOOTH",
"498 409 OFFCURVE",
"418 510 OFFCURVE",
"276 510 CURVE SMOOTH",
"140 510 OFFCURVE",
"41 410 OFFCURVE",
"41 250 CURVE SMOOTH",
"41 81 OFFCURVE",
"153 -10 OFFCURVE",
"278 -10 CURVE SMOOTH",
"394 -10 OFFCURVE",
"475 54 OFFCURVE",
"496 154 CURVE"
);
},
{
closed = 1;
nodes = (
"156 309 LINE",
"165 382 OFFCURVE",
"216 416 OFFCURVE",
"270 416 CURVE SMOOTH",
"277 416 LINE SMOOTH",
"333 416 OFFCURVE",
"381 381 OFFCURVE",
"385 309 CURVE"
);
}
);
width = 537;
}
);
leftKerningGroup = c;
note = ecaron;
rightKerningGroup = e;
unicode = 011B;
},
{
glyphname = Gcircumflex;
lastChange = "2019-04-11 11:13:44 +0000";
layers = (
{
layerId = "1EC54930-9952-4E85-BD3B-546E0FD37DE9";
paths = (
{
closed = 1;
nodes = (
"299 751 LINE",
"383 814 LINE",
"466 751 LINE",
"564 751 LINE",
"448 890 LINE",
"317 890 LINE",
"202 751 LINE"
);
},
{
closed = 1;
nodes = (
"583 0 LINE",
"687 0 LINE",
"687 276 LINE SMOOTH",
"687 331 OFFCURVE",
"657 361 OFFCURVE",
"602 361 CURVE SMOOTH",
"389 361 LINE",
"389 254 LINE",
"583 254 LINE",
"584 246 LINE",
"572 158 OFFCURVE",
"498 97 OFFCURVE",
"394 97 CURVE SMOOTH",
"384 97 LINE SMOOTH",
"250 97 OFFCURVE",
"166 194 OFFCURVE",
"166 350 CURVE SMOOTH",
"166 506 OFFCURVE",
"250 603 OFFCURVE",
"384 603 CURVE SMOOTH",
"394 603 LINE SMOOTH",
"496 603 OFFCURVE",
"552 548 OFFCURVE",
"562 464 CURVE",
"682 464 LINE",
"672 605 OFFCURVE",
"569 711 OFFCURVE",
"389 711 CURVE SMOOTH",
"179 711 OFFCURVE",
"46 557 OFFCURVE",
"46 350 CURVE SMOOTH",
"46 143 OFFCURVE",
"181 -10 OFFCURVE",
"379 -10 CURVE SMOOTH",
"499 -10 OFFCURVE",
"567 49 OFFCURVE",
"583 80 CURVE"
);
}
);
width = 743;
}
);
leftKerningGroup = C;
note = Gcircumflex;
rightKerningGroup = G;
unicode = 011C;
},
{
glyphname = gcircumflex;
lastChange = "2019-04-11 11:13:44 +0000";
layers = (
{
layerId = "1EC54930-9952-4E85-BD3B-546E0FD37DE9";
paths = (
{
closed = 1;
nodes = (
"389 556 LINE",
"464 556 LINE",
"356 700 LINE",
"221 700 LINE",
"113 556 LINE",
"189 556 LINE",
"289 630 LINE"
);
},
{
closed = 1;
nodes = (
"277 94 LINE SMOOTH",
"211 94 OFFCURVE",
"157 147 OFFCURVE",
"157 255 CURVE SMOOTH",
"157 363 OFFCURVE",
"213 416 OFFCURVE",
"279 416 CURVE SMOOTH",
"288 416 LINE SMOOTH",
"351 416 OFFCURVE",
"405 356 OFFCURVE",
"405 255 CURVE SMOOTH",
"405 154 OFFCURVE",
"349 94 OFFCURVE",
"286 94 CURVE SMOOTH"
);
},
{
closed = 1;
nodes = (
"433 -219 OFFCURVE",
"520 -120 OFFCURVE",
"520 -6 CURVE SMOOTH",
"520 500 LINE",
"405 500 LINE",
"405 436 LINE",
"380 481 OFFCURVE",
"324 510 OFFCURVE",
"261 510 CURVE SMOOTH",
"144 510 OFFCURVE",
"42 424 OFFCURVE",
"42 255 CURVE SMOOTH",
"42 86 OFFCURVE",
"146 0 OFFCURVE",
"261 0 CURVE SMOOTH",
"324 0 OFFCURVE",
"378 29 OFFCURVE",
"405 74 CURVE",
"405 7 LINE SMOOTH",
"405 -84 OFFCURVE",
"350 -125 OFFCURVE",
"276 -125 CURVE SMOOTH",
"269 -125 LINE SMOOTH",
"201 -125 OFFCURVE",
"156 -100 OFFCURVE",
"148 -59 CURVE",
"33 -59 LINE",
"40 -153 OFFCURVE",
"131 -219 OFFCURVE",
"267 -219 CURVE SMOOTH"
);
}
);
width = 590;
}
);
leftKerningGroup = d;
note = gcircumflex;
rightKerningGroup = g;
unicode = 011D;
},
{
glyphname = Gbreve;
lastChange = "2019-04-11 11:13:44 +0000";
layers = (
{
layerId = "1EC54930-9952-4E85-BD3B-546E0FD37DE9";
paths = (
{
closed = 1;
nodes = (
"351 829 OFFCURVE",
"318 847 OFFCURVE",
"316 890 CURVE",
"221 890 LINE",
"222 799 OFFCURVE",
"291 744 OFFCURVE",
"384 744 CURVE SMOOTH",
"478 744 OFFCURVE",
"547 799 OFFCURVE",
"548 890 CURVE",
"453 890 LINE",
"450 847 OFFCURVE",
"418 829 OFFCURVE",
"384 829 CURVE SMOOTH"
);
},
{
closed = 1;
nodes = (
"583 0 LINE",
"687 0 LINE",
"687 276 LINE SMOOTH",
"687 331 OFFCURVE",
"657 361 OFFCURVE",
"602 361 CURVE SMOOTH",
"389 361 LINE",
"389 254 LINE",
"583 254 LINE",
"584 246 LINE",
"572 158 OFFCURVE",
"498 97 OFFCURVE",
"394 97 CURVE SMOOTH",
"384 97 LINE SMOOTH",
"250 97 OFFCURVE",
"166 194 OFFCURVE",
"166 350 CURVE SMOOTH",
"166 506 OFFCURVE",
"250 603 OFFCURVE",
"384 603 CURVE SMOOTH",
"394 603 LINE SMOOTH",
"496 603 OFFCURVE",
"552 548 OFFCURVE",
"562 464 CURVE",
"682 464 LINE",
"672 605 OFFCURVE",
"569 711 OFFCURVE",
"389 711 CURVE SMOOTH",
"179 711 OFFCURVE",
"46 557 OFFCURVE",
"46 350 CURVE SMOOTH",
"46 143 OFFCURVE",
"181 -10 OFFCURVE",
"379 -10 CURVE SMOOTH",
"499 -10 OFFCURVE",
"567 49 OFFCURVE",
"583 80 CURVE"
);
}
);
width = 743;
}
);
leftKerningGroup = C;
note = Gbreve;
rightKerningGroup = G;
unicode = 011E;
},
{
glyphname = gbreve;
lastChange = "2019-04-11 11:13:44 +0000";
layers = (
{
layerId = "1EC54930-9952-4E85-BD3B-546E0FD37DE9";
paths = (
{
closed = 1;
nodes = (
"370 546 OFFCURVE",
"440 603 OFFCURVE",
"444 700 CURVE",
"351 700 LINE",
"348 652 OFFCURVE",
"321 629 OFFCURVE",
"282 629 CURVE SMOOTH",
"244 629 OFFCURVE",
"217 652 OFFCURVE",
"214 700 CURVE",
"121 700 LINE",
"124 603 OFFCURVE",
"192 546 OFFCURVE",
"282 546 CURVE SMOOTH"
);
},
{
closed = 1;
nodes = (
"277 94 LINE SMOOTH",
"211 94 OFFCURVE",
"157 147 OFFCURVE",
"157 255 CURVE SMOOTH",
"157 363 OFFCURVE",
"213 416 OFFCURVE",
"279 416 CURVE SMOOTH",
"288 416 LINE SMOOTH",
"351 416 OFFCURVE",
"405 356 OFFCURVE",
"405 255 CURVE SMOOTH",
"405 154 OFFCURVE",
"349 94 OFFCURVE",
"286 94 CURVE SMOOTH"
);
},
{
closed = 1;
nodes = (
"433 -219 OFFCURVE",
"520 -120 OFFCURVE",
"520 -6 CURVE SMOOTH",
"520 500 LINE",
"405 500 LINE",
"405 436 LINE",
"380 481 OFFCURVE",
"324 510 OFFCURVE",
"261 510 CURVE SMOOTH",
"144 510 OFFCURVE",
"42 424 OFFCURVE",
"42 255 CURVE SMOOTH",
"42 86 OFFCURVE",
"146 0 OFFCURVE",
"261 0 CURVE SMOOTH",
"324 0 OFFCURVE",
"378 29 OFFCURVE",
"405 74 CURVE",
"405 7 LINE SMOOTH",
"405 -84 OFFCURVE",
"350 -125 OFFCURVE",
"276 -125 CURVE SMOOTH",
"269 -125 LINE SMOOTH",
"201 -125 OFFCURVE",
"156 -100 OFFCURVE",
"148 -59 CURVE",
"33 -59 LINE",
"40 -153 OFFCURVE",
"131 -219 OFFCURVE",
"267 -219 CURVE SMOOTH"
);
}
);
width = 590;
}
);
leftKerningGroup = d;
note = gbreve;
rightKerningGroup = g;
unicode = 011F;
},
{
glyphname = Gdotaccent;
lastChange = "2019-04-11 11:13:44 +0000";
layers = (
{
layerId = "1EC54930-9952-4E85-BD3B-546E0FD37DE9";
paths = (
{
closed = 1;
nodes = (
"583 0 LINE",
"687 0 LINE",
"687 276 LINE SMOOTH",
"687 331 OFFCURVE",
"657 361 OFFCURVE",
"602 361 CURVE SMOOTH",
"389 361 LINE",
"389 254 LINE",
"583 254 LINE",
"584 246 LINE",
"572 158 OFFCURVE",
"498 97 OFFCURVE",
"394 97 CURVE SMOOTH",
"384 97 LINE SMOOTH",
"250 97 OFFCURVE",
"166 194 OFFCURVE",
"166 350 CURVE SMOOTH",
"166 506 OFFCURVE",
"250 603 OFFCURVE",
"384 603 CURVE SMOOTH",
"394 603 LINE SMOOTH",
"496 603 OFFCURVE",
"552 548 OFFCURVE",
"562 464 CURVE",
"682 464 LINE",
"672 605 OFFCURVE",
"569 711 OFFCURVE",
"389 711 CURVE SMOOTH",
"179 711 OFFCURVE",
"46 557 OFFCURVE",
"46 350 CURVE SMOOTH",
"46 143 OFFCURVE",
"181 -10 OFFCURVE",
"379 -10 CURVE SMOOTH",
"499 -10 OFFCURVE",
"567 49 OFFCURVE",
"583 80 CURVE"
);
}
);
width = 743;
}
);
leftKerningGroup = C;
note = Gdotaccent;
rightKerningGroup = G;
unicode = 0120;
},
{
glyphname = gdotaccent;
lastChange = "2019-04-11 11:13:44 +0000";
layers = (
{
layerId = "1EC54930-9952-4E85-BD3B-546E0FD37DE9";
paths = (
{
closed = 1;
nodes = (
"228 576 LINE",
"353 576 LINE",
"353 700 LINE",
"228 700 LINE"
);
},
{
closed = 1;
nodes = (
"277 94 LINE SMOOTH",
"211 94 OFFCURVE",
"157 147 OFFCURVE",
"157 255 CURVE SMOOTH",
"157 363 OFFCURVE",
"213 416 OFFCURVE",
"279 416 CURVE SMOOTH",
"288 416 LINE SMOOTH",
"351 416 OFFCURVE",
"405 356 OFFCURVE",
"405 255 CURVE SMOOTH",
"405 154 OFFCURVE",
"349 94 OFFCURVE",
"286 94 CURVE SMOOTH"
);
},
{
closed = 1;
nodes = (
"433 -219 OFFCURVE",
"520 -120 OFFCURVE",
"520 -6 CURVE SMOOTH",
"520 500 LINE",
"405 500 LINE",
"405 436 LINE",
"380 481 OFFCURVE",
"324 510 OFFCURVE",
"261 510 CURVE SMOOTH",
"144 510 OFFCURVE",
"42 424 OFFCURVE",
"42 255 CURVE SMOOTH",
"42 86 OFFCURVE",
"146 0 OFFCURVE",
"261 0 CURVE SMOOTH",
"324 0 OFFCURVE",
"378 29 OFFCURVE",
"405 74 CURVE",
"405 7 LINE SMOOTH",
"405 -84 OFFCURVE",
"350 -125 OFFCURVE",
"276 -125 CURVE SMOOTH",
"269 -125 LINE SMOOTH",
"201 -125 OFFCURVE",
"156 -100 OFFCURVE",
"148 -59 CURVE",
"33 -59 LINE",
"40 -153 OFFCURVE",
"131 -219 OFFCURVE",
"267 -219 CURVE SMOOTH"
);
}
);
width = 590;
}
);
leftKerningGroup = d;
note = gdotaccent;
rightKerningGroup = g;
unicode = 0121;
},
{
glyphname = Gcommaaccent;
lastChange = "2019-04-11 11:13:44 +0000";
layers = (
{
layerId = "1EC54930-9952-4E85-BD3B-546E0FD37DE9";
paths = (
{
closed = 1;
nodes = (
"583 0 LINE",
"687 0 LINE",
"687 276 LINE SMOOTH",
"687 331 OFFCURVE",
"657 361 OFFCURVE",
"602 361 CURVE SMOOTH",
"389 361 LINE",
"389 254 LINE",
"583 254 LINE",
"584 246 LINE",
"572 158 OFFCURVE",
"498 97 OFFCURVE",
"394 97 CURVE SMOOTH",
"384 97 LINE SMOOTH",
"250 97 OFFCURVE",
"166 194 OFFCURVE",
"166 350 CURVE SMOOTH",
"166 506 OFFCURVE",
"250 603 OFFCURVE",
"384 603 CURVE SMOOTH",
"394 603 LINE SMOOTH",
"496 603 OFFCURVE",
"552 548 OFFCURVE",
"562 464 CURVE",
"682 464 LINE",
"672 605 OFFCURVE",
"569 711 OFFCURVE",
"389 711 CURVE SMOOTH",
"179 711 OFFCURVE",
"46 557 OFFCURVE",
"46 350 CURVE SMOOTH",
"46 143 OFFCURVE",
"181 -10 OFFCURVE",
"379 -10 CURVE SMOOTH",
"499 -10 OFFCURVE",
"567 49 OFFCURVE",
"583 80 CURVE"
);
},
{
closed = 1;
nodes = (
"294 -299 LINE",
"316 -299 LINE SMOOTH",
"387 -299 OFFCURVE",
"432 -255 OFFCURVE",
"432 -195 CURVE SMOOTH",
"432 -76 LINE",
"317 -76 LINE",
"317 -193 LINE",
"366 -193 LINE",
"366 -196 LINE SMOOTH",
"366 -220 OFFCURVE",
"348 -235 OFFCURVE",
"311 -235 CURVE SMOOTH",
"294 -235 LINE"
);
}
);
width = 743;
}
);
leftKerningGroup = C;
note = Gcommaaccent;
rightKerningGroup = G;
unicode = 0122;
},
{
glyphname = gcommaaccent;
lastChange = "2019-04-11 11:13:44 +0000";
layers = (
{
layerId = "1EC54930-9952-4E85-BD3B-546E0FD37DE9";
paths = (
{
closed = 1;
nodes = (
"369 802 LINE",
"347 802 LINE SMOOTH",
"276 802 OFFCURVE",
"231 758 OFFCURVE",
"231 698 CURVE SMOOTH",
"231 579 LINE",
"346 579 LINE",
"346 696 LINE",
"297 696 LINE",
"297 699 LINE SMOOTH",
"297 723 OFFCURVE",
"315 738 OFFCURVE",
"352 738 CURVE SMOOTH",
"369 738 LINE"
);
},
{
closed = 1;
nodes = (
"277 94 LINE SMOOTH",
"211 94 OFFCURVE",
"157 147 OFFCURVE",
"157 255 CURVE SMOOTH",
"157 363 OFFCURVE",
"213 416 OFFCURVE",
"279 416 CURVE SMOOTH",
"288 416 LINE SMOOTH",
"351 416 OFFCURVE",
"405 356 OFFCURVE",
"405 255 CURVE SMOOTH",
"405 154 OFFCURVE",
"349 94 OFFCURVE",
"286 94 CURVE SMOOTH"
);
},
{
closed = 1;
nodes = (
"433 -219 OFFCURVE",
"520 -120 OFFCURVE",
"520 -6 CURVE SMOOTH",
"520 500 LINE",
"405 500 LINE",
"405 436 LINE",
"380 481 OFFCURVE",
"324 510 OFFCURVE",
"261 510 CURVE SMOOTH",
"144 510 OFFCURVE",
"42 424 OFFCURVE",
"42 255 CURVE SMOOTH",
"42 86 OFFCURVE",
"146 0 OFFCURVE",
"261 0 CURVE SMOOTH",
"324 0 OFFCURVE",
"378 29 OFFCURVE",
"405 74 CURVE",
"405 7 LINE SMOOTH",
"405 -84 OFFCURVE",
"350 -125 OFFCURVE",
"276 -125 CURVE SMOOTH",
"269 -125 LINE SMOOTH",
"201 -125 OFFCURVE",
"156 -100 OFFCURVE",
"148 -59 CURVE",
"33 -59 LINE",
"40 -153 OFFCURVE",
"131 -219 OFFCURVE",
"267 -219 CURVE SMOOTH"
);
}
);
width = 590;
}
);
leftKerningGroup = d;
note = gcommaaccent;
rightKerningGroup = g;
unicode = 0123;
},
{
glyphname = Hcircumflex;
lastChange = "2019-04-11 11:13:44 +0000";
layers = (
{
layerId = "1EC54930-9952-4E85-BD3B-546E0FD37DE9";
paths = (
{
closed = 1;
nodes = (
"286 751 LINE",
"370 814 LINE",
"453 751 LINE",
"551 751 LINE",
"435 890 LINE",
"304 890 LINE",
"189 751 LINE"
);
},
{
closed = 1;
nodes = (
"86 0 LINE",
"206 0 LINE",
"206 296 LINE",
"533 296 LINE",
"533 0 LINE",
"653 0 LINE",
"653 700 LINE",
"533 700 LINE",
"533 404 LINE",
"206 404 LINE",
"206 700 LINE",
"86 700 LINE"
);
}
);
width = 739;
}
);
leftKerningGroup = B;
note = Hcircumflex;
rightKerningGroup = H;
unicode = 0124;
},
{
glyphname = hcircumflex;
lastChange = "2019-04-11 11:13:44 +0000";
layers = (
{
layerId = "1EC54930-9952-4E85-BD3B-546E0FD37DE9";
paths = (
{
closed = 1;
nodes = (
"44 751 LINE",
"128 814 LINE",
"211 751 LINE",
"309 751 LINE",
"193 890 LINE",
"62 890 LINE",
"-53 751 LINE"
);
},
{
closed = 1;
nodes = (
"185 279 LINE SMOOTH",
"185 360 OFFCURVE",
"241 416 OFFCURVE",
"305 416 CURVE SMOOTH",
"314 416 LINE SMOOTH",
"372 416 OFFCURVE",
"402 376 OFFCURVE",
"402 309 CURVE SMOOTH",
"402 0 LINE",
"517 0 LINE",
"517 326 LINE SMOOTH",
"517 434 OFFCURVE",
"458 510 OFFCURVE",
"340 510 CURVE SMOOTH",
"269 510 OFFCURVE",
"215 476 OFFCURVE",
"185 428 CURVE",
"185 700 LINE",
"70 700 LINE",
"70 0 LINE",
"185 0 LINE"
);
}
);
width = 582;
}
);
leftKerningGroup = b;
note = hcircumflex;
rightKerningGroup = h;
unicode = 0125;
},
{
glyphname = Hbar;
lastChange = "2019-04-11 11:13:44 +0000";
layers = (
{
layerId = "1EC54930-9952-4E85-BD3B-546E0FD37DE9";
paths = (
{
closed = 1;
nodes = (
"210 404 LINE",
"210 500 LINE",
"537 500 LINE",
"537 404 LINE"
);
},
{
closed = 1;
nodes = (
"210 296 LINE",
"537 296 LINE",
"537 0 LINE",
"657 0 LINE",
"657 500 LINE",
"721 500 LINE",
"721 600 LINE",
"657 600 LINE",
"657 700 LINE",
"537 700 LINE",
"537 600 LINE",
"210 600 LINE",
"210 700 LINE",
"90 700 LINE",
"90 600 LINE",
"26 600 LINE",
"26 500 LINE",
"90 500 LINE",
"90 0 LINE",
"210 0 LINE"
);
}
);
width = 747;
}
);
leftKerningGroup = B;
note = Hbar;
rightKerningGroup = H;
unicode = 0126;
},
{
glyphname = hbar;
lastChange = "2019-04-11 11:13:44 +0000";
layers = (
{
layerId = "1EC54930-9952-4E85-BD3B-546E0FD37DE9";
paths = (
{
closed = 1;
nodes = (
"185 279 LINE SMOOTH",
"185 360 OFFCURVE",
"241 416 OFFCURVE",
"305 416 CURVE SMOOTH",
"314 416 LINE SMOOTH",
"372 416 OFFCURVE",
"402 376 OFFCURVE",
"402 309 CURVE SMOOTH",
"402 0 LINE",
"517 0 LINE",
"517 326 LINE SMOOTH",
"517 434 OFFCURVE",
"458 510 OFFCURVE",
"340 510 CURVE SMOOTH",
"269 510 OFFCURVE",
"215 476 OFFCURVE",
"185 428 CURVE",
"185 558 LINE",
"317 558 LINE",
"317 643 LINE",
"185 643 LINE",
"185 700 LINE",
"70 700 LINE",
"70 643 LINE",
"0 643 LINE",
"0 558 LINE",
"70 558 LINE",
"70 0 LINE",
"185 0 LINE"
);
}
);
width = 582;
}
);
leftKerningGroup = b;
note = hbar;
rightKerningGroup = h;
unicode = 0127;
},
{
glyphname = Itilde;
lastChange = "2019-04-11 11:13:44 +0000";
layers = (
{
layerId = "1EC54930-9952-4E85-BD3B-546E0FD37DE9";
paths = (
{
closed = 1;
nodes = (
"201 841 OFFCURVE",
"184 852 OFFCURVE",
"168 861 CURVE SMOOTH",
"148 872 LINE SMOOTH",
"126 885 OFFCURVE",
"102 898 OFFCURVE",
"68 898 CURVE SMOOTH",
"7 898 OFFCURVE",
"-38 848 OFFCURVE",
"-38 788 CURVE SMOOTH",
"-38 762 LINE",
"46 762 LINE",
"46 792 OFFCURVE",
"58 810 OFFCURVE",
"79 809 CURVE",
"95 809 OFFCURVE",
"109 802 OFFCURVE",
"125 793 CURVE",
"146 780 LINE",
"175 764 OFFCURVE",
"201 752 OFFCURVE",
"229 752 CURVE SMOOTH",
"297 752 OFFCURVE",
"333 802 OFFCURVE",
"333 862 CURVE SMOOTH",
"333 888 LINE",
"248 888 LINE",
"248 858 OFFCURVE",
"237 841 OFFCURVE",
"217 841 CURVE SMOOTH"
);
},
{
closed = 1;
nodes = (
"86 0 LINE",
"206 0 LINE",
"206 700 LINE",
"86 700 LINE"
);
}
);
width = 292;
}
);
leftKerningGroup = B;
note = Itilde;
rightKerningGroup = H;
unicode = 0128;
},
{
glyphname = itilde;
lastChange = "2019-04-11 11:13:44 +0000";
layers = (
{
layerId = "1EC54930-9952-4E85-BD3B-546E0FD37DE9";
paths = (
{
closed = 1;
nodes = (
"182 644 OFFCURVE",
"165 655 OFFCURVE",
"149 664 CURVE SMOOTH",
"129 675 LINE SMOOTH",
"107 688 OFFCURVE",
"83 701 OFFCURVE",
"49 701 CURVE SMOOTH",
"-12 701 OFFCURVE",
"-57 651 OFFCURVE",
"-57 591 CURVE SMOOTH",
"-57 565 LINE",
"27 565 LINE",
"27 595 OFFCURVE",
"43 611 OFFCURVE",
"61 611 CURVE SMOOTH",
"78 611 OFFCURVE",
"90 605 OFFCURVE",
"106 595 CURVE",
"127 583 LINE SMOOTH",
"156 567 OFFCURVE",
"182 555 OFFCURVE",
"210 555 CURVE SMOOTH",
"268 555 OFFCURVE",
"314 604 OFFCURVE",
"314 665 CURVE SMOOTH",
"314 691 LINE",
"229 691 LINE",
"229 661 OFFCURVE",
"216 644 OFFCURVE",
"198 644 CURVE SMOOTH"
);
},
{
closed = 1;
nodes = (
"70 0 LINE",
"185 0 LINE",
"185 500 LINE",
"70 500 LINE"
);
}
);
width = 255;
}
);
leftKerningGroup = i;
note = itilde;
unicode = 0129;
},
{
glyphname = Imacron;
lastChange = "2019-04-11 11:13:44 +0000";
layers = (
{
layerId = "1EC54930-9952-4E85-BD3B-546E0FD37DE9";
paths = (
{
closed = 1;
nodes = (
"-12 771 LINE",
"306 771 LINE",
"306 866 LINE",
"-12 866 LINE"
);
},
{
closed = 1;
nodes = (
"86 0 LINE",
"206 0 LINE",
"206 700 LINE",
"86 700 LINE"
);
}
);
width = 292;
}
);
leftKerningGroup = B;
note = Imacron;
rightKerningGroup = H;
unicode = 012A;
},
{
glyphname = imacron;
lastChange = "2019-04-11 11:13:44 +0000";
layers = (
{
layerId = "1EC54930-9952-4E85-BD3B-546E0FD37DE9";
paths = (
{
closed = 1;
nodes = (
"-20 576 LINE",
"276 576 LINE",
"276 668 LINE",
"-20 668 LINE"
);
},
{
closed = 1;
nodes = (
"70 0 LINE",
"185 0 LINE",
"185 500 LINE",
"70 500 LINE"
);
}
);
width = 255;
}
);
leftKerningGroup = i;
note = imacron;
unicode = 012B;
},
{
glyphname = Ibreve;
lastChange = "2019-04-11 11:13:44 +0000";
layers = (
{
layerId = "1EC54930-9952-4E85-BD3B-546E0FD37DE9";
paths = (
{
closed = 1;
nodes = (
"113 829 OFFCURVE",
"80 847 OFFCURVE",
"78 890 CURVE",
"-17 890 LINE",
"-16 799 OFFCURVE",
"53 744 OFFCURVE",
"146 744 CURVE SMOOTH",
"240 744 OFFCURVE",
"309 799 OFFCURVE",
"310 890 CURVE",
"215 890 LINE",
"212 847 OFFCURVE",
"180 829 OFFCURVE",
"146 829 CURVE SMOOTH"
);
},
{
closed = 1;
nodes = (
"86 0 LINE",
"206 0 LINE",
"206 700 LINE",
"86 700 LINE"
);
}
);
width = 292;
}
);
leftKerningGroup = B;
note = Ibreve;
rightKerningGroup = H;
unicode = 012C;
},
{
glyphname = ibreve;
lastChange = "2019-04-11 11:13:44 +0000";
layers = (
{
layerId = "1EC54930-9952-4E85-BD3B-546E0FD37DE9";
paths = (
{
closed = 1;
nodes = (
"216 546 OFFCURVE",
"286 603 OFFCURVE",
"290 700 CURVE",
"197 700 LINE",
"194 652 OFFCURVE",
"167 629 OFFCURVE",
"128 629 CURVE SMOOTH",
"90 629 OFFCURVE",
"63 652 OFFCURVE",
"60 700 CURVE",
"-33 700 LINE",
"-30 603 OFFCURVE",
"38 546 OFFCURVE",
"128 546 CURVE SMOOTH"
);
},
{
closed = 1;
nodes = (
"70 0 LINE",
"185 0 LINE",
"185 500 LINE",
"70 500 LINE"
);
}
);
width = 255;
}
);
leftKerningGroup = i;
note = ibreve;
unicode = 012D;
},
{
glyphname = Iogonek;
lastChange = "2019-04-11 11:13:44 +0000";
layers = (
{
layerId = "1EC54930-9952-4E85-BD3B-546E0FD37DE9";
paths = (
{
closed = 1;
nodes = (
"204 -140 LINE",
"180 -140 LINE SMOOTH",
"151 -140 OFFCURVE",
"124 -128 OFFCURVE",
"124 -94 CURVE SMOOTH",
"124 -53 OFFCURVE",
"169 -22 OFFCURVE",
"206 0 CURVE",
"206 700 LINE",
"86 700 LINE",
"86 0 LINE",
"125 0 LINE",
"86 -23 OFFCURVE",
"45 -61 OFFCURVE",
"45 -120 CURVE SMOOTH",
"45 -173 OFFCURVE",
"90 -214 OFFCURVE",
"161 -214 CURVE SMOOTH",
"204 -214 LINE"
);
}
);
width = 292;
}
);
leftKerningGroup = B;
note = Iogonek;
rightKerningGroup = H;
unicode = 012E;
},
{
glyphname = iogonek;
lastChange = "2019-04-11 11:13:44 +0000";
layers = (
{
layerId = "1EC54930-9952-4E85-BD3B-546E0FD37DE9";
paths = (
{
closed = 1;
nodes = (
"66 576 LINE",
"191 576 LINE",
"191 700 LINE",
"66 700 LINE"
);
},
{
closed = 1;
nodes = (
"183 -140 LINE",
"159 -140 LINE SMOOTH",
"130 -140 OFFCURVE",
"103 -128 OFFCURVE",
"103 -94 CURVE SMOOTH",
"103 -53 OFFCURVE",
"148 -22 OFFCURVE",
"185 0 CURVE",
"185 500 LINE",
"70 500 LINE",
"70 0 LINE",
"104 0 LINE",
"65 -23 OFFCURVE",
"24 -61 OFFCURVE",
"24 -120 CURVE SMOOTH",
"24 -173 OFFCURVE",
"69 -214 OFFCURVE",
"140 -214 CURVE SMOOTH",
"183 -214 LINE"
);
}
);
width = 255;
}
);
leftKerningGroup = i;
note = iogonek;
unicode = 012F;
},
{
glyphname = Idotaccent;
lastChange = "2019-04-11 11:13:44 +0000";
layers = (
{
layerId = "1EC54930-9952-4E85-BD3B-546E0FD37DE9";
paths = (
{
closed = 1;
nodes = (
"84 772 LINE",
"209 772 LINE",
"209 896 LINE",
"84 896 LINE"
);
},
{
closed = 1;
nodes = (
"86 0 LINE",
"206 0 LINE",
"206 700 LINE",
"86 700 LINE"
);
}
);
width = 292;
}
);
leftKerningGroup = B;
note = Idotaccent;
rightKerningGroup = H;
unicode = 0130;
},
{
glyphname = dotlessi;
lastChange = "2019-04-11 11:13:44 +0000";
layers = (
{
layerId = "1EC54930-9952-4E85-BD3B-546E0FD37DE9";
paths = (
{
closed = 1;
nodes = (
"70 0 LINE",
"185 0 LINE",
"185 500 LINE",
"70 500 LINE"
);
}
);
width = 255;
}
);
leftKerningGroup = i;
note = dotlessi;
unicode = 0131;
},
{
glyphname = IJ;
lastChange = "2019-04-11 11:13:44 +0000";
layers = (
{
layerId = "1EC54930-9952-4E85-BD3B-546E0FD37DE9";
paths = (
{
closed = 1;
nodes = (
"293 0 LINE SMOOTH",
"427 0 OFFCURVE",
"485 61 OFFCURVE",
"485 195 CURVE SMOOTH",
"485 700 LINE",
"365 700 LINE",
"365 208 LINE SMOOTH",
"365 141 OFFCURVE",
"343 115 OFFCURVE",
"278 115 CURVE SMOOTH",
"86 115 LINE",
"86 0 LINE"
);
},
{
closed = 1;
nodes = (
"86 201 LINE",
"206 201 LINE",
"206 700 LINE",
"86 700 LINE"
);
}
);
width = 566;
}
);
leftKerningGroup = B;
note = IJ;
rightKerningGroup = J;
unicode = 0132;
},
{
glyphname = ij;
lastChange = "2019-04-11 11:13:44 +0000";
layers = (
{
layerId = "1EC54930-9952-4E85-BD3B-546E0FD37DE9";
paths = (
{
closed = 1;
nodes = (
"311 576 LINE",
"436 576 LINE",
"436 700 LINE",
"311 700 LINE"
);
},
{
closed = 1;
nodes = (
"66 576 LINE",
"191 576 LINE",
"191 700 LINE",
"66 700 LINE"
);
},
{
closed = 1;
nodes = (
"70 0 LINE",
"185 0 LINE",
"185 500 LINE",
"70 500 LINE"
);
},
{
closed = 1;
nodes = (
"70 -194 LINE",
"315 -194 LINE SMOOTH",
"391 -194 OFFCURVE",
"431 -153 OFFCURVE",
"431 -77 CURVE SMOOTH",
"431 500 LINE",
"316 500 LINE",
"316 -46 LINE SMOOTH",
"316 -81 OFFCURVE",
"304 -94 OFFCURVE",
"268 -94 CURVE SMOOTH",
"70 -94 LINE"
);
}
);
width = 501;
}
);
leftKerningGroup = i;
note = ij;
unicode = 0133;
},
{
glyphname = Jcircumflex;
lastChange = "2019-04-11 11:13:44 +0000";
layers = (
{
layerId = "1EC54930-9952-4E85-BD3B-546E0FD37DE9";
paths = (
{
closed = 1;
nodes = (
"195 751 LINE",
"279 814 LINE",
"362 751 LINE",
"460 751 LINE",
"344 890 LINE",
"213 890 LINE",
"98 751 LINE"
);
},
{
closed = 1;
nodes = (
"183 0 LINE SMOOTH",
"284 0 OFFCURVE",
"339 55 OFFCURVE",
"339 155 CURVE SMOOTH",
"339 700 LINE",
"219 700 LINE",
"219 188 LINE SMOOTH",
"219 134 OFFCURVE",
"199 115 OFFCURVE",
"146 115 CURVE SMOOTH",
"28 115 LINE",
"28 0 LINE"
);
}
);
width = 420;
}
);
leftKerningGroup = J;
note = Jcircumflex;
rightKerningGroup = J;
unicode = 0134;
},
{
glyphname = jcircumflex;
lastChange = "2019-04-11 11:13:44 +0000";
layers = (
{
layerId = "1EC54930-9952-4E85-BD3B-546E0FD37DE9";
paths = (
{
closed = 1;
nodes = (
"234 556 LINE",
"309 556 LINE",
"201 700 LINE",
"66 700 LINE",
"-42 556 LINE",
"34 556 LINE",
"134 630 LINE"
);
},
{
closed = 1;
nodes = (
"193 500 LINE",
"78 500 LINE",
"78 -46 LINE SMOOTH",
"78 -81 OFFCURVE",
"66 -94 OFFCURVE",
"30 -94 CURVE SMOOTH",
"-82 -94 LINE",
"-82 -194 LINE",
"77 -194 LINE SMOOTH",
"153 -194 OFFCURVE",
"193 -153 OFFCURVE",
"193 -77 CURVE SMOOTH"
);
}
);
width = 263;
}
);
leftKerningGroup = i;
note = jcircumflex;
unicode = 0135;
},
{
glyphname = Kcommaaccent;
lastChange = "2019-04-11 11:13:44 +0000";
layers = (
{
layerId = "1EC54930-9952-4E85-BD3B-546E0FD37DE9";
paths = (
{
closed = 1;
nodes = (
"532 0 LINE",
"681 0 LINE",
"398 412 LINE",
"675 700 LINE",
"524 700 LINE",
"206 372 LINE",
"206 700 LINE",
"86 700 LINE",
"86 0 LINE",
"206 0 LINE",
"206 213 LINE",
"311 322 LINE"
);
},
{
closed = 1;
nodes = (
"281 -299 LINE",
"303 -299 LINE SMOOTH",
"374 -299 OFFCURVE",
"419 -255 OFFCURVE",
"419 -195 CURVE SMOOTH",
"419 -76 LINE",
"304 -76 LINE",
"304 -193 LINE",
"353 -193 LINE",
"353 -196 LINE SMOOTH",
"353 -220 OFFCURVE",
"335 -235 OFFCURVE",
"298 -235 CURVE SMOOTH",
"281 -235 LINE"
);
}
);
width = 683;
}
);
leftKerningGroup = B;
note = Kcommaaccent;
rightKerningGroup = K;
unicode = 0136;
},
{
glyphname = kcommaaccent;
lastChange = "2019-04-11 11:13:44 +0000";
layers = (
{
layerId = "1EC54930-9952-4E85-BD3B-546E0FD37DE9";
paths = (
{
closed = 1;
nodes = (
"400 0 LINE",
"538 0 LINE",
"329 301 LINE",
"528 500 LINE",
"383 500 LINE",
"185 300 LINE",
"185 700 LINE",
"70 700 LINE",
"70 0 LINE",
"185 0 LINE",
"185 157 LINE",
"248 220 LINE"
);
},
{
closed = 1;
nodes = (
"210 -299 LINE",
"232 -299 LINE SMOOTH",
"303 -299 OFFCURVE",
"348 -255 OFFCURVE",
"348 -195 CURVE SMOOTH",
"348 -76 LINE",
"233 -76 LINE",
"233 -193 LINE",
"282 -193 LINE",
"282 -196 LINE SMOOTH",
"282 -220 OFFCURVE",
"264 -235 OFFCURVE",
"227 -235 CURVE SMOOTH",
"210 -235 LINE"
);
}
);
width = 543;
}
);
leftKerningGroup = b;
note = kcommaaccent;
rightKerningGroup = k;
unicode = 0137;
},
{
glyphname = Lacute;
lastChange = "2019-04-11 11:13:44 +0000";
layers = (
{
layerId = "1EC54930-9952-4E85-BD3B-546E0FD37DE9";
paths = (
{
closed = 1;
nodes = (
"104 751 LINE",
"186 751 LINE",
"285 890 LINE",
"147 890 LINE"
);
},
{
closed = 1;
nodes = (
"86 0 LINE",
"608 0 LINE",
"608 107 LINE",
"206 107 LINE",
"206 700 LINE",
"86 700 LINE"
);
}
);
width = 625;
}
);
leftKerningGroup = B;
note = Lacute;
rightKerningGroup = L;
unicode = 0139;
},
{
glyphname = lacute;
lastChange = "2019-04-11 11:13:44 +0000";
layers = (
{
layerId = "1EC54930-9952-4E85-BD3B-546E0FD37DE9";
paths = (
{
closed = 1;
nodes = (
"87 751 LINE",
"169 751 LINE",
"268 890 LINE",
"130 890 LINE"
);
},
{
closed = 1;
nodes = (
"70 0 LINE",
"185 0 LINE",
"185 700 LINE",
"70 700 LINE"
);
}
);
width = 255;
}
);
leftKerningGroup = l;
note = lacute;
rightKerningGroup = l;
unicode = 013A;
},
{
glyphname = Lcommaaccent;
lastChange = "2019-04-11 11:13:44 +0000";
layers = (
{
layerId = "1EC54930-9952-4E85-BD3B-546E0FD37DE9";
paths = (
{
closed = 1;
nodes = (
"86 0 LINE",
"608 0 LINE",
"608 107 LINE",
"206 107 LINE",
"206 700 LINE",
"86 700 LINE"
);
},
{
closed = 1;
nodes = (
"272 -299 LINE",
"294 -299 LINE SMOOTH",
"365 -299 OFFCURVE",
"410 -255 OFFCURVE",
"410 -195 CURVE SMOOTH",
"410 -76 LINE",
"295 -76 LINE",
"295 -193 LINE",
"344 -193 LINE",
"344 -196 LINE SMOOTH",
"344 -220 OFFCURVE",
"326 -235 OFFCURVE",
"289 -235 CURVE SMOOTH",
"272 -235 LINE"
);
}
);
width = 625;
}
);
leftKerningGroup = B;
note = Lcommaaccent;
rightKerningGroup = L;
unicode = 013B;
},
{
glyphname = lcommaaccent;
lastChange = "2019-04-11 11:13:44 +0000";
layers = (
{
layerId = "1EC54930-9952-4E85-BD3B-546E0FD37DE9";
paths = (
{
closed = 1;
nodes = (
"70 0 LINE",
"185 0 LINE",
"185 700 LINE",
"70 700 LINE"
);
},
{
closed = 1;
nodes = (
"47 -299 LINE",
"69 -299 LINE SMOOTH",
"140 -299 OFFCURVE",
"185 -255 OFFCURVE",
"185 -195 CURVE SMOOTH",
"185 -76 LINE",
"70 -76 LINE",
"70 -193 LINE",
"119 -193 LINE",
"119 -196 LINE SMOOTH",
"119 -220 OFFCURVE",
"101 -235 OFFCURVE",
"64 -235 CURVE SMOOTH",
"47 -235 LINE"
);
}
);
width = 255;
}
);
leftKerningGroup = l;
note = lcommaaccent;
rightKerningGroup = l;
unicode = 013C;
},
{
glyphname = Lcaron;
lastChange = "2019-04-11 11:13:44 +0000";
layers = (
{
layerId = "1EC54930-9952-4E85-BD3B-546E0FD37DE9";
paths = (
{
closed = 1;
nodes = (
"86 0 LINE",
"608 0 LINE",
"608 107 LINE",
"206 107 LINE",
"206 700 LINE",
"86 700 LINE"
);
},
{
closed = 1;
nodes = (
"319 477 LINE",
"341 477 LINE SMOOTH",
"412 477 OFFCURVE",
"457 521 OFFCURVE",
"457 581 CURVE SMOOTH",
"457 700 LINE",
"342 700 LINE",
"342 583 LINE",
"391 583 LINE",
"391 580 LINE SMOOTH",
"391 556 OFFCURVE",
"373 541 OFFCURVE",
"336 541 CURVE SMOOTH",
"319 541 LINE"
);
}
);
width = 625;
}
);
leftKerningGroup = B;
note = Lcaron;
rightKerningGroup = L;
unicode = 013D;
},
{
glyphname = lcaron;
lastChange = "2019-04-11 11:13:44 +0000";
layers = (
{
layerId = "1EC54930-9952-4E85-BD3B-546E0FD37DE9";
paths = (
{
closed = 1;
nodes = (
"70 0 LINE",
"185 0 LINE",
"185 700 LINE",
"70 700 LINE"
);
},
{
closed = 1;
nodes = (
"228 477 LINE",
"250 477 LINE SMOOTH",
"321 477 OFFCURVE",
"366 521 OFFCURVE",
"366 581 CURVE SMOOTH",
"366 700 LINE",
"251 700 LINE",
"251 583 LINE",
"300 583 LINE",
"300 580 LINE SMOOTH",
"300 556 OFFCURVE",
"282 541 OFFCURVE",
"245 541 CURVE SMOOTH",
"228 541 LINE"
);
}
);
width = 327;
}
);
leftKerningGroup = l;
note = lcaron;
rightKerningGroup = dcaron;
unicode = 013E;
},
{
glyphname = Ldot;
lastChange = "2019-04-11 11:13:44 +0000";
layers = (
{
layerId = "1EC54930-9952-4E85-BD3B-546E0FD37DE9";
paths = (
{
closed = 1;
nodes = (
"86 0 LINE",
"608 0 LINE",
"608 107 LINE",
"206 107 LINE",
"206 700 LINE",
"86 700 LINE"
);
},
{
closed = 1;
nodes = (
"379 310 LINE",
"504 310 LINE",
"504 434 LINE",
"379 434 LINE"
);
}
);
width = 625;
}
);
leftKerningGroup = B;
note = Ldot;
rightKerningGroup = L;
unicode = 013F;
},
{
glyphname = ldot;
lastChange = "2019-04-11 11:13:44 +0000";
layers = (
{
layerId = "1EC54930-9952-4E85-BD3B-546E0FD37DE9";
paths = (
{
closed = 1;
nodes = (
"70 0 LINE",
"185 0 LINE",
"185 700 LINE",
"70 700 LINE"
);
},
{
closed = 1;
nodes = (
"253 281 LINE",
"378 281 LINE",
"378 405 LINE",
"253 405 LINE"
);
}
);
width = 383;
}
);
leftKerningGroup = l;
note = ldot;
unicode = 0140;
},
{
glyphname = Lslash;
lastChange = "2019-04-11 11:13:44 +0000";
layers = (
{
layerId = "1EC54930-9952-4E85-BD3B-546E0FD37DE9";
paths = (
{
closed = 1;
nodes = (
"650 0 LINE",
"650 107 LINE",
"248 107 LINE",
"248 313 LINE",
"425 413 LINE",
"425 532 LINE",
"248 433 LINE",
"248 700 LINE",
"128 700 LINE",
"128 365 LINE",
"33 312 LINE",
"33 192 LINE",
"128 246 LINE",
"128 0 LINE"
);
}
);
width = 667;
}
);
leftKerningGroup = B;
note = Lslash;
rightKerningGroup = L;
unicode = 0141;
},
{
glyphname = lslash;
lastChange = "2019-04-11 11:13:44 +0000";
layers = (
{
layerId = "1EC54930-9952-4E85-BD3B-546E0FD37DE9";
paths = (
{
closed = 1;
nodes = (
"224 0 LINE",
"224 378 LINE",
"304 423 LINE",
"304 533 LINE",
"224 488 LINE",
"224 700 LINE",
"109 700 LINE",
"109 422 LINE",
"29 377 LINE",
"29 268 LINE",
"109 313 LINE",
"109 0 LINE"
);
}
);
width = 325;
}
);
leftKerningGroup = l;
note = lslash;
rightKerningGroup = l;
unicode = 0142;
},
{
glyphname = Nacute;
lastChange = "2019-04-11 11:13:44 +0000";
layers = (
{
layerId = "1EC54930-9952-4E85-BD3B-546E0FD37DE9";
paths = (
{
closed = 1;
nodes = (
"330 751 LINE",
"412 751 LINE",
"511 890 LINE",
"373 890 LINE"
);
},
{
closed = 1;
nodes = (
"503 0 LINE",
"663 0 LINE",
"663 700 LINE",
"543 700 LINE",
"543 158 LINE",
"246 700 LINE",
"86 700 LINE",
"86 0 LINE",
"206 0 LINE",
"206 544 LINE"
);
}
);
width = 749;
}
);
leftKerningGroup = B;
note = Nacute;
rightKerningGroup = H;
unicode = 0143;
},
